<svg width="864" height="827" viewBox="0 0 864 827" fill="none" xmlns="http://www.w3.org/2000/svg">
<path opacity="0.6" d="M392.106 -7.43486C406.473 -43.5045 457.527 -43.5045 471.894 -7.43487C484.478 24.1577 525.432 32.304 549.148 7.93181C576.224 -19.8943 623.393 -0.356438 622.863 38.4655C622.398 72.4687 657.118 95.6676 688.355 82.2261C724.019 66.8798 760.12 102.981 744.774 138.645C731.332 169.882 754.531 204.602 788.534 204.137C827.357 203.607 846.894 250.776 819.068 277.852C794.696 301.568 802.842 342.522 834.435 355.106C870.505 369.473 870.505 420.527 834.435 434.894C802.842 447.478 794.696 488.432 819.068 512.148C846.894 539.224 827.356 586.393 788.535 585.863C754.531 585.398 731.332 620.118 744.774 651.355C760.12 687.019 724.019 723.12 688.355 707.774C657.118 694.332 622.398 717.531 622.863 751.535C623.393 790.357 576.224 809.894 549.148 782.068C525.432 757.696 484.478 765.842 471.894 797.435C457.527 833.505 406.473 833.505 392.106 797.435C379.522 765.842 338.568 757.696 314.852 782.068C287.776 809.894 240.607 790.357 241.137 751.534C241.602 717.531 206.882 694.332 175.645 707.774C139.981 723.12 103.88 687.019 119.226 651.355C132.668 620.118 109.469 585.398 75.4655 585.863C36.6436 586.393 17.1057 539.224 44.9318 512.148C69.304 488.432 61.1577 447.478 29.5651 434.894C-6.50455 420.527 -6.50454 369.473 29.5651 355.106C61.1577 342.522 69.3041 301.568 44.9318 277.852C17.1057 250.776 36.6436 203.607 75.4655 204.137C109.469 204.602 132.668 169.882 119.226 138.645C103.88 102.981 139.981 66.8798 175.645 82.2261C206.882 95.6676 241.602 72.4687 241.137 38.4655C240.607 -0.356438 287.776 -19.8943 314.852 7.93182C338.568 32.3041 379.522 24.1577 392.106 -7.43486Z" stroke="#2391FF" stroke-opacity="0.4" stroke-width="4"/>
</svg>
