<svg width="1018" height="904" viewBox="0 0 1018 904" fill="none" xmlns="http://www.w3.org/2000/svg">
<path opacity="0.6" d="M461.627 -79.6572C478.687 -122.489 539.313 -122.489 556.373 -79.6572C571.115 -42.6465 619.093 -33.103 646.876 -61.6551C679.029 -94.698 735.04 -71.4972 734.411 -25.397C733.867 14.4377 774.541 41.6154 811.135 25.8687C853.485 7.64525 896.355 50.5147 878.131 92.8647C862.385 129.459 889.562 170.133 929.397 169.589C975.497 168.96 998.698 224.971 965.655 257.124C937.103 284.907 946.646 332.885 983.657 347.627C1026.49 364.687 1026.49 425.313 983.657 442.373C946.646 457.115 937.103 505.093 965.655 532.876C998.698 565.029 975.497 621.04 929.397 620.411C889.562 619.867 862.385 660.541 878.131 697.135C896.355 739.485 853.485 782.355 811.135 764.131C774.541 748.385 733.867 775.562 734.411 815.397C735.04 861.497 679.029 884.698 646.876 851.655C619.093 823.103 571.115 832.646 556.373 869.657C539.313 912.489 478.687 912.489 461.627 869.657C446.885 832.646 398.907 823.103 371.124 851.655C338.971 884.698 282.96 861.497 283.589 815.397C284.133 775.562 243.459 748.385 206.865 764.131C164.515 782.355 121.645 739.485 139.869 697.135C155.615 660.541 128.438 619.867 88.603 620.411C42.5028 621.04 19.302 565.029 52.3449 532.876C80.897 505.093 71.3535 457.115 34.3428 442.373C-8.48907 425.313 -8.48907 364.687 34.3428 347.627C71.3535 332.885 80.897 284.907 52.3449 257.124C19.302 224.971 42.5028 168.96 88.603 169.589C128.438 170.133 155.615 129.459 139.869 92.8647C121.645 50.5147 164.515 7.64523 206.865 25.8686C243.459 41.6154 284.133 14.4377 283.589 -25.397C282.96 -71.4972 338.971 -94.698 371.124 -61.6551C398.907 -33.103 446.885 -42.6465 461.627 -79.6572Z" stroke="#2391FF" stroke-opacity="0.4" stroke-width="4"/>
</svg>
