<svg xmlns="http://www.w3.org/2000/svg" viewBox="0 0 449 283"><filter id="b"><feGaussianBlur stdDeviation="12" /></filter><path fill="#dfe1e1" d="M0 0h449v282H0z"/><g filter="url(#b)" transform="translate(.9 .9) scale(1.7539)" fill-opacity=".5"><ellipse fill="#852a00" rx="1" ry="1" transform="matrix(-26.21574 23.6339 -34.68526 -38.4744 162.5 98.7)"/><ellipse rx="1" ry="1" transform="matrix(5.57981 -13.60499 20.34935 8.34588 177.2 73.5)"/><ellipse fill="#fff" cx="37" cy="60" rx="82" ry="92"/><ellipse fill="#f1ffff" cx="209" cy="105" rx="21" ry="37"/><ellipse fill="#fff3dc" cx="160" cy="93" rx="12" ry="19"/><ellipse fill="#faffff" cx="255" cy="41" rx="69" ry="69"/><ellipse fill="#d7f1fc" rx="1" ry="1" transform="matrix(1.4531 22.4704 -51.845 3.35267 151 39.2)"/><path fill="#7c674e" d="M162 112.6l21.2-8.6 28.9 71.4-21.3 8.6z"/><path fill="#f6ffff" d="M-6 132l211 37L32 18z"/><ellipse fill="#1f0000" cx="161" cy="70" rx="26" ry="9"/><path fill="#fc4224" d="M119 62h29v35h-29z"/><path fill="#f08c51" d="M178 0l19 7-55 27z"/><path fill="#fcffff" d="M99-16l33 95 33-95z"/><path fill="#40a6dc" d="M103 135h10v26h-10z"/><path fill="#080000" d="M144 77h5v30h-5z"/><path fill="#190000" d="M181 98h7v33h-7z"/><ellipse fill="#eefeff" cx="231" cy="104" rx="34" ry="34"/><path fill="#ecb085" d="M234 176l-15-43-33-18z"/><ellipse fill="#82d1f7" rx="1" ry="1" transform="rotate(134.7 -14 33.4) scale(23.42497 15.00495)"/><ellipse fill="#9ec5d9" rx="1" ry="1" transform="rotate(17.8 -47.7 479.7) scale(22.58207 12.02982)"/><ellipse fill="#3ba4fb" cx="193" cy="154" rx="8" ry="13"/><ellipse fill="#f3fffc" rx="1" ry="1" transform="rotate(97.2 34.6 94) scale(23.57883 2.97713)"/></g></svg>