<svg xmlns="http://www.w3.org/2000/svg" viewBox="0 0 774 356"><filter id="b"><feGaussianBlur stdDeviation="12" /></filter><path fill="#818d95" d="M0 0h774v353H0z"/><g filter="url(#b)" transform="translate(1.5 1.5) scale(3.02344)" fill-opacity=".5"><ellipse rx="1" ry="1" transform="matrix(-187.499 5.13678 -.54087 -19.74255 106.3 106.5)"/><ellipse fill="#dcf2ff" rx="1" ry="1" transform="rotate(174.2 62.7 25.5) scale(143.1489 40.23521)"/><ellipse cx="74" cy="109" rx="255" ry="23"/><ellipse fill="#0a54ae" cx="48" cy="43" rx="34" ry="21"/><path fill="#fff" d="M-16 31L22 0l85 5z"/><ellipse cx="255" cy="103" rx="28" ry="25"/><path fill="#e5e3e8" d="M201 83l51-76 1 71z"/><ellipse cx="174" cy="101" rx="208" ry="14"/><ellipse fill="#eadfdf" cx="115" cy="37" rx="37" ry="37"/><path d="M23.1 124.3l-62.3-43.6 16.1-23 62.3 43.6z"/><path fill="#00f0ff" d="M175.4 77.9l25.8-3.7 1.4 10-25.8 3.6z"/><path fill="#859d8c" d="M23 59h23v57H23z"/><path fill="#fff" d="M1 3h13v55H1z"/><path d="M106 2L78-16l72 16z"/><path d="M0 0h255v2H0z"/><path fill="#faf2f2" d="M64 2h187v9H64z"/><ellipse fill="#001326" cx="194" cy="24" rx="34" ry="2"/><ellipse fill="#faeeeb" cx="119" cy="78" rx="59" ry="9"/><path d="M254 0h2v117h-2z"/><path fill="#405e47" d="M241.3 57.7L239.1 91l-5.7 35.1-20.8 5.8z"/><path d="M28 91h183v26H28z"/><ellipse fill="#fff" cx="213" cy="116" rx="2" ry="33"/></g></svg>