<svg xmlns="http://www.w3.org/2000/svg" viewBox="0 0 774 356"><filter id="b"><feGaussianBlur stdDeviation="12" /></filter><path fill="#818d95" d="M0 0h774v353H0z"/><g filter="url(#b)" transform="translate(1.5 1.5) scale(3.02344)" fill-opacity=".5"><ellipse cx="161" cy="105" rx="255" ry="19"/><ellipse fill="#dcf0ff" cx="152" cy="44" rx="255" ry="43"/><ellipse cx="132" cy="106" rx="255" ry="20"/><ellipse fill="#1659ae" rx="1" ry="1" transform="matrix(-34.37966 1.2039 -.76766 -21.92211 48.7 41.3)"/><path d="M260.6 76.4l7.1 33.2-28.3 6-7.1-33.2zM-26.7 90l16.6-23.8L26.7 92l-16.6 23.8z"/><ellipse rx="1" ry="1" transform="matrix(.04931 -20.27895 86.7707 .21099 132 107.4)"/><ellipse cx="136" rx="179" ry="2"/><ellipse fill="#ede3e4" rx="1" ry="1" transform="matrix(37.48532 17.4001 -14.85943 32.0119 118.3 47.6)"/><path d="M254 0h2v117h-2z"/><path fill="#fff3ea" d="M7 2h87v21H7z"/><path fill="#01aeb0" d="M176 64h25v22h-25z"/><ellipse fill="#fffffd" cx="213" cy="116" rx="2" ry="34"/><ellipse fill="#fdf7f6" cx="25" cy="111" rx="2" ry="39"/><path fill="#d1ebeb" d="M9 71l19 21 75-18z"/><ellipse cy="2" rx="1" ry="124"/><path fill="#17104e" d="M15 23h63v6H15z"/><path d="M271 82.6L245.6 132l-7-78-4.6 26z"/><path fill="#2ba6a6" d="M21 48l36 40L7 60z"/><path d="M221 22h2v42h-2zm-64 1h43v2h-43z"/><path fill="#f1ecec" d="M41.7 134.4l2.6-49 2 .2-2.6 49z"/></g></svg>