<svg xmlns="http://www.w3.org/2000/svg" viewBox="0 0 225 318"><filter id="b"><feGaussianBlur stdDeviation="12" /></filter><path fill="#d7d1d3" d="M0 0h224v318H0z"/><g filter="url(#b)" transform="translate(.6 .6) scale(1.24219)" fill-opacity=".5"><path fill="#807273" d="M4.4 228.6l6.2-195.3 10 213.6 175.4-2.2z"/><path fill="#796b6d" d="M7 7h163v13H7z"/><ellipse fill="#847476" cx="166" cy="134" rx="6" ry="129"/><ellipse fill="#f9f3f6" cx="133" cy="147" rx="25" ry="71"/><ellipse fill="#fff8fb" cx="50" cy="42" rx="30" ry="29"/><path fill="#fff" d="M49 248l94 23 53-27z"/><ellipse fill="#fff9fc" cx="129" cy="43" rx="29" ry="27"/><ellipse fill="#fff" cy="134" rx="6" ry="180"/><ellipse fill="#fff" cx="179" cy="99" rx="8" ry="180"/><ellipse fill="#8b7e7d" cx="9" cy="65" rx="4" ry="180"/><path fill="#83634e" d="M88.9 30.7l11.4 12.6-11.2 10-11.4-12.6z"/><ellipse fill="#fff" cx="86" cy="2" rx="147" ry="4"/><path fill="#9c9695" d="M118 89L55 72l80-3z"/><ellipse fill="#fff" cx="55" cy="253" rx="180" ry="7"/><path fill="#817475" d="M44 243l-38 4 2-20z"/><path fill="#8e8183" d="M124 232h48v15h-48z"/><ellipse fill="#fff9fe" cx="88" cy="225" rx="72" ry="6"/><ellipse fill="#ece8e9" rx="1" ry="1" transform="rotate(165.2 24.6 92.3) scale(56.31271 21.85733)"/><ellipse fill="#818483" cx="82" cy="134" rx="66" ry="2"/><path fill="#a99c9d" d="M12 52.5h8v89h-8z"/><path fill="#726b6b" d="M52 78h58v3H52z"/><ellipse fill="#b5a9ac" cx="84" cy="236" rx="69" ry="5"/></g></svg>