<svg xmlns="http://www.w3.org/2000/svg" viewBox="0 0 1240 1754"><filter id="b"><feGaussianBlur stdDeviation="12" /></filter><path fill="#d6cfd1" d="M0 0h1240v1754H0z"/><g filter="url(#b)" transform="translate(3.4 3.4) scale(6.85156)" fill-opacity=".5"><ellipse fill="#817372" cx="9" cy="108" rx="6" ry="180"/><ellipse fill="#877c7c" cx="89" cy="10" rx="162" ry="8"/><path fill="#7c6f70" d="M172.4 235l.2 13-163 3-.2-13z"/><ellipse fill="#897a7b" cx="168" cy="111" rx="6" ry="180"/><ellipse fill="#fdf6fb" cx="138" cy="153" rx="22" ry="82"/><ellipse fill="#fffafe" cx="48" cy="40" rx="30" ry="30"/><path fill="#fffbff" d="M97 19h62v49H97z"/><path fill="#fff" d="M174 0h7v256h-7z"/><ellipse fill="#fff" cx="104" cy="255" rx="149" ry="7"/><path fill="#9c9595" d="M55 70h76v15H55z"/><path fill="#907360" d="M71.5 37.7l22.7 13.1 7-14.8-11.9-5.1z"/><ellipse fill="#e4e0e4" cx="100" cy="157" rx="55" ry="78"/><path fill="#fff" d="M19 55l35 33-36 2z"/><ellipse fill="#fff" cx="158" cy="1" rx="180" ry="2"/><path fill="#fff" d="M-3.5 126.5V3.5h7v123z"/><ellipse fill="#999" cx="68" cy="132" rx="62" ry="4"/><path fill="#818383" d="M24 149h119v3H24z"/><path fill="#626463" d="M74 110h72v2H74z"/><ellipse fill="#fff" rx="1" ry="1" transform="matrix(1.03767 73.14474 -3.44846 .04892 .7 177.5)"/><ellipse fill="#b9afb1" cx="14" cy="166" rx="5" ry="180"/><path fill="#fff7fd" d="M19 223h134v11H19z"/><path fill="#505452" d="M21 119h110v1H21z"/></g></svg>