<svg xmlns="http://www.w3.org/2000/svg" viewBox="0 0 225 318"><filter id="b"><feGaussianBlur stdDeviation="12" /></filter><path fill="#ddd7d9" d="M0 0h224v318H0z"/><g filter="url(#b)" transform="translate(.6 .6) scale(1.24219)" fill-opacity=".5"><ellipse fill="#8c8486" cx="82" cy="9" rx="88" ry="4"/><ellipse fill="#9d9193" cx="12" cy="131" rx="4" ry="175"/><ellipse fill="#a6999a" cx="88" cy="46" rx="55" ry="9"/><ellipse fill="#c0bbbd" rx="1" ry="1" transform="matrix(-15.21018 -88.9832 26.91066 -4.59992 57.7 157.8)"/><ellipse fill="#fbf0f5" cx="137" cy="129" rx="28" ry="81"/><ellipse fill="#fff" cx="85" cy="253" rx="180" ry="9"/><ellipse fill="#978b8d" cx="168" cy="126" rx="4" ry="179"/><ellipse fill="#fff" cx="2" cy="133" rx="6" ry="180"/><ellipse fill="#fff" cx="177" cy="137" rx="5" ry="180"/><path fill="#8e8386" d="M13 237h153v8H13z"/><ellipse fill="#fff" cx="91" rx="118" ry="7"/><ellipse fill="#fff" cx="137" cy="250" rx="180" ry="6"/><path fill="#bfbdc0" d="M28 216l107-7-105-63z"/><ellipse fill="#eee4e6" rx="1" ry="1" transform="matrix(-16.53792 -25.36353 51.10553 -33.32261 103 116.4)"/><path fill="#f7edf1" d="M86.8 43.7l95.3-22.6-36.5 22.5-19.5.6z"/><path fill="#5f6362" d="M27 79h97v2H27z"/><path fill="#6f7070" d="M101 58h32v3h-32z"/><ellipse fill="#7d7474" cx="105" cy="46" rx="49" ry="2"/><ellipse fill="#fff7fa" cx="101" cy="42" rx="80" ry="2"/><ellipse fill="#fff" cy="92" rx="8" ry="180"/><path fill="#fef3f6" d="M18 62h106v13H18z"/><path fill="#9b9093" d="M108 7h60v7h-60z"/></g></svg>