<svg xmlns="http://www.w3.org/2000/svg" viewBox="0 0 1240 1754"><filter id="b"><feGaussianBlur stdDeviation="12" /></filter><path fill="#dbd4d7" d="M0 0h1240v1754H0z"/><g filter="url(#b)" transform="translate(3.4 3.4) scale(6.85156)" fill-opacity=".5"><ellipse fill="#f4eaee" cx="153" cy="127" rx="72" ry="72"/><ellipse fill="#a8999a" cx="91" cy="44" rx="60" ry="8"/><ellipse fill="#c4bfc1" rx="1" ry="1" transform="rotate(44.3 -215.4 166.3) scale(35.03441 64.55882)"/><ellipse fill="#989090" cx="171" cy="126" rx="5" ry="153"/><ellipse fill="#9c9293" cx="145" cy="244" rx="175" ry="5"/><ellipse fill="#fff" cx="180" cy="154" rx="6" ry="180"/><ellipse fill="#989191" cx="152" cy="6" rx="180" ry="5"/><ellipse fill="#9b9090" cx="9" cy="125" rx="4" ry="180"/><ellipse fill="#bbb8bb" rx="1" ry="1" transform="matrix(-16.75383 -1.28345 3.36956 -43.9853 42.1 116.6)"/><path fill="#fff" d="M183 249v12H-33v-12z"/><ellipse fill="#fff" cx="2" cy="119" rx="3" ry="180"/><path fill="#fbeff5" d="M14 34h12v206H14z"/><path fill="#f7edef" d="M87.4 140.7l-40.8 15.5 22.2 3.4 110-4.8z"/><ellipse fill="#f2eaf0" rx="1" ry="1" transform="matrix(-15.60134 -30.66736 22.16176 -11.2743 141.5 196.9)"/><ellipse fill="#9fa4aa" cx="110" cy="212" rx="32" ry="4"/><path fill="#fef4f8" d="M24 61h122v12H24z"/><path fill="#f6ebf2" d="M136 10h32v50h-32z"/><path fill="#f3e7ec" d="M14 10h57v31H14z"/><path fill="#6b6e6e" d="M27 78h89v2H27z"/><path fill="#fff" d="M196 33V-3l-36-7z"/><path fill="#675352" d="M69 34h42v3H69z"/><ellipse fill="#fef1f5" cx="78" cy="238" rx="68" ry="3"/></g></svg>