<svg xmlns="http://www.w3.org/2000/svg" viewBox="0 0 225 318"><filter id="b"><feGaussianBlur stdDeviation="12" /></filter><path fill="#dcd6d8" d="M0 0h224v318H0z"/><g filter="url(#b)" transform="translate(.6 .6) scale(1.24219)" fill-opacity=".5"><ellipse fill="#a49899" cx="88" cy="45" rx="56" ry="9"/><path fill="#faeff4" d="M82 164l83 62-1-214z"/><ellipse fill="#b9b6b8" rx="1" ry="1" transform="matrix(-31.55134 -3.14924 4.5421 -45.50601 56.1 117.8)"/><ellipse fill="#988c8e" cx="169" cy="184" rx="4" ry="180"/><ellipse fill="#9b8f91" cx="11" cy="165" rx="4" ry="180"/><path fill="#fff" d="M183 246v16H-47v-16z"/><path fill="#8f8487" d="M14 238h158v8H14z"/><ellipse fill="#8a8083" cx="78" cy="9" rx="99" ry="4"/><ellipse fill="#fff" cy="123" rx="7" ry="180"/><ellipse fill="#fff" cx="178" cy="101" rx="5" ry="180"/><path fill="#bcbabc" d="M29 150h31v80H29z"/><path fill="#fff" d="M40.6-2.7l133 2.4-.2 7-133-2.4z"/><ellipse fill="#fffbff" cx="61" cy="41" rx="99" ry="2"/><ellipse fill="#9c9a9b" cx="66" cy="226" rx="22" ry="4"/><ellipse fill="#f4ebee" cx="123" cy="86" rx="35" ry="26"/><ellipse fill="#fff" cx="83" rx="180" ry="5"/><ellipse fill="#fff" cx="76" cy="255" rx="165" ry="10"/><path fill="#fcf2f6" d="M101 61v12H17V61z"/><path fill="#a9a7a7" d="M55 112h73v5H55z"/><ellipse fill="#fff" cx="180" cy="154" rx="7" ry="180"/><ellipse fill="#fff" cx="3" cy="95" rx="4" ry="180"/><path fill="#807675" d="M52 50h76v4H52z"/></g></svg>