<svg xmlns="http://www.w3.org/2000/svg" viewBox="0 0 1240 1754"><filter id="b"><feGaussianBlur stdDeviation="12" /></filter><path fill="#dad4d6" d="M0 0h1240v1754H0z"/><g filter="url(#b)" transform="translate(3.4 3.4) scale(6.85156)" fill-opacity=".5"><ellipse fill="#faeef4" rx="1" ry="1" transform="matrix(-37.24836 .13002 -.26771 -76.69374 132.4 133.8)"/><ellipse fill="#8e8586" cx="86" cy="6" rx="123" ry="4"/><ellipse fill="#a29294" rx="1" ry="1" transform="rotate(-179.5 45.9 22.9) scale(63.80423 5.76961)"/><ellipse fill="#b8b4b7" cx="54" cy="116" rx="29" ry="44"/><ellipse fill="#988c8e" cx="171" cy="167" rx="4" ry="180"/><ellipse fill="#998e8e" cx="9" cy="137" rx="4" ry="169"/><path fill="#9a9091" d="M196 242l-156.8-2-55.2 8 146 1.2z"/><ellipse fill="#fff" cx="40" cy="254" rx="180" ry="6"/><ellipse fill="#bebbbe" rx="1" ry="1" transform="matrix(-16.7484 3.22523 -8.66728 -45.00857 43.5 187.3)"/><ellipse fill="#fff" cx="178" cy="108" rx="3" ry="180"/><ellipse fill="#fff" rx="1" ry="1" transform="matrix(2.82732 179.9778 -5.49577 .08633 0 79.4)"/><path fill="#f5eaf1" d="M131 11h36v100h-36z"/><path fill="#f9eff6" d="M140 156h27v72h-27z"/><path fill="#7c6869" d="M70 33l39 1-19 5z"/><path fill="#fcf1f8" d="M14 45h39v28H14z"/><ellipse fill="#f3e7ee" rx="1" ry="1" transform="matrix(-1.05443 -100.68672 6.51698 -.06825 19.8 143.7)"/><path fill="#8f8f8f" d="M31 154h110v2H31z"/><path fill="#f6ecef" d="M56 155h85v22H56z"/><path fill="#969496" d="M26 225h60v7H26z"/><ellipse fill="#fff" cx="153" rx="177" ry="2"/><path fill="#aeabac" d="M26 192h103v6H26z"/><path fill="#736565" d="M147 45h-32v-4h32z"/></g></svg>