<svg xmlns="http://www.w3.org/2000/svg" viewBox="0 0 1240 1754"><filter id="b"><feGaussianBlur stdDeviation="12" /></filter><path fill="#ddd5d8" d="M0 0h1240v1754H0z"/><g filter="url(#b)" transform="translate(3.4 3.4) scale(6.85156)" fill-opacity=".5"><ellipse fill="#fbf1f6" cx="131" cy="130" rx="36" ry="80"/><path fill="#938585" d="M37 40.5h96v11H37z"/><path fill="#8e8687" d="M2 241h175v8H2z"/><ellipse fill="#978c8c" cx="9" cy="106" rx="4" ry="147"/><ellipse fill="#978d8e" cx="171" cy="173" rx="4" ry="172"/><ellipse fill="#8d8687" cx="76" cy="6" rx="149" ry="4"/><ellipse fill="#bbb9bb" rx="1" ry="1" transform="matrix(-2.65491 60.80749 -18.7875 -.82028 42.8 130.8)"/><path fill="#fff" d="M188.5 249v12h-201v-12z"/><ellipse fill="#fff" cx="178" cy="179" rx="4" ry="180"/><ellipse fill="#fffafd" cx="81" cy="46" rx="61" ry="2"/><path fill="#6b5958" d="M75 34h38v4H75z"/><ellipse fill="#fff" cy="108" rx="5" ry="180"/><path fill="#f5ebf2" d="M51 46l-36-3-2 59z"/><ellipse fill="#9d9d9f" rx="1" ry="1" transform="matrix(-28.64654 0 0 -4.08092 51.4 228)"/><path fill="#fbf0f1" d="M93.6 132.2l3.6 33.8-36.8 3.8-3.6-33.8z"/><ellipse fill="#f8f0f4" cx="57" cy="201" rx="45" ry="11"/><ellipse fill="#fff" cx="60" rx="151" ry="2"/><path fill="#656867" d="M99 56h37v3H99z"/><path fill="#c0bdbf" d="M21 72h55v21H21z"/><path fill="#f6edf4" d="M139 151h27v77h-27z"/><ellipse fill="#fff" cx="178" cy="41" rx="3" ry="180"/><path fill="#a9a9aa" d="M25 212h46v7H25z"/></g></svg>