<svg xmlns="http://www.w3.org/2000/svg" viewBox="0 0 225 318"><filter id="b"><feGaussianBlur stdDeviation="12" /></filter><path fill="#dfd8da" d="M0 0h224v318H0z"/><g filter="url(#b)" transform="translate(.6 .6) scale(1.24219)" fill-opacity=".5"><ellipse fill="#9a8f90" cx="86" cy="48" rx="61" ry="6"/><ellipse fill="#93898c" cx="63" cy="240" rx="162" ry="4"/><ellipse fill="#978c8e" cx="168" cy="189" rx="4" ry="180"/><path fill="#fff" d="M177.4-16l-9.2 260.3-184.2 2.8L196 271z"/><ellipse fill="#82787b" cx="91" cy="10" rx="86" ry="4"/><ellipse fill="#b3b1b4" rx="1" ry="1" transform="rotate(-88.5 89 44.6) scale(59.00623 14.31774)"/><ellipse fill="#a29799" cx="12" cy="114" rx="5" ry="134"/><ellipse fill="#fff" cy="124" rx="8" ry="180"/><ellipse fill="#f7edf2" cx="123" cy="134" rx="41" ry="73"/><ellipse fill="#fff" rx="1" ry="1" transform="matrix(-.01655 4.6619 -123.60537 -.43883 86.2 1.8)"/><ellipse fill="#fff" cx="78" cy="255" rx="180" ry="11"/><path fill="#7d6f6f" d="M70 37h39v5H70z"/><ellipse fill="#fff" cx="176" cy="20" rx="5" ry="180"/><path fill="#a2979a" d="M165 10h7v72h-7z"/><path fill="#929293" d="M33 221h53v7H33z"/><path fill="#f9eff5" d="M15 48h37v21H15z"/><ellipse fill="#94898b" cx="170" cy="206" rx="2" ry="36"/><path fill="#b0aeae" d="M28 167h97v6H28z"/><path fill="#b5b2b4" d="M28 78h54v13H28z"/><path fill="#f6edf1" d="M48 48h114v3H48z"/><ellipse fill="#f6ebf0" cx="19" cy="140" rx="5" ry="97"/><path fill="#6d6f6e" d="M100 58h33v3h-33z"/></g></svg>