<svg xmlns="http://www.w3.org/2000/svg" viewBox="0 0 1440 900"><filter id="b"><feGaussianBlur stdDeviation="12" /></filter><path fill="#80919b" d="M0 0h1440v900H0z"/><g filter="url(#b)" transform="translate(2.8 2.8) scale(5.625)" fill-opacity=".5"><ellipse fill="#fff" rx="1" ry="1" transform="matrix(.15166 -30.58867 119.68303 .59339 140.8 38)"/><ellipse fill="#000242" rx="1" ry="1" transform="rotate(-8.1 1215.7 -1296.2) scale(67.8443 53.89735)"/><ellipse fill="#00091b" rx="1" ry="1" transform="rotate(108.2 -34.3 84.6) scale(90.65323 30.73094)"/><ellipse fill="#fff" cx="104" cy="122" rx="35" ry="27"/><ellipse rx="1" ry="1" transform="matrix(-187.83734 -1.7981 .09995 -10.44087 108.2 0)"/><ellipse cx="114" cy="159" rx="227" ry="9"/><ellipse fill="#f7ffff" cx="194" cy="51" rx="39" ry="39"/><ellipse fill="#fffffd" cx="112" cy="120" rx="28" ry="25"/><ellipse fill="#155089" cx="163" cy="115" rx="26" ry="38"/><path fill="#aacfe0" d="M19 8h32v95H19z"/><ellipse fill="#fdffff" cx="234" cy="22" rx="45" ry="15"/><ellipse cx="124" rx="255" ry="8"/><ellipse fill="#ecffff" rx="1" ry="1" transform="matrix(-71.76585 -20.06542 5.29715 -18.94574 91.6 35.7)"/><path fill="#424856" d="M96.6 100.8L72 78.8l19.4-21.6 24.6 22z"/><ellipse cx="62" cy="83" rx="8" ry="35"/><ellipse fill="#587075" cx="13" cy="98" rx="38" ry="34"/><path d="M58 152h198v8H58z"/><path fill="#ffffea" d="M74 97h65v48H74z"/><ellipse fill="#2f73ba" rx="1" ry="1" transform="rotate(-115.4 134.4 1.8) scale(15.96465 54.93145)"/><path fill="#8c907d" d="M76 8h125v9H76z"/><path d="M149 93l26-1-12-14z"/><path fill="#82a6a8" d="M211 46h45v72h-45z"/></g></svg>