<svg xmlns="http://www.w3.org/2000/svg" viewBox="0 0 472 302"><filter id="b"><feGaussianBlur stdDeviation="12" /></filter><path fill="#68747e" d="M0 0h472v300H0z"/><g filter="url(#b)" transform="translate(1 1) scale(1.84375)" fill-opacity=".5"><ellipse fill="#fff" rx="1" ry="1" transform="rotate(-79.6 64.5 -58.3) scale(63.8153 116.5274)"/><ellipse fill="#000014" rx="1" ry="1" transform="rotate(-87.4 159.8 -30) scale(61.7804 160.5619)"/><ellipse rx="1" ry="1" transform="matrix(-25.48335 .804 -2.28224 -72.33796 43.2 100)"/><ellipse fill="#f7fffe" rx="1" ry="1" transform="matrix(-73.01854 -67.85144 27.09458 -29.15791 114 33.3)"/><ellipse fill="#fff" rx="1" ry="1" transform="rotate(-152.5 10.4 9) scale(17.29565 84.43861)"/><ellipse rx="1" ry="1" transform="rotate(94.4 82.8 146) scale(75.70338 19.63394)"/><ellipse fill="#2e9dff" cx="220" cy="156" rx="49" ry="11"/><path fill="#b9d5f1" d="M41.5 184.3L16 193.1l-33.5-97.4L8 86.9z"/><ellipse fill="#fff" cx="89" cy="50" rx="29" ry="28"/><ellipse fill="#688c9c" rx="1" ry="1" transform="matrix(-63.02395 55.96243 -18.34344 -20.65807 173 67.1)"/><path d="M271 86l-131 31 15 53z"/><ellipse fill="#000916" cx="39" cy="83" rx="27" ry="49"/><path fill="#72411d" d="M59.2 53l-23-34 16.2-1.8 10.9 3.2z"/><ellipse fill="#010a0d" rx="1" ry="1" transform="matrix(31.25276 -7.96648 13.33853 52.32752 61.7 147.7)"/><ellipse fill="#fff" rx="1" ry="1" transform="matrix(71.17688 27.66985 -9.44822 24.30425 72.2 0)"/><path fill="#fff" d="M251 23h5v31h-5z"/><ellipse cx="246" cy="72" rx="24" ry="22"/><ellipse fill="#495f6f" cx="155" cy="96" rx="57" ry="13"/><ellipse fill="#fff" cx="7" cy="20" rx="25" ry="29"/><ellipse fill="#d5e7e4" cx="150" cy="22" rx="32" ry="59"/><path fill="#153d88" d="M203 39l-20.3-5.8 6.4-22.1 20.2 5.7z"/><path fill="#7bffff" d="M13 56l-29-10.2 1.5 35.6L14 72z"/></g></svg>