<svg xmlns="http://www.w3.org/2000/svg" viewBox="0 0 472 302"><filter id="b"><feGaussianBlur stdDeviation="12" /></filter><path fill="#87776b" d="M0 0h472v300H0z"/><g filter="url(#b)" transform="translate(1 1) scale(1.84375)" fill-opacity=".5"><ellipse fill="#fff" rx="1" ry="1" transform="matrix(-50.86629 -3.8036 2.08917 -27.93896 24 58.6)"/><ellipse fill="#15130e" rx="1" ry="1" transform="rotate(-98.4 67 53) scale(36.08324 228.09762)"/><ellipse fill="#ebd2bd" cx="211" cy="46" rx="95" ry="36"/><ellipse fill="#bfa191" cx="134" cy="19" rx="156" ry="38"/><ellipse rx="1" ry="1" transform="matrix(-99.59533 50.4315 -6.59938 -13.03287 255 151.2)"/><ellipse rx="1" ry="1" transform="matrix(8.66237 -13.37843 19.46496 12.60332 20.4 146.2)"/><ellipse fill="#ceab94" cx="64" cy="116" rx="42" ry="6"/><path fill="#050000" d="M55 121h80v24H55z"/><path fill="#0d0500" d="M244 96L80 118l83 12z"/><path fill="#dbd2c7" d="M54.2 120.8L-5.1 130l-1-6.9L53 114z"/><path fill="#d1ddde" d="M15 17l34 36-49 68z"/><path fill="#deb498" d="M217 97.2L62 121.7l-1-6.9 155-24.5z"/><path fill="#8e6b50" d="M88 108h17v55H88z"/><path fill="#000004" d="M120.7 70.6L123 58l-9.7-1.1-5.4 18.8z"/><path fill="#ffd" d="M231.9 12.2l-2.6-20.9 28.8-3.5 2.6 20.9z"/><ellipse fill="#c5b7af" cx="89" rx="22" ry="51"/><path fill="#8dffff" d="M96 60h15v10H96z"/><ellipse fill="#cac0b2" cx="196" cy="63" rx="76" ry="16"/><ellipse fill="#7d4322" rx="1" ry="1" transform="rotate(47.4 41.5 153.9) scale(9.66561 20.97142)"/><ellipse fill="#d4d1cd" cx="132" cy="157" rx="15" ry="9"/><path fill="#dcd2cd" d="M191.4 137.8l10.5 12.1-15 6.2-13-21z"/><path fill="#0a222a" d="M121.5 60.2l-38.5-8 6.8 26 8-17.5z"/></g></svg>