<svg xmlns="http://www.w3.org/2000/svg" viewBox="0 0 472 302"><filter id="b"><feGaussianBlur stdDeviation="12" /></filter><path fill="#474f47" d="M0 0h472v300H0z"/><g filter="url(#b)" transform="translate(1 1) scale(1.84375)" fill-opacity=".5"><path fill="#fff" d="M115 9h73v43h-73z"/><ellipse fill="#8fc6c7" rx="1" ry="1" transform="matrix(34.5188 -8.36415 9.55779 39.44494 20 38.3)"/><ellipse rx="1" ry="1" transform="matrix(-23.59868 13.08096 -20.83472 -37.58683 85.3 27.5)"/><ellipse fill="#83c1c0" cx="244" cy="30" rx="32" ry="48"/><ellipse fill="#212313" rx="1" ry="1" transform="matrix(2.1855 44.051 -127.15953 6.30878 73.4 130)"/><ellipse cx="199" cy="5" rx="15" ry="72"/><path d="M104 52h73v23h-73z"/><path fill="#fff" d="M167 8h17v39h-17z"/><ellipse fill="#110019" cx="156" cy="31" rx="15" ry="9"/><path fill="#ffeaff" d="M117 9l-1 42 34-42z"/><path d="M117.4-40l-1.8 103-53-1 1.8-103z"/><path fill="#cca87e" d="M74 64h20v27H74z"/><ellipse fill="#1e1408" rx="1" ry="1" transform="rotate(-105.3 155.6 -37.7) scale(29.97268 13.33956)"/><ellipse fill="#fdffff" cx="145" cy="46" rx="29" ry="6"/><path fill="#6b6f51" d="M169.8 130.3l-22 47-33.6-15.6 22-47z"/><path fill="#050100" d="M183.3 88.9l25.4 11.8-16 34.4-25.4-11.8z"/><ellipse rx="1" ry="1" transform="rotate(9.9 -759 514) scale(8.02113 31.32006)"/><ellipse cx="132" cy="2" rx="78" ry="5"/><path fill="#b0fbfd" d="M45.4 24.6l-.8 51-6-.2.8-51z"/><path fill="#040000" d="M145 51h34v24h-34z"/><ellipse fill="#5db6be" cx="222" cy="43" rx="9" ry="34"/><path fill="#000601" d="M162 147h25v16h-25z"/></g></svg>