<svg xmlns="http://www.w3.org/2000/svg" viewBox="0 0 472 301"><filter id="b"><feGaussianBlur stdDeviation="12" /></filter><path fill="#93988c" d="M0 0h472v300H0z"/><g filter="url(#b)" transform="translate(1 1) scale(1.84375)" fill-opacity=".5"><ellipse fill="#143039" rx="1" ry="1" transform="matrix(-54.4488 -42.6788 35.12803 -44.81567 140.9 162)"/><ellipse fill="#fef6fb" rx="1" ry="1" transform="matrix(-26.40567 19.62498 -32.28376 -43.43824 65.7 26.6)"/><ellipse fill="#fff" rx="1" ry="1" transform="matrix(-38.73823 -17.8724 10.45715 -22.66576 10.7 118.5)"/><ellipse fill="#856b00" rx="1" ry="1" transform="matrix(22.98067 .67255 -.8572 29.29013 127.8 33.7)"/><ellipse fill="#1d1919" rx="1" ry="1" transform="matrix(.24326 9.40236 -47.70935 1.23436 225 153.5)"/><ellipse fill="#484e22" rx="1" ry="1" transform="matrix(-10.95382 -9.34624 29.66178 -34.76371 242.6 33.4)"/><path fill="#001a28" d="M98 104h61v34H98z"/><path fill="#00f6ff" d="M113 111h28v16h-28z"/><ellipse fill="#a9beb3" rx="1" ry="1" transform="matrix(-41.97363 2.93508 -1.3374 -19.1258 197.8 121)"/><path fill="#0f0d16" d="M12 153h46v10H12z"/><ellipse fill="#c0c2bd" cx="178" rx="36" ry="63"/><path fill="#684124" d="M125.8 83.9l-40.6 3.4 80.5 15.2-15.2-16.1z"/><ellipse fill="#dcd6d8" cx="28" rx="89" ry="32"/><ellipse fill="#94a9a6" cx="81" cy="140" rx="15" ry="90"/><path fill="#d1b9a0" d="M98 137h62v7H98z"/><ellipse fill="#fdffff" rx="1" ry="1" transform="rotate(77.6 -76.6 74.2) scale(13.49828 25.69469)"/><path fill="#373732" d="M48 150l31-16-6 23z"/><path fill="#040000" d="M96 105h19v28H96z"/><ellipse fill="#b6b7ab" rx="1" ry="1" transform="matrix(16.32888 -11.0732 21.88027 32.2653 18 88)"/><path fill="#d8e400" d="M138.3 50.5l-15.1 7.7-9.5-18.7 15.1-7.7z"/><path fill="#cabfb8" d="M156.1 161l6.1-12.5 29.7 14.4-6.1 12.6z"/><ellipse fill="#a7b1a7" rx="1" ry="1" transform="rotate(65.8 42.7 234.1) scale(31.70926 69.84677)"/></g></svg>