<svg xmlns="http://www.w3.org/2000/svg" viewBox="0 0 472 301"><filter id="b"><feGaussianBlur stdDeviation="12" /></filter><path fill="#8a816e" d="M0 0h472v300H0z"/><g filter="url(#b)" transform="translate(1 1) scale(1.84375)" fill-opacity=".5"><ellipse fill="#fff" cx="255" cy="17" rx="33" ry="33"/><ellipse fill="#5b6300" rx="1" ry="1" transform="matrix(-7.17958 -28.24571 104.6431 -26.5985 155 153.9)"/><ellipse fill="#171703" rx="1" ry="1" transform="matrix(-12.20041 -1.87562 5.09898 -33.16744 6.6 100.2)"/><ellipse fill="#222834" rx="1" ry="1" transform="matrix(7.91453 -25.2553 44.66518 13.99722 136.7 0)"/><path fill="#fff" d="M230 0h26v45h-26z"/><ellipse fill="#c0ab9f" rx="1" ry="1" transform="matrix(-1.14782 22.9092 -106.42855 -5.3324 47.1 32.7)"/><ellipse fill="#c8b7b2" rx="1" ry="1" transform="matrix(15.21706 -12.49943 17.87984 21.76728 200.1 42.9)"/><ellipse fill="#d6b6bc" rx="1" ry="1" transform="matrix(140.92623 -25.94537 1.33053 7.227 48 138.5)"/><ellipse fill="#f6d8c4" rx="1" ry="1" transform="matrix(6.84018 .01863 -.10636 39.04007 31.7 74.4)"/><ellipse fill="#394808" rx="1" ry="1" transform="matrix(7.3029 -4.8942 15.72588 23.46544 244 111.3)"/><ellipse fill="#374655" rx="1" ry="1" transform="matrix(-9.55623 .00128 -.0043 -32.05784 53.5 64.4)"/><path fill="#ffe9d8" d="M67 31h9v76h-9z"/><path fill="#f3ddcf" d="M98 38h8v70h-8z"/><ellipse fill="#184000" cx="71" cy="160" rx="16" ry="16"/><path fill="#383e49" d="M81 38h13v82H81z"/><ellipse fill="#fff" cx="255" cy="23" rx="9" ry="39"/><ellipse fill="#665755" rx="1" ry="1" transform="rotate(171.1 39.3 57.6) scale(98.17215 13.52575)"/><ellipse fill="#feffff" rx="1" ry="1" transform="matrix(14.296 -9.49824 44.6192 67.1573 248.2 16.4)"/><ellipse fill="#f1dbcf" cx="125" cy="67" rx="4" ry="37"/><path fill="#312f2b" d="M165 93l7-42 14 58z"/><path fill="#303f50" d="M105 48h13v51h-13z"/><path fill="#e9d5cb" d="M140.6 56.4l4.9 51.3 2.3-36.8 2.4-26z"/></g></svg>