<svg xmlns="http://www.w3.org/2000/svg" viewBox="0 0 216 60"><filter id="b"><feGaussianBlur stdDeviation="12" /></filter><path fill="#2c1213" d="M0 0h216v60H0z"/><g filter="url(#b)" transform="translate(.5 .5)" fill-opacity=".5"><path fill="#c63d26" d="M2.9 47.9l27.3-54-10.7-2.4 23.8 49z"/><ellipse fill="#ff7651" cx="156" cy="33" rx="215" ry="3"/><path fill="#ff5f40" d="M33 36h11v19H33z"/><ellipse fill="#aa3420" cx="71" cy="13" rx="31" ry="10"/><ellipse cx="110" cy="54" rx="70" ry="19"/><path d="M25 21l16 54-31-2z"/><ellipse fill="#000e25" cx="165" cy="6" rx="70" ry="25"/><ellipse fill="#000007" cx="172" cy="53" rx="131" ry="18"/><path fill="#ff6448" d="M19.7 20.2l-.4-14 9-.4.4 14z"/><ellipse cx="5" cy="3" rx="15" ry="27"/><ellipse cx="37" cy="26" rx="3" ry="15"/><ellipse fill="#ff4530" rx="1" ry="1" transform="matrix(-37.21797 .05272 -.0044 -3.11152 145.1 33.5)"/><path d="M-19.9 51.8L-2 31.4l40 34.8-18 20.4z"/><path fill="#ff5840" d="M13.1 42L24-4.7l3 .7-11 46.7z"/><ellipse fill="#ff543d" cx="179" cy="32" rx="149" ry="2"/><path d="M71 7h9v23h-9z"/><path fill="#a93626" d="M38 24l38-12L43 2z"/><path fill="#ff4f38" d="M35 42.1l-6.8-9.6 11.3 32 3.7-30.2z"/><ellipse rx="1" ry="1" transform="matrix(6.2207 .9519 -2.39234 15.63399 24 44)"/><path d="M59.5 31.6L30.3 15.9l6.9 20.9 17.4-22.6z"/><ellipse cx="86" cy="26" rx="54" ry="4"/><path fill="#292d4f" d="M107.4 5l1.2-1.2L157.1 5l-51.9 19.6z"/></g></svg>