<svg xmlns="http://www.w3.org/2000/svg" viewBox="0 0 216 60"><filter id="b"><feGaussianBlur stdDeviation="12" /></filter><path fill="#2c1213" d="M0 0h216v60H0z"/><g filter="url(#b)" transform="translate(.5 .5)" fill-opacity=".5"><ellipse fill="#8e2b19" rx="1" ry="1" transform="matrix(3.70506 16.44687 -53.2976 12.00658 45.8 23.4)"/><ellipse fill="#ff7954" cx="167" cy="33" rx="184" ry="3"/><path fill="#ff5f40" d="M33 36h10v23H33z"/><ellipse cx="148" cy="48" rx="107" ry="13"/><path fill="#ff563c" d="M32.3-9.7l-9.9 9-11.7 52 6.6-6.5z"/><path d="M26.9 22.7l-4.7 8L5.8 75l31.3-8.2zM33 22h73v8H33z"/><ellipse cx="5" rx="16" ry="30"/><ellipse fill="#001029" rx="1" ry="1" transform="rotate(-92.9 90.7 -72.5) scale(14.85422 66.87545)"/><path d="M39.1 43.5l-7.3-24.7L21.9-16 43.1-2.1z"/><path fill="#000108" d="M44 37h172v23H44z"/><ellipse fill="#ff4e38" cx="102" cy="33" rx="77" ry="3"/><ellipse rx="1" ry="1" transform="matrix(.59605 -21.58378 14.88759 .41113 0 56.1)"/><path fill="#f94f39" d="M20.8-16h11.4L19.6 9.6 46.7 75z"/><ellipse cx="37" cy="23" rx="3" ry="18"/><path fill="#ff674a" d="M48 4h3v20h-3z"/><path fill="#00060c" d="M37.3 68.4l8.2-33 57.2 14.2-8.2 33z"/><path d="M41 30h42l-3-15z"/><ellipse fill="#ff503a" cx="190" cy="33" rx="149" ry="3"/><path d="M34.9 56L14.2 75 24 15.4l1.4.5z"/><ellipse fill="#ff6146" cx="70" cy="5" rx="7" ry="2"/><ellipse cx="9" cy="10" rx="10" ry="20"/></g></svg>