<svg xmlns="http://www.w3.org/2000/svg" viewBox="0 0 208 269"><filter id="b"><feGaussianBlur stdDeviation="12" /></filter><path fill="#918275" d="M0 0h207v269H0z"/><g filter="url(#b)" transform="translate(.5 .5) scale(1.05078)" fill-opacity=".5"><ellipse fill="#fff" cx="145" cy="229" rx="166" ry="53"/><ellipse rx="1" ry="1" transform="rotate(-86.9 54.3 -35.6) scale(33.29608 196.00001)"/><ellipse cx="2" cy="153" rx="46" ry="46"/><ellipse fill="#fffebe" rx="1" ry="1" transform="matrix(-53.51952 -3.36716 4.28045 -68.03585 93.8 113.7)"/><ellipse cx="180" cy="107" rx="31" ry="78"/><ellipse rx="1" ry="1" transform="matrix(27.78135 22.32872 -122.78743 152.77188 17.7 40.2)"/><ellipse fill="#fff" rx="1" ry="1" transform="matrix(4.98454 50.15996 -164.28514 16.3255 104.8 242.3)"/><ellipse cx="143" rx="52" ry="52"/><ellipse cx="16" cy="163" rx="40" ry="27"/><ellipse cx="196" cy="150" rx="53" ry="24"/><ellipse fill="#ffb98f" cx="96" cy="97" rx="60" ry="60"/><ellipse rx="1" ry="1" transform="matrix(-25.97316 -7.64432 55.33892 -188.02553 0 66.4)"/><ellipse fill="#0a0407" rx="1" ry="1" transform="matrix(.09985 26.34907 -98.73624 .37415 92 21.4)"/><path fill="#020000" d="M118 75.2l14.8 2.9-2.9 14.7-14.7-2.9z"/><ellipse rx="1" ry="1" transform="rotate(35.9 -12.4 313.4) scale(35.16698 20.35644)"/><ellipse fill="#dae7ee" cx="161" cy="195" rx="28" ry="27"/><path fill="#e48d55" d="M12 99l36 53 8-119z"/><ellipse fill="#ffdeb6" cx="91" cy="129" rx="47" ry="47"/><path fill="#ffad74" d="M171.2 94.4L158.8 138l15.8-15.6 11.9-30.3z"/><path d="M74 75l1 13-13 1-1-13z"/><path fill="#c56947" d="M113 33.2l34 7 15.2 39.7-15.4 87z"/><path fill="#e28b41" d="M137.5 185.5l-50 13.3-31.5-16 95-15z"/></g></svg>