<svg xmlns="http://www.w3.org/2000/svg" viewBox="0 0 208 269"><filter id="b"><feGaussianBlur stdDeviation="12" /></filter><path fill="#3f546c" d="M0 0h207v269H0z"/><g filter="url(#b)" transform="translate(.5 .5) scale(1.05078)" fill-opacity=".5"><ellipse fill="#efbdae" cx="90" cy="90" rx="58" ry="70"/><ellipse rx="1" ry="1" transform="rotate(82.7 -51.3 184.5) scale(76.38081 61.03685)"/><ellipse rx="1" ry="1" transform="matrix(-8.23403 -64.84724 14.03221 -1.78175 38.7 198)"/><ellipse fill="#8bbcff" rx="1" ry="1" transform="matrix(20.23075 -5.30163 16.72393 63.81766 0 184.2)"/><ellipse fill="#cac4d3" rx="1" ry="1" transform="matrix(-8.05145 15.44952 -37.31024 -19.44407 158.5 123)"/><ellipse fill="#0a6cbe" rx="1" ry="1" transform="matrix(-9.83288 68.23549 -23.04932 -3.32146 22 98.9)"/><ellipse fill="#795c50" rx="1" ry="1" transform="matrix(-29.64978 80.15377 -18.59901 -6.87998 96.4 128)"/><ellipse fill="#fbdcde" rx="1" ry="1" transform="matrix(5.31771 23.39028 -30.41317 6.91435 82.5 44)"/><path fill="#000008" d="M212 253L9 271l150-136z"/><ellipse fill="#004f9c" cx="161" cy="26" rx="38" ry="67"/><ellipse fill="#00295e" cx="21" cy="29" rx="34" ry="42"/><ellipse fill="#cec3d6" rx="1" ry="1" transform="rotate(-173.9 27.7 54.4) scale(14.73476 43.99291)"/><path fill="#8c8796" d="M118.8 125.1l-21.4 58-59.7-5 14.4-29.6z"/><path fill="#3a241b" d="M119 110l-70 49 83-104z"/><ellipse fill="#eda899" rx="1" ry="1" transform="matrix(2.1834 22.85403 -25.92398 2.4767 74.5 99.3)"/><ellipse fill="#6480a8" rx="1" ry="1" transform="rotate(146.3 75.4 89.9) scale(33.98005 67.95091)"/><ellipse fill="#004a88" cx="116" cy="8" rx="196" ry="14"/><path fill="#00000c" d="M61 189l-28 82-10-100z"/><ellipse fill="#5b86c4" cx="21" cy="104" rx="24" ry="24"/><ellipse fill="#fbbb91" cx="77" cy="168" rx="7" ry="21"/><ellipse fill="#004475" cx="162" cy="13" rx="44" ry="44"/><path fill="#cee0ff" d="M69 236l7 14-12-3z"/></g></svg>