<svg xmlns="http://www.w3.org/2000/svg" viewBox="0 0 208 269"><filter id="b"><feGaussianBlur stdDeviation="12" /></filter><path fill="#876a60" d="M0 0h207v269H0z"/><g filter="url(#b)" transform="translate(.5 .5) scale(1.05078)" fill-opacity=".5"><ellipse rx="1" ry="1" transform="matrix(30.9163 9.60643 -28.83205 92.78995 38.8 104.7)"/><ellipse fill="#d79d8b" rx="1" ry="1" transform="rotate(65 -82.4 226.7) scale(161.75596 86.74513)"/><ellipse cx="93" cy="34" rx="58" ry="16"/><ellipse fill="#000002" cx="29" cy="124" rx="21" ry="81"/><ellipse fill="#97afcb" rx="1" ry="1" transform="matrix(-6.84197 -35.38078 49.08642 -9.49237 180 220.8)"/><ellipse fill="#cd744c" cx="48" cy="230" rx="68" ry="36"/><ellipse fill="#8eacb8" rx="1" ry="1" transform="rotate(91.7 26.7 26) scale(17.07084 132.82312)"/><ellipse fill="#8c472b" rx="1" ry="1" transform="rotate(9.1 -801.3 463.9) scale(20.62338 82.70497)"/><ellipse fill="#000200" rx="1" ry="1" transform="rotate(54.8 24 184.9) scale(26.97544 6.33064)"/><ellipse fill="#eab49f" rx="1" ry="1" transform="rotate(-169.6 66.6 36.7) scale(37.27916 23.79563)"/><ellipse fill="#7a1804" cx="116" cy="181" rx="22" ry="11"/><ellipse fill="#98a5af" rx="1" ry="1" transform="rotate(107.9 -9.5 19.2) scale(88.47985 21.49596)"/><path fill="#000008" d="M100 12l64 31L39 31z"/><ellipse fill="#788d99" cx="190" cy="82" rx="20" ry="196"/><ellipse fill="#000004" cx="92" cy="109" rx="9" ry="9"/><ellipse fill="#3b2623" rx="1" ry="1" transform="matrix(-14.59801 -5.09851 2.90897 -8.32893 159 128)"/><ellipse fill="#e0a083" rx="1" ry="1" transform="matrix(22.1065 -34.64044 23.50445 14.99984 60.4 255)"/><path fill="#d8ced9" d="M11 182L0 142l-16 44z"/><path fill="#000b13" d="M27 36h38v63H27z"/><ellipse fill="#e9ad92" cx="90" cy="142" rx="18" ry="25"/><ellipse cx="8" cy="132" rx="6" ry="39"/><ellipse fill="#00010a" rx="1" ry="1" transform="matrix(6.46214 -6.59892 24.98793 24.47 31.8 176.7)"/></g></svg>