<svg xmlns="http://www.w3.org/2000/svg" viewBox="0 0 208 269"><filter id="b"><feGaussianBlur stdDeviation="12" /></filter><path fill="#6c595e" d="M0 0h207v269H0z"/><g filter="url(#b)" transform="translate(.5 .5) scale(1.05078)" fill-opacity=".5"><ellipse fill="#fff" rx="1" ry="1" transform="matrix(31.71457 -2.24893 6.76404 95.38712 0 73.3)"/><ellipse fill="#fff" rx="1" ry="1" transform="matrix(28.17817 10.65106 -19.76436 52.28807 196 114.3)"/><ellipse rx="1" ry="1" transform="matrix(61.31482 -69.54801 31.95984 28.17639 91.6 24.5)"/><ellipse cx="33" cy="209" rx="49" ry="49"/><ellipse fill="#fff" cx="191" cy="37" rx="15" ry="135"/><ellipse cx="149" cy="52" rx="32" ry="40"/><ellipse fill="#fff" rx="1" ry="1" transform="matrix(-19.36757 -2.49832 18.08638 -140.2096 11 36.6)"/><ellipse fill="#e4ebff" rx="1" ry="1" transform="matrix(-9.00925 24.84239 -27.18842 -9.86006 159 215.7)"/><ellipse fill="#ed7a7c" rx="1" ry="1" transform="matrix(-.76508 -60.56724 33.68356 -.42549 96 119)"/><path d="M100.5 244.2L119 218l42.6 29.8L143 274z"/><ellipse fill="#fff" cx="10" cy="142" rx="28" ry="22"/><ellipse fill="#fff" rx="1" ry="1" transform="matrix(-12.1257 -9.67982 35.0504 -43.90688 32 0)"/><path fill="#fff" d="M174.8-42l56 45.2-31.6 38.9-56-45.3z"/><path d="M182.7 169.8l29 .5-2.4 132-29-.6z"/><ellipse cx="27" cy="207" rx="71" ry="31"/><ellipse cx="102" cy="34" rx="75" ry="35"/><ellipse fill="#fff" cx="182" cy="143" rx="30" ry="21"/><ellipse cx="163" cy="78" rx="13" ry="38"/><ellipse fill="#e56a63" rx="1" ry="1" transform="rotate(-131.6 85.2 113) scale(25.50079 23.0904)"/><ellipse fill="#9c2824" rx="1" ry="1" transform="matrix(19.5531 -10.2656 28.25256 53.8132 58.5 151.7)"/><ellipse rx="1" ry="1" transform="matrix(5.99598 -8.66825 19.73735 13.65267 175.1 177.8)"/><ellipse fill="#db5a54" cx="137" cy="191" rx="25" ry="25"/></g></svg>