<svg xmlns="http://www.w3.org/2000/svg" viewBox="0 0 208 269"><filter id="b"><feGaussianBlur stdDeviation="12" /></filter><path fill="#976d5f" d="M0 0h207v269H0z"/><g filter="url(#b)" transform="translate(.5 .5) scale(1.05078)" fill-opacity=".5"><ellipse cx="180" cy="53" rx="80" ry="97"/><ellipse fill="#fff" rx="1" ry="1" transform="rotate(55.3 -193.4 140) scale(196 46.38539)"/><ellipse fill="#f6ffff" rx="1" ry="1" transform="rotate(130.9 -6.6 21.4) scale(86.82829 32.10856)"/><ellipse rx="1" ry="1" transform="matrix(-39.12122 8.32157 -21.2318 -99.81457 179.4 61.3)"/><ellipse fill="#d1543e" cx="91" cy="148" rx="63" ry="63"/><ellipse fill="#fffff4" rx="1" ry="1" transform="rotate(-43.2 289.6 60.4) scale(29.76795 64.30155)"/><path fill="#000500" d="M35 69.9l-9-21.2L131 4l9 21.2z"/><path fill="#b1dbdd" d="M162 2L83-16 33 28z"/><ellipse fill="#efeed8" cx="6" cy="167" rx="14" ry="149"/><ellipse fill="#df683e" rx="1" ry="1" transform="matrix(-51.4844 63.18586 -42.86899 -34.93004 171 233.5)"/><ellipse fill="#8f3e32" cx="81" cy="78" rx="39" ry="39"/><ellipse fill="#f4e1d5" rx="1" ry="1" transform="matrix(12.59228 -28.55053 18.30641 8.07409 82.7 243.3)"/><ellipse fill="#e39a81" rx="1" ry="1" transform="matrix(15.22498 7.2429 -16.57886 34.84973 76 146.9)"/><ellipse fill="#091710" rx="1" ry="1" transform="matrix(3.51942 9.66953 -42.21565 15.36524 90.7 26.8)"/><ellipse fill="#914338" rx="1" ry="1" transform="matrix(-11.58435 14.5016 -39.99255 -31.94736 166.7 156.5)"/><ellipse fill="#d0d1c5" rx="1" ry="1" transform="matrix(3.16972 3.64259 -60.33743 52.50464 21.5 55.9)"/><path fill="#a34b3a" d="M126 46L25 58l-1 110z"/><path fill="#262625" d="M85 77h42v22H85z"/><ellipse fill="#e6ae7d" rx="1" ry="1" transform="matrix(13.73529 10.43033 -17.3358 22.82881 188 237.6)"/><ellipse fill="#000608" rx="1" ry="1" transform="matrix(-53.4283 -25.82825 13.00679 -26.90584 174.2 48.9)"/><ellipse fill="#893832" cx="95" cy="202" rx="29" ry="14"/><ellipse fill="#728871" cx="150" rx="29" ry="11"/></g></svg>