<svg xmlns="http://www.w3.org/2000/svg" viewBox="0 0 208 269"><filter id="b"><feGaussianBlur stdDeviation="12" /></filter><path fill="#836b62" d="M0 0h207v269H0z"/><g filter="url(#b)" transform="translate(.5 .5) scale(1.05078)" fill-opacity=".5"><ellipse fill="#ffb68f" rx="1" ry="1" transform="matrix(46.50645 .07446 -.15598 97.42507 104.4 99.5)"/><ellipse fill="#000012" rx="1" ry="1" transform="matrix(-28.82864 -134.47359 16.18718 -3.47023 32.4 75)"/><ellipse fill="#001421" rx="1" ry="1" transform="matrix(-8.21276 142.4351 -37.14094 -2.14153 195.4 48.3)"/><ellipse fill="#0e6ba9" cx="4" cy="134" rx="28" ry="82"/><ellipse fill="#dd9c7a" rx="1" ry="1" transform="matrix(-4.09622 -28.80482 194.04775 -27.59479 120.3 239.5)"/><path fill="#b1735f" d="M45 80h145v47H45z"/><ellipse fill="#f0c6a9" cx="90" cy="50" rx="39" ry="39"/><ellipse rx="1" ry="1" transform="matrix(-36.4296 -39.30042 7.51395 -6.96508 71.4 193.7)"/><ellipse fill="#153a50" rx="1" ry="1" transform="matrix(4.05853 21.02846 -163.59197 31.57351 47.4 0)"/><path fill="#021013" d="M212 49l-65-65 23 93z"/><ellipse rx="1" ry="1" transform="rotate(-6.8 984.7 -251.7) scale(7.24222 40.62648)"/><ellipse fill="#bb7e67" cx="102" cy="132" rx="51" ry="51"/><ellipse fill="#eabba3" cx="106" cy="129" rx="27" ry="27"/><path fill="#804f33" d="M136 185l-2 51-79-11z"/><ellipse fill="#5ca0d4" cx="2" cy="18" rx="8" ry="86"/><ellipse fill="#000907" rx="1" ry="1" transform="matrix(7.82683 1.04621 -6.37398 47.68448 35.8 44.5)"/><ellipse fill="#10679b" cx="33" cy="181" rx="11" ry="23"/><ellipse fill="#1a2e3c" rx="1" ry="1" transform="matrix(-24.23844 31.0238 -17.41443 -13.60564 182.9 151.4)"/><ellipse fill="#423a37" cx="60" cy="95" rx="21" ry="12"/><path fill="#5b0000" d="M76 161h37v7H76z"/><ellipse fill="#dbb6a7" rx="1" ry="1" transform="matrix(3.4871 -16.2736 44.75333 9.5897 176 255)"/><path fill="#caad9f" d="M171 93l4 45 16-34z"/></g></svg>