<svg xmlns="http://www.w3.org/2000/svg" viewBox="0 0 453 743"><filter id="b"><feGaussianBlur stdDeviation="12" /></filter><path fill="#c2bbb4" d="M0 0h452v743H0z"/><g filter="url(#b)" transform="translate(1.5 1.5) scale(2.90234)" fill-opacity=".5"><ellipse rx="1" ry="1" transform="matrix(-13.9972 -10.57175 17.7216 -23.46376 62.7 108.1)"/><ellipse fill="#fff" cx="46" cy="2" rx="61" ry="61"/><ellipse fill="#fff" rx="1" ry="1" transform="rotate(157.5 40 131.9) scale(155 38.58589)"/><ellipse fill="#9a6d46" cx="128" cy="58" rx="40" ry="40"/><path d="M-17.5 55.1L23.4 58l-1.9 26.9-40.9-2.9z"/><path fill="#674d43" d="M85 210l-49-17-52 46z"/><ellipse fill="#fff" rx="1" ry="1" transform="matrix(.59242 -14.13473 33.0456 1.38502 114.8 155.1)"/><path fill="#000012" d="M51 101h27v30H51z"/><path fill="#000025" d="M65 82h89v7H65z"/><ellipse fill="#f6f7ef" cx="50" cy="157" rx="19" ry="31"/><ellipse fill="#495e5b" rx="1" ry="1" transform="matrix(-16.2126 73.95893 -5.53762 -1.2139 7.4 128.8)"/><path fill="#010000" d="M146 56h10v28h-10z"/><path fill="#ddb59c" d="M76 90h80v50H76z"/><path fill="#5c6163" d="M29 216l-45-25 19 80z"/><ellipse fill="#effcff" rx="1" ry="1" transform="matrix(58.75698 23.17014 -13.59817 34.4835 43.4 11.2)"/><ellipse fill="#d59e78" rx="1" ry="1" transform="matrix(-48.16397 12.42513 -5.56038 -21.5539 87.8 190.9)"/><path fill="#101b24" d="M-15.9 142.9l4.6-3.5 37.8.2-11.6 10z"/><ellipse fill="#e9c09c" rx="1" ry="1" transform="matrix(-4.70665 -26.79443 20.33356 -3.57175 128.7 55.5)"/><ellipse fill="#e8eae3" rx="1" ry="1" transform="matrix(-10.51824 41.5478 -12.17638 -3.08257 19 175)"/><ellipse fill="#f3fcff" rx="1" ry="1" transform="matrix(54.88883 -30.02914 16.71446 30.55156 127.4 235.8)"/><path fill="#e1e8ed" d="M34.6 210l15.2 9.1 110-7.7-142.5 37.1z"/><path fill="#12284a" d="M32 129.6l4.6 3 39.5-26L67.5 76z"/></g></svg>