<svg xmlns="http://www.w3.org/2000/svg" viewBox="0 0 421 278"><filter id="b"><feGaussianBlur stdDeviation="12" /></filter><path fill="#79b8bf" d="M0 0h421v277H0z"/><g filter="url(#b)" transform="translate(.8 .8) scale(1.64453)" fill-opacity=".5"><ellipse fill="#003e4e" cx="149" cy="161" rx="36" ry="36"/><ellipse fill="#f5fbf7" cx="84" cy="101" rx="34" ry="34"/><ellipse fill="#fff" rx="1" ry="1" transform="matrix(-1.88597 -15.54795 118.3818 -14.35974 226.3 38)"/><ellipse fill="#fff" cx="204" cy="106" rx="85" ry="14"/><ellipse fill="#006474" cx="159" cy="5" rx="46" ry="19"/><ellipse fill="#10bbee" cx="53" cy="41" rx="57" ry="28"/><ellipse fill="#46977b" cx="19" cy="115" rx="48" ry="48"/><ellipse fill="#fff" cx="13" cy="5" rx="70" ry="11"/><ellipse fill="#e4f1f7" cx="91" cy="150" rx="21" ry="86"/><ellipse fill="#438e9b" cx="209" cy="74" rx="97" ry="18"/><ellipse fill="#00616e" rx="1" ry="1" transform="rotate(65.7 -37.5 199.4) scale(16.91932 28.74942)"/><ellipse fill="#518e95" rx="1" ry="1" transform="matrix(-1.77225 12.45248 -89.72168 -12.76929 226.6 135.8)"/><ellipse fill="#00555f" cx="232" cy="56" rx="33" ry="4"/><path fill="#fff" d="M157 70l29 9 15-12zm64.1-4.5l36.8-4 1 9-36.8 4z"/><ellipse fill="#09809b" rx="1" ry="1" transform="rotate(80.6 42 63.2) scale(5.88338 72.25636)"/><path fill="#cbedf2" d="M238.6 185l-17-1.2 3.8-52.8 17 1.2z"/><ellipse fill="#126d7a" cx="234" cy="4" rx="21" ry="10"/><path fill="#248090" d="M113 85h54v12h-54z"/><ellipse fill="#fff" rx="1" ry="1" transform="matrix(-.06758 -4.30167 35.26588 -.554 239 166.2)"/><path fill="#005a69" d="M155.7 74.3l33.5-16.2-71.3 9 40 7.4z"/><ellipse fill="#e6f5fb" rx="1" ry="1" transform="matrix(4.05378 -10.5634 17.95563 6.89061 63.8 81.4)"/></g></svg>