<svg xmlns="http://www.w3.org/2000/svg" viewBox="0 0 421 278"><filter id="b"><feGaussianBlur stdDeviation="12" /></filter><path fill="#95adbf" d="M0 0h421v277H0z"/><g filter="url(#b)" transform="translate(.8 .8) scale(1.64453)" fill-opacity=".5"><ellipse fill="#395f61" rx="1" ry="1" transform="matrix(-149.36514 4.69399 -.80984 -25.76962 146.5 161.7)"/><ellipse fill="#fff" rx="1" ry="1" transform="rotate(173.8 60 33.6) scale(66.22407 20.6903)"/><ellipse fill="#fcffff" rx="1" ry="1" transform="matrix(3.67151 18.14466 -38.6717 7.8251 30.5 77.3)"/><path fill="#2f4144" d="M198.7 64L143.8 7l11.5-11 54.9 56.8z"/><ellipse fill="#e3f9ff" rx="1" ry="1" transform="matrix(15.81147 13.54192 -22.39763 26.15135 234 40)"/><ellipse fill="#000e11" rx="1" ry="1" transform="matrix(-19.10266 -6.74611 4.25056 -12.03612 160.7 167)"/><path fill="#ff445e" d="M54 86h28v19H54z"/><ellipse fill="#718a8a" cx="55" cy="19" rx="34" ry="34"/><ellipse fill="#8db3e0" cx="103" cy="123" rx="38" ry="38"/><ellipse fill="#b5cdeb" cx="193" cy="95" rx="35" ry="35"/><path fill="#6b878e" d="M140.5 15.5l67.6-30 9.4 21-67.6 30z"/><ellipse fill="#1d0700" rx="1" ry="1" transform="rotate(54.5 -48.3 279.9) scale(12.3199 5.95201)"/><ellipse fill="#fff" rx="1" ry="1" transform="matrix(7.1532 -6.5836 9.7406 10.58335 89 0)"/><ellipse fill="#fff" cy="25" rx="16" ry="9"/><path fill="#242f30" d="M73-6.6l1.3 5.8L-27 22.6l-1.3-5.8z"/><path fill="#050000" d="M55 138h9v13h-9z"/><ellipse fill="#f9ffff" rx="1" ry="1" transform="matrix(62.98147 -7.75618 .91994 7.47007 126.2 58.9)"/><path fill="#1f2a30" d="M208 55l-42-34 32 45z"/><path fill="#f55570" d="M55 72h12v49H55z"/><ellipse fill="#9fc6d8" rx="1" ry="1" transform="rotate(-22.3 379 -6.6) scale(25.44318 20.75716)"/><path fill="#194ac3" d="M235.8 78.6l-5.7-11.7 44-21.5 5.8 11.7z"/><path fill="#d8f0ff" d="M24.4 143.8l8.3-78.6 8.9 1-8.3 78.6z"/></g></svg>