<svg xmlns="http://www.w3.org/2000/svg" viewBox="0 0 1070 415"><filter id="b"><feGaussianBlur stdDeviation="12" /></filter><path fill="#94979b" d="M0 0h1070v413H0z"/><g filter="url(#b)" transform="translate(2 2) scale(4.17969)" fill-opacity=".5"><ellipse rx="1" ry="1" transform="matrix(-16.69018 -41.36389 52.1455 -21.04052 64.7 15.2)"/><ellipse fill="#fff" cx="206" cy="11" rx="88" ry="31"/><ellipse cx="63" cy="3" rx="53" ry="53"/><ellipse fill="#fff" rx="1" ry="1" transform="matrix(12.2728 -27.45381 87.04665 38.91283 42 98)"/><ellipse fill="#fff" rx="1" ry="1" transform="rotate(21.4 -124 659) scale(36.96997 28.78249)"/><path fill="#000307" d="M276 65.1l-68.5-8.4L210 37l68.5 8.4z"/><path d="M123.8 72.7l3-11.7 49.4 12.3-3 11.7z"/><ellipse cx="62" cy="9" rx="45" ry="45"/><ellipse fill="#fff" rx="1" ry="1" transform="matrix(-8.45571 16.54613 -41.95637 -21.44132 233.5 18)"/><path fill="#00070e" d="M101.8 79.8l41.8 13.6-7.4 22.8-41.8-13.6z"/><path fill="#f6fff7" d="M130 62l-85 52 61-72z"/><ellipse fill="#caf0f0" rx="1" ry="1" transform="rotate(-92.1 115.2 -58) scale(17.36663 27.97157)"/><ellipse fill="#fbffff" rx="1" ry="1" transform="matrix(-1.43953 7.13927 -61.88042 -12.47728 192 97.9)"/><ellipse fill="#f7ffff" rx="1" ry="1" transform="matrix(-5.77428 22.77275 -58.79292 -14.9076 23 85.5)"/><ellipse fill="#f0fffe" rx="1" ry="1" transform="matrix(-31.85754 -3.29216 .6188 -5.98794 143.6 30.8)"/><path fill="#e5f7ff" d="M245 114l19-46-92-20z"/><path fill="#f0ffde" d="M-4 6l21 35L5 82z"/><ellipse fill="#9e5c2b" rx="1" ry="1" transform="rotate(107.4 5.3 50.7) scale(10.0754 28.46971)"/><path fill="#6e2c79" d="M179.7 11.2l21.5 5-3 12.6-21.4-5z"/><path fill="#000006" d="M16-16l3 72 99-35z"/><ellipse fill="#fcffff" cx="158" rx="24" ry="24"/><path fill="#301f00" d="M129 81l68-4-60-13z"/></g></svg>