<svg xmlns="http://www.w3.org/2000/svg" viewBox="0 0 425 412"><filter id="b"><feGaussianBlur stdDeviation="12" /></filter><path fill="#b9bbb5" d="M0 0h425v411H0z"/><g filter="url(#b)" transform="translate(.8 .8) scale(1.66016)" fill-opacity=".5"><ellipse rx="1" ry="1" transform="matrix(-4.09283 37.78951 -16.68617 -1.80721 215.4 183.7)"/><ellipse fill="#fffffc" rx="1" ry="1" transform="matrix(-47.89353 13.91058 -37.80439 -130.15889 253.1 58.8)"/><path d="M78 51l77-3-11 19z"/><ellipse fill="#816310" rx="1" ry="1" transform="rotate(-81.9 166 -28.5) scale(58.3234 10.80073)"/><path fill="#3a3f41" d="M51 86h86v19H51z"/><path d="M196.6 110.3L86.4 94.6l86.5 2.9 11.5 13.7z"/><ellipse fill="#fbfaf8" rx="1" ry="1" transform="rotate(-78.5 181.8 86) scale(28.6621 214.89355)"/><ellipse fill="#fcfaf3" rx="1" ry="1" transform="matrix(-3.19724 21.72758 -120.17872 -17.68444 88.7 0)"/><path fill="#181b16" d="M203 116h10v84h-10z"/><path fill="#4b5562" d="M197.3 96l-13-45.2 16.4-4.7 13 45.1z"/><ellipse fill="#2d2e1c" rx="1" ry="1" transform="matrix(75.07092 10.50404 -.3648 2.60711 122.5 126.4)"/><ellipse fill="#e6e8e3" cx="119" cy="161" rx="34" ry="34"/><ellipse fill="#333836" rx="1" ry="1" transform="matrix(2.7775 -6.54394 26.05529 11.05887 90.6 49.5)"/><path fill="#4071e0" d="M86 133l-4.8 24.5L38 149l4.8-24.6z"/><ellipse fill="#d3d9d0" rx="1" ry="1" transform="matrix(-16.99094 71.3205 -19.30159 -4.59829 242.8 204.9)"/><ellipse fill="#050703" rx="1" ry="1" transform="matrix(-2.35241 -28.88678 7.35156 -.59868 217 181)"/><path fill="#04060a" d="M92.2 93L55.7 78.3 80.3 108l-35.2-6z"/><path fill="#d2dcd2" d="M186 134h56v18h-56z"/><ellipse fill="#969d9f" cx="138" cy="87" rx="55" ry="10"/><ellipse fill="#f5f5f0" cx="163" cy="69" rx="28" ry="11"/><path fill="#002d00" d="M255.8 217.5l3 .3-4.6 42.7-3-.3z"/><path fill="#dee2de" d="M156.6 120.2l17.2-10-48.5 67.5 45.5-40.4z"/></g></svg>