<svg xmlns="http://www.w3.org/2000/svg" viewBox="0 0 425 412"><filter id="b"><feGaussianBlur stdDeviation="12" /></filter><path fill="#869db8" d="M0 0h425v411H0z"/><g filter="url(#b)" transform="translate(.8 .8) scale(1.66016)" fill-opacity=".5"><path fill="#000e51" d="M8.5 199.5v-143h205v143z"/><ellipse fill="#fff" rx="1" ry="1" transform="rotate(89.7 -53.4 188) scale(40.93642 238.89276)"/><ellipse fill="#fff" cx="130" cy="18" rx="255" ry="28"/><ellipse fill="#003e8e" rx="1" ry="1" transform="rotate(-2.6 3064.1 -4930.5) scale(22.64815 72.65753)"/><ellipse fill="#fff" rx="1" ry="1" transform="rotate(-91 185.8 40.3) scale(26.26694 177.04447)"/><ellipse fill="#fff" cx="111" cy="19" rx="255" ry="27"/><path fill="#0a4069" d="M32 47l169-1L9 194z"/><ellipse fill="#fff" cx="4" cy="114" rx="6" ry="245"/><path fill="#1e1800" d="M84.3 92.8l97-1.6.4 26-97 1.6z"/><path fill="#fff" d="M249 0h7v248h-7z"/><ellipse fill="#fff" cx="82" cy="219" rx="255" ry="20"/><ellipse fill="#98c9dc" cx="131" cy="159" rx="78" ry="7"/><ellipse fill="#fff" rx="1" ry="1" transform="rotate(-116.5 127 -66.6) scale(32.36438 30.99549)"/><ellipse fill="#fff" cx="138" cy="16" rx="255" ry="30"/><path fill="#401400" d="M71 51h120v6H71z"/><path fill="#ffffe6" d="M21.8 58.2l8.8-5.9 28.7-.5 11.8 6z"/><path fill="#135c9b" d="M167 58h81v91h-81z"/><path fill="#6090b1" d="M55 132h52v34H55z"/><path fill="#fff" d="M9 221L7 56l-23 80z"/><ellipse fill="#fff" rx="1" ry="1" transform="matrix(-64.40001 -28.89494 10.5347 -23.47938 36.7 231.9)"/><ellipse fill="#fff" cx="199" cy="232" rx="255" ry="32"/><path d="M241 48l-19-1 25 9z"/></g></svg>