<svg xmlns="http://www.w3.org/2000/svg" viewBox="0 0 425 412"><filter id="b"><feGaussianBlur stdDeviation="12" /></filter><path fill="#c5c6be" d="M0 0h425v411H0z"/><g filter="url(#b)" transform="translate(.8 .8) scale(1.66016)" fill-opacity=".5"><ellipse fill="#4b3000" cx="201" cy="162" rx="13" ry="39"/><ellipse fill="#737463" rx="1" ry="1" transform="matrix(-6.25384 21.9759 -62.38452 -17.7532 163.3 82.8)"/><ellipse fill="#fffffd" rx="1" ry="1" transform="rotate(88.9 -74.2 88.6) scale(155.84891 25.44555)"/><path fill="#425c91" d="M68.9 169.5l-14-2.3 30.5-66.8 29 68z"/><path fill="#3f4136" d="M143-5l-95-6 112 38z"/><ellipse fill="#e9eae1" rx="1" ry="1" transform="matrix(39.0403 17.95994 -27.46045 59.69195 138.8 210.4)"/><ellipse fill="#404f55" cx="57" cy="77" rx="6" ry="32"/><ellipse fill="#e5e8d8" cx="105" cy="34" rx="38" ry="31"/><path d="M166.5 122l31.7 4-.7 6-31.7-4z"/><path fill="#242928" d="M195 142h38v13h-38z"/><path fill="#050700" d="M81 114h33v6H81z"/><path fill="#f1f0ec" d="M276.5 68.2l-75.8-13.4 10.8-61 75.8 13.4z"/><path fill="#232425" d="M125.8 81l45.5 4.2-16.6 10.1-39.7-8.7z"/><path fill="#1e3753" d="M229.6 123l3-48.7 12.5 15.1-17 22z"/><path d="M69 125h30v4H69z"/><path fill="#090d09" d="M79 4.4L88-16l12 22.9-10.1 2.8z"/><path fill="#e0dbc1" d="M40 130h63v16H40z"/><path fill="#252418" d="M94.3 139.2l-31.5.8 1.6 3.2.2-9z"/><ellipse fill="#515143" cx="150" cy="146" rx="22" ry="3"/><path d="M68-10l72 16 14-22zm127.4 147.7l16.8 2.7-1.6 9.9-16.8-2.7zm31.9 9.8l5.8 1.6-4.4 15.4-5.8-1.6z"/></g></svg>