<svg xmlns="http://www.w3.org/2000/svg" viewBox="0 0 425 411"><filter id="b"><feGaussianBlur stdDeviation="12" /></filter><path fill="#688085" d="M0 0h425v410H0z"/><g filter="url(#b)" transform="translate(.8 .8) scale(1.66016)" fill-opacity=".5"><ellipse fill="#c6eaff" rx="1" ry="1" transform="rotate(-65 255.2 -99.4) scale(18.47882 36.24352)"/><ellipse fill="#a6c7ff" rx="1" ry="1" transform="matrix(25.26408 -37.59912 17.87568 12.01125 218.6 103.5)"/><path fill="#344442" d="M150 39h43v166h-43z"/><ellipse fill="#1d3032" cx="249" cy="131" rx="28" ry="28"/><path fill="#000400" d="M0 23h49v14H0z"/><ellipse fill="#d2e4d9" cx="140" cy="61" rx="14" ry="18"/><path fill="#c7eaff" d="M252 75l19 21-63 14z"/><ellipse fill="#a9b5a6" rx="1" ry="1" transform="matrix(-1.34134 8.86916 -107.29963 -16.22754 51 234.4)"/><ellipse fill="#435555" rx="1" ry="1" transform="matrix(-9.16705 -38.6106 31.5189 -7.48332 183.3 50.5)"/><ellipse fill="#b4b8a5" rx="1" ry="1" transform="matrix(.45746 -7.777 130.20614 7.65904 158 .4)"/><path fill="#496062" d="M144 216.8l6.1-38.5 93.9 14.9-6.1 38.5z"/><ellipse fill="#2d4546" cx="61" cy="164" rx="3" ry="170"/><path fill="#9fbef2" d="M224.7 77.7l-31.4 71 77.7 62-49-71.8z"/><path fill="#7c9494" d="M5 39h52v181H5z"/><path fill="#522f00" d="M-12.4 236.6l68 12-1.2 6.8-68-12z"/><ellipse fill="#576f73" cx="179" cy="29" rx="94" ry="20"/><path fill="#476200" d="M242 64h14v10h-14z"/><path fill="#26302c" d="M183.8 47.3l-1.7 33-28-1.6 1.8-33z"/><path fill="#b9dfff" d="M271 182l-53-30 53 9z"/><path fill="#384a51" d="M226 140.5l8-1-13.7 8.8-49.4 20.5z"/><path fill="#445045" d="M-8 110L7 62l-2 91z"/><ellipse fill="#61777b" cx="181" cy="169" rx="15" ry="49"/></g></svg>