<svg xmlns="http://www.w3.org/2000/svg" viewBox="0 0 425 412"><filter id="b"><feGaussianBlur stdDeviation="12" /></filter><path fill="#c7c9c2" d="M0 0h425v411H0z"/><g filter="url(#b)" transform="translate(.8 .8) scale(1.66016)" fill-opacity=".5"><ellipse fill="#443d1f" rx="1" ry="1" transform="matrix(119.84439 -2.30113 .45079 23.4772 129.7 159.7)"/><ellipse fill="#fff" rx="1" ry="1" transform="matrix(3.66731 -52.44498 243.74539 17.04434 81.5 14)"/><ellipse fill="#0d5990" cx="43" cy="93" rx="33" ry="27"/><ellipse fill="#60490b" cx="109" cy="175" rx="43" ry="32"/><ellipse fill="#f6f0e6" cx="191" cy="208" rx="47" ry="47"/><path fill="#534918" d="M-6 170l-10 67 49-42z"/><path fill="#fffff8" d="M64 168l31 95-84-97z"/><path d="M148.3 80.3l-13-11.3 12.6 2L4 76z"/><ellipse fill="#fff" cx="59" rx="71" ry="71"/><ellipse fill="#fff" rx="1" ry="1" transform="matrix(-7.06892 52.82524 -225.9174 -30.2316 165.4 8)"/><ellipse fill="#57594e" rx="1" ry="1" transform="matrix(.48561 -10.82273 77.85592 3.49335 78.2 148.2)"/><path fill="#3e735e" d="M218.4 116.8l18-.6 1.2 33-18 .6z"/><path fill="#9c8657" d="M68 207l83-43 9 37z"/><ellipse fill="#dee4f2" cx="117" cy="112" rx="43" ry="30"/><ellipse fill="#ebe7e0" rx="1" ry="1" transform="rotate(86 -45.3 217) scale(46.66761 231.20853)"/><path fill="#380000" d="M228 70h10v14h-10z"/><path fill="#e1e2d8" d="M271 168.3L207.1 263l-59.3-89.6-1.5-7.8z"/><ellipse fill="#c1cd21" cx="26" cy="120" rx="18" ry="6"/><ellipse fill="#8790a0" cx="187" cy="75" rx="45" ry="9"/><ellipse fill="#fcfcf0" cx="167" cy="134" rx="208" ry="3"/><path fill="#0078e7" d="M20 103h53v10H20z"/><path fill="#b4e0fc" d="M28 80.7l37.8 24.1-29.5-.2-6 7.1z"/></g></svg>