<svg xmlns="http://www.w3.org/2000/svg" viewBox="0 0 425 412"><filter id="b"><feGaussianBlur stdDeviation="12" /></filter><path fill="#d6d5d2" d="M0 0h425v411H0z"/><g filter="url(#b)" transform="translate(.8 .8) scale(1.66016)" fill-opacity=".5"><ellipse fill="#7d7f7c" cx="167" cy="14" rx="30" ry="26"/><path fill="#080909" d="M177.8 226.6l14.1.7-74.2-6.9 45.3 18z"/><path fill="#5d5f5b" d="M65 110h126v15H65z"/><path d="M69 212h39v10H69z"/><path fill="#767340" d="M176 173h28v43h-28z"/><ellipse fill="#fffbf0" rx="1" ry="1" transform="rotate(147.7 32.1 107.5) scale(41.58836 32.28217)"/><ellipse fill="#fff" rx="1" ry="1" transform="rotate(-56.9 239.7 70.6) scale(24.32604 134.98352)"/><ellipse fill="#f1f2f3" rx="1" ry="1" transform="rotate(-177.9 16.2 81) scale(34.47315 135.83614)"/><ellipse fill="#858682" cx="182" cy="59" rx="9" ry="100"/><ellipse fill="#b2b2b0" rx="1" ry="1" transform="matrix(-44.77075 2.2919 -2.11683 -41.35082 103.3 19)"/><path d="M68 113.3l39.6 4.2-1-4.5-39-6.2zm112 2.7l-42 4 35 6z"/><path fill="#eeedea" d="M207.1 126.7L75.2 106.4l96-7.7 6.2 26.7z"/><ellipse fill="#eff1f1" rx="1" ry="1" transform="matrix(-30.4893 2.93925 -15.76294 -163.51122 228 124.1)"/><ellipse fill="#e4e3dd" cx="87" cy="143" rx="85" ry="26"/><ellipse cx="80" cy="218" rx="7" ry="7"/><ellipse fill="#fff" cx="78" cy="247" rx="93" ry="17"/><ellipse cx="191" cy="21" rx="5" ry="5"/><path d="M127 117h23v4h-23z"/><ellipse fill="#d2d1ce" rx="1" ry="1" transform="matrix(34.35848 3.24783 -2.15926 22.84256 149.6 32.6)"/><path fill="#030305" d="M172.8 236l-19 1-.6-11 19-1z"/><path fill="#767774" d="M96.5 214.6l60.5 10.3-11 5.3-62.7-8z"/></g></svg>