<svg xmlns="http://www.w3.org/2000/svg" viewBox="0 0 425 412"><filter id="b"><feGaussianBlur stdDeviation="12" /></filter><path fill="#b6c8c3" d="M0 0h425v411H0z"/><g filter="url(#b)" transform="translate(.8 .8) scale(1.66016)" fill-opacity=".5"><ellipse cx="31" cy="240" rx="62" ry="62"/><ellipse fill="#2f2800" rx="1" ry="1" transform="matrix(57.02465 -.86878 .37203 24.41952 139.7 185)"/><ellipse fill="#fff" cx="159" cy="27" rx="255" ry="40"/><path d="M271.4 148.4l4.2 4.2-169 169-4.2-4.2z"/><ellipse fill="#fff" rx="1" ry="1" transform="rotate(-162.6 19.5 29.5) scale(31.11725 122.83723)"/><ellipse fill="#160200" rx="1" ry="1" transform="rotate(32.7 -223 338.3) scale(30.26545 13.11633)"/><path fill="#253828" d="M10 187.6l18.6-22.2 139.4 117-18.6 22.2z"/><path fill="#fcffff" d="M271 159l-72 3 29-178z"/><ellipse fill="#089343" rx="1" ry="1" transform="matrix(-37.6755 -40.1105 5.67805 -5.33336 208.5 214.5)"/><ellipse fill="#f9ffff" rx="1" ry="1" transform="rotate(-129.3 131 75.4) scale(18.65845 34.72741)"/><ellipse fill="#fff" rx="1" ry="1" transform="matrix(-169.71843 -9.7859 2.58083 -44.75968 127 20.3)"/><ellipse fill="#fff" rx="1" ry="1" transform="rotate(-48.7 248 18.2) scale(7.41164 32.95686)"/><path fill="#9d3e32" d="M20.9 120.3l52.1 8.2-25.3 7.7-13.1 43.3z"/><ellipse fill="#a98525" rx="1" ry="1" transform="matrix(11.84893 24.0802 -19.98747 9.83506 119.7 194.4)"/><ellipse fill="#4c7065" rx="1" ry="1" transform="matrix(46.95915 -22.52231 5.43886 11.34006 223.2 186.3)"/><path fill="#faffff" d="M62.2 132.5l24 41.5-30.4 17.5-24-41.5z"/><path fill="#009684" d="M195 166l-29-10 38-19z"/><ellipse fill="#82bbcb" rx="1" ry="1" transform="rotate(-90.9 117 -18.8) scale(33.89019 82.87194)"/><path fill="#f45563" d="M225 231l-11-14 40-41z"/><ellipse fill="#c4b769" rx="1" ry="1" transform="matrix(26.50172 3.30096 -1.43075 11.48678 100.3 190)"/><ellipse fill="#c3e9f2" rx="1" ry="1" transform="matrix(-25.27946 -12.60387 15.43321 -30.95424 103.2 111.3)"/><ellipse fill="#f3ffff" rx="1" ry="1" transform="rotate(59.4 -52 54.5) scale(51.94751 25.37683)"/></g></svg>