<svg xmlns="http://www.w3.org/2000/svg" viewBox="0 0 425 413"><filter id="b"><feGaussianBlur stdDeviation="12" /></filter><path fill="#908b84" d="M0 0h425v411H0z"/><g filter="url(#b)" transform="translate(.8 .8) scale(1.66016)" fill-opacity=".5"><ellipse cx="208" cy="147" rx="86" ry="49"/><ellipse cx="254" cy="85" rx="44" ry="44"/><ellipse fill="#fffff8" rx="1" ry="1" transform="rotate(-109.4 31.4 4.4) scale(133.88019 49.78)"/><ellipse rx="1" ry="1" transform="matrix(-6.91334 -19.429 111.7246 -39.75453 233 237)"/><ellipse fill="#fff" rx="1" ry="1" transform="matrix(-10.14427 1.84353 -7.33746 -40.37545 120.3 86)"/><path d="M20 134h22v38H20z"/><ellipse fill="#f8f6ea" rx="1" ry="1" transform="rotate(-16.9 644.9 -125.5) scale(66.88114 17.42959)"/><path fill="#fffffc" d="M136 263l-48-20 156-48z"/><path d="M210 58l61-17-52 139z"/><ellipse cx="166" cy="142" rx="52" ry="27"/><ellipse fill="#fef3db" cy="234" rx="79" ry="18"/><ellipse fill="#f89074" rx="1" ry="1" transform="matrix(-40.76873 14.72318 -11.06901 -30.65028 167.2 77.5)"/><ellipse fill="#fff" rx="1" ry="1" transform="matrix(-58.3059 16.31018 -2.23258 -7.98108 155.8 35.5)"/><ellipse fill="#faf6ee" cy="120" rx="17" ry="60"/><path fill="#fff" d="M196 24h13v76h-13z"/><ellipse fill="#efeae1" rx="1" ry="1" transform="rotate(-14.7 57 -442.3) scale(76.05722 18.42019)"/><ellipse fill="#4597bb" rx="1" ry="1" transform="matrix(22.64566 -26.64168 22.46523 19.09564 232.2 21)"/><path fill="#dba88b" d="M240 134h16v73h-16z"/><path fill="#f0eddf" d="M186.1 232.7l-4-15.8-67-69.4-9.3 13.8z"/><ellipse fill="#24241d" cx="186" cy="176" rx="33" ry="33"/><ellipse fill="#00090a" rx="1" ry="1" transform="matrix(-84.52389 24.07726 -1.35025 -4.74008 170.4 8.6)"/><path d="M24.6 184L7.8 166.3l2 26.3 15-3.2z"/></g></svg>