<svg width="467" height="392" fill="none" xmlns="http://www.w3.org/2000/svg"><path d="M359.929 392h-1.102v-72.457h-246.83V392h-1.102v-73.54h249.034V392zM120.861 85.657h61.221V51.911h-61.221v33.746zm62.323 1.084H119.78V50.805h63.404v35.936zm81.931-.693h61.955V51.542h-61.955v34.506zm63.058 1.083h-64.161v-36.65h64.161v36.65z" fill="#fff"/><path d="M280.939 83.057l-.541-.932 15.673-8.583.519.953-15.651 8.562zm-24.299-41.03H123.757v1.084H256.64v-1.084zm169.244 113.92l-2.248-2.233-2.248-2.254 3.113-.78 3.113-.78-.865 3.034-.865 3.013zM83.635 96.018l-1.124 2.947-1.146 2.948-2.032-2.45-2.053-2.427 3.177-.498 3.178-.52zm165.137 217.348h-137.25v-1.083h137.077l112.043-38.364.368 1.019-112.238 38.428z" fill="#fff"/><path d="M321.32 283.218l2.184-2.298 2.183-2.319.951 2.991.973 3.013-3.156-.694-3.135-.693zM63.747 232.977h6.442l-1.621 2.731-1.621 2.709-1.6-2.731-1.6-2.709z" fill="#fff"/><path d="M172.073 274.981a414.076 414.076 0 0 1-106.532-40.465l.584-.911a412.711 412.711 0 0 0 106.185 40.314l-.237 1.062zm165.352-20.547l-.346-1.018a2.728 2.728 0 0 0 1.535-1.409 3.066 3.066 0 0 0 0-2.168 3.094 3.094 0 0 0-1.491-1.69 2.637 2.637 0 0 0-2.162-.174l-.368-1.018a3.77 3.77 0 0 1 2.984.238 4.158 4.158 0 0 1 2.01 2.276c.39.974.39 2.06 0 3.034a3.677 3.677 0 0 1-2.162 1.994" fill="#fff"/><path d="M245.118 306.582l-5.75-21.847 1.081-.26 5.426 20.698 52.422-18.488c17.013-5.83 18.311-12.549 18.332-12.614v-.325h.303l10.484-3.598a16.63 16.63 0 0 1 10.204.173 19.832 19.832 0 0 0 12.43 0c8.452-2.882 11.587-9.32 8.647-17.642-1.6-4.444-6.334-11.336-20.213-7.781l-11.133 1.083.865 2.428-1.297.433c-5.145 1.756-6.485 2.168-5.534 6.914a3.302 3.302 0 0 1-.454 2.256 3.287 3.287 0 0 1-1.816 1.407l-6.766 2.341-.238-.195s-7.35-5.18-26.222 1.3l-31.54 12.29-.411-.976 31.562-12.311c17.813-6.112 25.552-2.167 27.022-1.322l6.226-2.167a2.167 2.167 0 0 0 1.556-2.449c-1.016-5.636 1.124-6.372 6.248-8.106h.259l-.951-2.688 12.43-1.192c10.679-2.753 18.526.325 21.445 8.453 3.242 8.973-.152 15.909-9.253 19.03a21.155 21.155 0 0 1-12.97 0 15.778 15.778 0 0 0-9.577-.195l-10.182 3.316c-.432 1.517-3.156 7.738-18.958 13.156l-53.677 18.878z" fill="#fff"/><path d="M315.462 277.322c-9.987-6.155-6.269-17.166-6.226-17.339l1.038.347a13.597 13.597 0 0 0 .067 9.029 13.56 13.56 0 0 0 5.705 6.988l-.584.975zm25.314-9.84h-.368c-2.529-.13-4.323-1.626-4.323-3.381h1.102c0 1.127 1.449 2.167 3.286 2.167 1.838 0 3.459-.758 3.524-1.864a1.577 1.577 0 0 0-.865-1.474 27.67 27.67 0 0 0-3.199-.78l-1.902-.368 1.815-.672a12.623 12.623 0 0 0 5.643-3.62c.454-.823.281-3.012-.606-7.564-1.037-5.289 1.06-6.871 1.168-6.936l.648.867-.324-.433.324.433s-1.643 1.322-.735 5.874c.973 4.985 1.103 7.152.497 8.258a10.807 10.807 0 0 1-4.626 3.468c.587.119 1.165.278 1.73.476a2.728 2.728 0 0 1 1.534 2.536c0 1.669-1.967 2.883-4.323 2.883" fill="#fff"/><path d="M334.464 269.736a5.672 5.672 0 0 1 1.794-4.703l.756.78a4.597 4.597 0 0 0-1.47 3.706l-1.08.217zM228.84 309.031a29.222 29.222 0 0 1-10.441-1.907 23.723 23.723 0 0 0-8.323-1.625c-10.809 0-89.28 3.186-90.08 3.229h-.562v-15.735h.475l112.974-11.466v1.062l-112.411 11.422v13.655c7.198-.282 79.293-3.186 89.539-3.186 2.959.031 5.888.597 8.647 1.669 4.972 1.69 10.117 3.424 25.941-.585l-5.296-20.786 1.059-.26c5.513 21.674 5.513 21.674 5.297 21.826h-.26a67.81 67.81 0 0 1-16.645 2.601" fill="#fff"/><path d="M113.014 281.137v23.841a2.703 2.703 0 0 0 2.723 2.688h3.632v-19.832a6.833 6.833 0 0 0-1.868-4.605 6.802 6.802 0 0 0-4.487-2.114v.022zm7.458 27.613h-4.735a3.798 3.798 0 0 1-2.681-1.087 3.817 3.817 0 0 1-1.145-2.663v-24.947h.476a7.892 7.892 0 0 1 7.356 4.783c.41.955.628 1.981.642 3.02l.087 20.894zm226.033-64.979l.173.216-.173-.216zm0 0l.173.216s-1.643 1.322-.736 5.874c.973 4.985 1.103 7.152.498 8.258a10.819 10.819 0 0 1-4.626 3.468c.586.119 1.164.278 1.729.477a2.727 2.727 0 0 1 1.535 2.535c0 1.669-1.967 2.883-4.324 2.883h-.346a5.375 5.375 0 0 1-3.588-1.474 4.348 4.348 0 0 0-1.276 3.49l-.54.13c.908.152 1.794.368 2.681.585 2.115.583 4.292.91 6.485.975a17.623 17.623 0 0 0 5.945-1.04c8.452-2.883 11.587-9.32 8.647-17.643a12.744 12.744 0 0 0-4.691-6.321 12.68 12.68 0 0 0-7.502-2.348" fill="#fff"/><path d="M346.764 243.272l-.411.282.152.217-.152-.217.152.217c2.685-.032 5.311.79 7.501 2.348a12.739 12.739 0 0 1 4.691 6.321c3.005 8.323-.13 14.76-8.647 17.643a17.614 17.614 0 0 1-5.945 1.04 26.403 26.403 0 0 1-6.485-.975l-2.659-.585v.542a45.79 45.79 0 0 0 9.187 1.56 18.726 18.726 0 0 0 6.118-1.062c8.172-2.817 12.257-9.125 8.928-18.336a13.194 13.194 0 0 0-4.768-6.543 13.142 13.142 0 0 0-7.684-2.517" fill="#fff"/><path d="M346.353 243.554s-1.945 1.409-.951 6.502c.994 5.093 1.059 7.001.562 7.911-1.167 2.168-5.945 3.901-5.945 3.901 1.116.209 2.22.477 3.308.802a2.174 2.174 0 0 1 1.21 1.994c0 1.366-1.751 2.406-3.783 2.406h-.324c-2.162-.108-3.697-1.235-3.805-2.579v1.062l.389.39-.194.195a5.331 5.331 0 0 0 3.588 1.474h.368c2.335 0 4.215-1.214 4.323-2.883a2.73 2.73 0 0 0-1.534-2.535 12.954 12.954 0 0 0-1.73-.477 10.813 10.813 0 0 0 4.626-3.468c.606-1.105.476-3.273-.497-8.258-.886-4.552.714-5.852.735-5.874l-.173-.216-.151-.217.151.217.173.216-.173-.216-.173-.347z" fill="#fff"/><path d="M336.625 265.423a5.162 5.162 0 0 0-1.621 4.205h.519a4.344 4.344 0 0 1 1.275-3.511l.195-.195-.368-.499zm-104.953 4.183c-1.772 0-3.567 2.059-4.496 4.335-.93 2.276-1.124 5.007.389 5.744l39.798 13.546 34.696-11.921a7.458 7.458 0 0 0 4.15-3.403 5.819 5.819 0 0 0 .433-4.855 6.885 6.885 0 0 0-3.695-3.623 6.857 6.857 0 0 0-5.168-.018l-28.103 9.623h-.151l-37.269-9.298a2.14 2.14 0 0 0-.649 0l.065-.13zm35.626 24.882h-.173l-40.057-13.611c-2.27-1.127-2.162-4.335-.973-7.131 1.189-2.796 3.74-5.7 6.485-4.877l37.053 9.233 27.713-9.515a7.96 7.96 0 0 1 6.014.073 7.986 7.986 0 0 1 4.255 4.262 6.875 6.875 0 0 1-.519 5.722 8.653 8.653 0 0 1-4.734 3.902l-35.064 11.942z" fill="#fff"/><path d="M210.076 279.49v-.564a12.688 12.688 0 0 1 1.708-5.874c1.708-3.077 7.826-3.511 17.986-4.334h.346v1.083h-.346c-9.447.672-15.673 1.127-17.1 3.685a12.488 12.488 0 0 0-1.556 4.747l14.613-1.409.108 1.062-15.759 1.604zm175.21-60.536a2.445 2.445 0 0 1-2.356-1.669l-5.447-16.364 1.037-.325 5.448 16.342c.098.291.289.541.543.713.253.173.556.257.862.241a1.363 1.363 0 0 0 1.297-1.084l5.34-24.73a2.439 2.439 0 0 1 2.442-1.929 2.42 2.42 0 0 1 2.421 1.95l4.562 21.913a1.317 1.317 0 0 0 1.383 1.084 1.343 1.343 0 0 0 1.341-1.106l5.642-30.669a2.398 2.398 0 0 1 2.421-1.994 2.42 2.42 0 0 1 2.443 1.908l7.025 31.817a1.343 1.343 0 0 0 1.362 1.062 1.338 1.338 0 0 0 1.362-1.062l5.016-23.169a2.508 2.508 0 0 1 3.973-1.37c.441.344.754.826.89 1.37l5.124 23.603a1.363 1.363 0 0 0 1.34 1.083 1.365 1.365 0 0 0 1.362-1.062l5.966-24.513a2.47 2.47 0 0 1 2.422-1.864 2.461 2.461 0 0 1 2.421 1.886l5.815 24.838a1.363 1.363 0 0 0 1.362 1.062 1.364 1.364 0 0 0 1.362-1.04l3.934-15.952 1.059.238-3.869 15.952a2.506 2.506 0 0 1-4.843 0l-5.836-24.838a1.346 1.346 0 0 0-1.362-1.041 1.362 1.362 0 0 0-1.362 1.041l-5.967 24.513a2.511 2.511 0 0 1-2.431 1.901 2.504 2.504 0 0 1-2.432-1.901l-5.102-23.581a1.403 1.403 0 0 0-2.746 0l-5.015 23.148a2.428 2.428 0 0 1-2.421 1.929 2.45 2.45 0 0 1-2.443-1.929l-7.026-31.796a1.386 1.386 0 0 0-1.361-1.143 1.38 1.38 0 0 0-1.362 1.143l-5.621 30.647a2.469 2.469 0 0 1-2.443 2.016 2.442 2.442 0 0 1-2.442-1.951l-4.562-21.913a1.324 1.324 0 0 0-.469-.791 1.312 1.312 0 0 0-.871-.292 1.313 1.313 0 0 0-1.362 1.062l-5.361 24.73a2.397 2.397 0 0 1-2.292 1.929l-.173-.043zM16.059 206.448a2.976 2.976 0 0 1-2.551-1.474l-5.318-9.125a1.948 1.948 0 0 0-1.73-.889 1.878 1.878 0 0 0-1.62.954l-3.373 5.332-.93-.564 3.351-5.31a3.024 3.024 0 0 1 5.167 0l5.318 9.147a1.854 1.854 0 0 0 1.621.91 1.877 1.877 0 0 0 1.621-.889l5.578-9.211a2.988 2.988 0 0 1 2.62-1.431 2.976 2.976 0 0 1 2.546 1.561l4.648 8.669a1.901 1.901 0 0 0 3.308 0l4.518-8.366a2.968 2.968 0 0 1 1.092-1.143 2.95 2.95 0 0 1 1.523-.417 2.95 2.95 0 0 1 2.616 1.56l4.453 8.41a1.865 1.865 0 0 0 1.643.975 1.922 1.922 0 0 0 1.665-.932l4.777-8.518a3.01 3.01 0 0 1 2.627-1.549 3.003 3.003 0 0 1 2.626 1.549l4.324 8.236a1.876 1.876 0 0 0 2.616.722c.291-.173.53-.423.691-.722l4.475-8.322a2.978 2.978 0 0 1 2.637-1.539 2.936 2.936 0 0 1 2.616 1.539l2.854 5.678-.973.477-2.854-5.657a1.865 1.865 0 0 0-1.643-.975 1.884 1.884 0 0 0-1.664.975l-4.475 8.323a2.975 2.975 0 0 1-2.616 1.56 2.998 2.998 0 0 1-2.637-1.603l-4.324-8.237a1.8 1.8 0 0 0-1.62-.997 1.882 1.882 0 0 0-1.687.932l-4.756 8.54a2.94 2.94 0 0 1-2.659 1.495 2.987 2.987 0 0 1-2.594-1.56l-4.453-8.41a1.867 1.867 0 0 0-.697-.721 1.87 1.87 0 0 0-.968-.254 1.819 1.819 0 0 0-1.643.975l-4.518 8.367a3.003 3.003 0 0 1-5.253 0l-4.648-8.67a1.818 1.818 0 0 0-1.47-.889 1.928 1.928 0 0 0-1.665.889l-5.577 9.211a2.943 2.943 0 0 1-2.55 1.431m98.619-171.226a1.212 1.212 0 0 0-1.211 1.192v65.781a1.208 1.208 0 0 0 .364.837 1.176 1.176 0 0 0 .847.334h237.793a1.176 1.176 0 0 0 1.112-.716c.062-.144.096-.298.098-.455v-65.78a1.21 1.21 0 0 0-1.21-1.193H114.743zm237.793 69.227H114.743a2.288 2.288 0 0 1-2.313-2.167V36.457a2.267 2.267 0 0 1 2.313-2.167h237.793a2.267 2.267 0 0 1 2.313 2.167v65.781a2.3 2.3 0 0 1-.723 1.549 2.29 2.29 0 0 1-1.59.619" fill="#fff"/><path d="M110.419 31.234a2.157 2.157 0 0 0-1.424.515c-.397.339-.659.81-.737 1.327-.498 4.985-1.708 18.401-1.708 35.134 0 16.732 1.21 31.752 1.751 37.344a2.165 2.165 0 0 0 2.162 1.864h245.121a2.151 2.151 0 0 0 1.437-.532c.398-.347.656-.829.725-1.353.54-6.243 1.772-22.368 1.772-37.323 0-14.955-1.232-29.499-1.751-35.112a2.166 2.166 0 0 0-2.161-1.864H110.419zm245.165 77.246H110.441a3.141 3.141 0 0 1-3.178-2.817c-.519-5.614-1.751-20.504-1.751-37.453 0-16.95 1.211-30.236 1.73-35.242a3.146 3.146 0 0 1 1.067-1.976 3.13 3.13 0 0 1 2.11-.755h245.187a3.129 3.129 0 0 1 2.136.788 3.14 3.14 0 0 1 1.041 2.03c.519 5.635 1.751 20.373 1.751 35.22 0 14.847-1.253 31.167-1.772 37.409a3.193 3.193 0 0 1-1.038 2.046 3.173 3.173 0 0 1-2.14.815" fill="#fff"/><path d="M314.511 86.806l-.887-.628a20.256 20.256 0 0 0 4.129-12.16 21.396 21.396 0 0 0-6.243-15.11 21.286 21.286 0 0 0-15.072-6.26 21.288 21.288 0 0 0-15.072 6.26 21.4 21.4 0 0 0-6.243 15.11 20.17 20.17 0 0 0 3.978 12.095l-.908.628a21.448 21.448 0 0 1-4.172-12.722 22.506 22.506 0 0 1 6.566-15.894 22.387 22.387 0 0 1 15.851-6.583 22.388 22.388 0 0 1 15.852 6.584 22.506 22.506 0 0 1 6.566 15.893 21.209 21.209 0 0 1-4.324 12.787" fill="#fff"/><path d="M296.33 68.145c-1.151.03-2.269.4-3.212 1.063a5.872 5.872 0 0 0-2.091 2.666 5.89 5.89 0 0 0 1.365 6.348 5.854 5.854 0 0 0 6.365 1.207 5.858 5.858 0 0 0 2.605-2.164 5.884 5.884 0 0 0 .978-3.247 5.967 5.967 0 0 0-1.795-4.181 5.935 5.935 0 0 0-4.215-1.692zm0 12.81a6.928 6.928 0 0 1-3.809-1.258 6.973 6.973 0 0 1-.856-10.685 6.922 6.922 0 0 1 7.547-1.418 6.965 6.965 0 0 1 4.23 6.425 7.03 7.03 0 0 1-4.418 6.44 6.988 6.988 0 0 1-2.694.495zm27.908 202.241l-.324-1.041a412.439 412.439 0 0 0 102.208-49.178l.627.867a413.144 413.144 0 0 1-102.511 49.352zm99.938-131.714c-9.684-24.925-24.968-40.769-37.225-53.492l-2.162-2.167.8-.737 2.162 2.167c12.344 12.788 27.692 28.718 37.441 53.839l-1.016.39zm-379.171 6.48l-1.016-.411 1.124-2.731c6.744-16.213 15.024-36.608 34.264-55.833l.778.759c-19.067 19.051-27.368 39.252-34.026 55.486l-1.124 2.73zM341.684 39.296a3.331 3.331 0 0 0-3.013 2.12 3.345 3.345 0 0 0 .776 3.607 3.327 3.327 0 0 0 3.617.686 3.331 3.331 0 0 0 2.035-3.075 3.37 3.37 0 0 0-1.018-2.378 3.371 3.371 0 0 0-2.397-.96zm0 7.738a4.316 4.316 0 0 1-3.853-2.807 4.344 4.344 0 0 1 1.058-4.655 4.322 4.322 0 0 1 4.686-.856 4.325 4.325 0 0 1 1.91 1.596c.467.709.716 1.538.717 2.387a4.472 4.472 0 0 1-1.372 3.096 4.449 4.449 0 0 1-3.146 1.24zm0 42.503a3.332 3.332 0 0 0-3.013 2.12 3.345 3.345 0 0 0 .776 3.607 3.327 3.327 0 0 0 3.617.686 3.331 3.331 0 0 0 2.035-3.075 3.371 3.371 0 0 0-1.018-2.378 3.371 3.371 0 0 0-2.397-.96zm0 7.738a4.317 4.317 0 0 1-3.853-2.807 4.344 4.344 0 0 1 1.058-4.656 4.32 4.32 0 0 1 4.686-.855 4.325 4.325 0 0 1 1.91 1.596c.467.708.716 1.538.717 2.387a4.472 4.472 0 0 1-1.372 3.096 4.449 4.449 0 0 1-3.146 1.239zM188.243 52.561v6.632h6.809v-6.502l-6.809-.13zm6.766 7.76h-6.766a1.121 1.121 0 0 1-1.059-.691 1.145 1.145 0 0 1-.087-.437v-6.502a1.126 1.126 0 0 1 1.146-1.127h6.766a1.125 1.125 0 0 1 1.146 1.127v6.502a1.128 1.128 0 0 1-1.146 1.127zm4.064-7.76v6.632h6.831v-6.502l-6.831-.13zm6.766 7.76h-6.766a1.125 1.125 0 0 1-1.146-1.128v-6.502a1.128 1.128 0 0 1 1.146-1.127h6.766a1.121 1.121 0 0 1 1.058.69c.058.139.088.287.088.437v6.502a1.128 1.128 0 0 1-1.146 1.127zm4.043-7.76v6.632h6.809v-6.502l-6.809-.13zm6.766 7.76h-6.766a1.121 1.121 0 0 1-1.058-.691 1.128 1.128 0 0 1-.088-.437v-6.502a1.128 1.128 0 0 1 1.146-1.127h6.766a1.125 1.125 0 0 1 1.146 1.127v6.502a1.128 1.128 0 0 1-1.146 1.127zm4.064-7.76v6.632h6.81v-6.502l-6.81-.13zm6.766 7.76h-6.766a1.125 1.125 0 0 1-1.146-1.128v-6.502a1.128 1.128 0 0 1 1.146-1.127h6.766a1.121 1.121 0 0 1 1.059.69c.057.139.087.287.087.437v6.502a1.126 1.126 0 0 1-1.146 1.127zm-39.235 1.972v6.632h6.809v-6.502l-6.809-.13zm6.766 7.76h-6.766a1.121 1.121 0 0 1-1.059-.692 1.145 1.145 0 0 1-.087-.436v-6.502a1.127 1.127 0 0 1 1.146-1.127h6.766a1.125 1.125 0 0 1 1.146 1.127v6.502a1.128 1.128 0 0 1-1.146 1.127zm4.064-7.76v6.632h6.831v-6.502l-6.831-.13zm6.766 7.76h-6.766a1.125 1.125 0 0 1-1.146-1.128v-6.502a1.128 1.128 0 0 1 1.146-1.127h6.766a1.121 1.121 0 0 1 1.058.69c.058.139.088.287.088.437v6.502a1.128 1.128 0 0 1-1.146 1.127zm4.043-7.76v6.632h6.809v-6.502l-6.809-.13zm6.766 7.76h-6.766a1.121 1.121 0 0 1-1.058-.692 1.128 1.128 0 0 1-.088-.436v-6.502a1.128 1.128 0 0 1 1.146-1.127h6.766a1.125 1.125 0 0 1 1.146 1.127v6.502a1.128 1.128 0 0 1-1.146 1.127zm4.064-7.76v6.632h6.81v-6.502l-6.81-.13zm6.766 7.76h-6.766a1.125 1.125 0 0 1-1.146-1.128v-6.502a1.128 1.128 0 0 1 1.146-1.127h6.766a1.121 1.121 0 0 1 1.059.69c.057.139.087.287.087.437v6.502a1.127 1.127 0 0 1-1.146 1.127zm-39.235 1.971v6.633h6.809v-6.503l-6.809-.13zm6.766 7.76h-6.766a1.121 1.121 0 0 1-1.059-.69 1.146 1.146 0 0 1-.087-.437v-6.503a1.128 1.128 0 0 1 1.146-1.127h6.766a1.123 1.123 0 0 1 1.146 1.127v6.503a1.128 1.128 0 0 1-1.146 1.127zm4.064-7.76v6.633h6.831v-6.503l-6.831-.13zm6.766 7.76h-6.766a1.125 1.125 0 0 1-1.146-1.127v-6.503a1.128 1.128 0 0 1 1.146-1.127h6.766a1.12 1.12 0 0 1 1.058.691c.058.138.088.287.088.436v6.503a1.128 1.128 0 0 1-1.146 1.127zm4.043-7.76v6.633h6.809v-6.503l-6.809-.13zm6.766 7.76h-6.766a1.121 1.121 0 0 1-1.058-.69 1.128 1.128 0 0 1-.088-.437v-6.503a1.128 1.128 0 0 1 1.146-1.127h6.766a1.123 1.123 0 0 1 1.146 1.127v6.503a1.128 1.128 0 0 1-1.146 1.127zm4.064-7.76v6.633h6.81v-6.503l-6.81-.13zm6.766 7.76h-6.766a1.125 1.125 0 0 1-1.146-1.127v-6.503a1.128 1.128 0 0 1 1.146-1.127h6.766a1.12 1.12 0 0 1 1.059.691c.057.138.087.287.087.436v6.503a1.128 1.128 0 0 1-1.146 1.127zm-39.235 1.972v6.654h6.809v-6.502l-6.809-.152zm6.766 7.76h-6.766a1.12 1.12 0 0 1-1.052-.676 1.117 1.117 0 0 1-.094-.43v-6.502a1.148 1.148 0 0 1 1.146-1.127h6.766a1.15 1.15 0 0 1 1.146 1.127v6.502a1.136 1.136 0 0 1-.345.79 1.122 1.122 0 0 1-.801.316zm4.064-7.76v6.654h6.831v-6.502l-6.831-.152zm6.766 7.76h-6.766a1.124 1.124 0 0 1-1.146-1.106v-6.502a1.147 1.147 0 0 1 1.146-1.127h6.766a1.145 1.145 0 0 1 1.146 1.127v6.502a1.136 1.136 0 0 1-.344.79 1.126 1.126 0 0 1-.802.316zm4.043-7.76v6.654h6.809v-6.502l-6.809-.152zm6.766 7.76h-6.766a1.12 1.12 0 0 1-1.052-.676 1.136 1.136 0 0 1-.094-.43v-6.502a1.145 1.145 0 0 1 1.146-1.127h6.766a1.147 1.147 0 0 1 1.146 1.127v6.502a1.136 1.136 0 0 1-.345.79 1.122 1.122 0 0 1-.801.316zm4.064-7.76v6.654h6.81v-6.502l-6.81-.152zm6.766 7.76h-6.766a1.128 1.128 0 0 1-1.146-1.106v-6.502a1.15 1.15 0 0 1 1.146-1.127h6.766a1.143 1.143 0 0 1 1.146 1.127v6.502a1.117 1.117 0 0 1-.344.79 1.126 1.126 0 0 1-.802.316zm13.49-21.935v6.632h6.809v-6.502l-6.809-.13zm6.766 7.76h-6.766a1.123 1.123 0 0 1-1.146-1.127V67.71a1.128 1.128 0 0 1 1.146-1.127h6.766a1.12 1.12 0 0 1 1.058.69c.058.14.088.287.088.437v6.502a1.128 1.128 0 0 1-1.146 1.128zm3.697-7.76v6.632h6.809v-6.502l-6.809-.13zm6.766 7.76h-6.766a1.123 1.123 0 0 1-1.146-1.127V67.71a1.127 1.127 0 0 1 1.146-1.127h6.766a1.123 1.123 0 0 1 1.146 1.127v6.502a1.128 1.128 0 0 1-1.146 1.128zm-27.26-7.76v6.632h6.81v-6.502l-6.81-.13zm6.831 7.76h-6.766a1.127 1.127 0 0 1-1.146-1.127V67.71a1.128 1.128 0 0 1 1.146-1.127h6.766a1.12 1.12 0 0 1 1.058.69c.058.14.088.287.088.437v6.502a1.128 1.128 0 0 1-1.146 1.128zm3.2-17.99v6.654h6.809v-6.502l-6.809-.152zm6.766 7.781h-6.766a1.12 1.12 0 0 1-1.058-.69 1.127 1.127 0 0 1-.088-.437v-6.502a1.128 1.128 0 0 1 1.146-1.127h6.766a1.12 1.12 0 0 1 1.058.69c.058.139.088.287.088.437v6.502a1.127 1.127 0 0 1-1.146 1.127zm-6.766 12.419v6.654h6.809v-6.61l-6.809-.044zm6.766 7.76h-6.766a1.119 1.119 0 0 1-1.052-.676 1.136 1.136 0 0 1-.094-.43v-6.61a1.128 1.128 0 0 1 1.146-1.127h6.766a1.121 1.121 0 0 1 1.058.69c.058.138.088.287.088.437v6.61a1.136 1.136 0 0 1-.345.791 1.124 1.124 0 0 1-.801.315zm90.578-33.401v6.633h6.831v-6.632h-6.831zm6.766 7.76h-6.766a1.123 1.123 0 0 1-1.146-1.127v-6.632a1.127 1.127 0 0 1 1.146-1.127h6.766a1.127 1.127 0 0 1 1.146 1.127v6.502a1.128 1.128 0 0 1-1.146 1.127M175.812 6.236h-4.284L169.68 15h-1.12l2.086-9.8h6.496L175.07 15h-1.12l1.862-8.764zM178.793 8h.728l-.07 1.204h.056a5.46 5.46 0 0 1 .434-.49c.168-.168.35-.317.546-.448.196-.13.411-.233.644-.308.234-.084.486-.126.756-.126.224 0 .434.037.63.112.196.065.369.182.518.35.15.159.266.373.35.644.094.27.14.602.14.994 0 .821-.112 1.559-.336 2.212-.224.644-.518 1.19-.882 1.638a4.006 4.006 0 0 1-1.232 1.036 2.89 2.89 0 0 1-1.344.35c-.326 0-.616-.033-.868-.098-.242-.056-.406-.117-.49-.182l-.616 2.912h-1.05l2.086-9.8zm2.702.728c-.252 0-.494.065-.728.196a3.1 3.1 0 0 0-.63.49 4.11 4.11 0 0 0-.504.616c-.149.215-.27.415-.364.602l-.686 3.318c.159.121.322.205.49.252a2.032 2.032 0 0 0 1.582-.224 3.03 3.03 0 0 0 .896-.868c.262-.373.467-.821.616-1.344a6.001 6.001 0 0 0 .238-1.75c0-.373-.079-.681-.238-.924-.149-.243-.373-.364-.672-.364zM186.869 8l-.98 4.662a3.241 3.241 0 0 0-.084.7c0 .261.051.48.154.658.102.168.289.252.56.252.224 0 .448-.056.672-.168.233-.112.452-.257.658-.434.214-.177.406-.373.574-.588a4.05 4.05 0 0 0 .434-.63L189.795 8h1.05l-.882 4.158a7.93 7.93 0 0 0-.112.588 32.66 32.66 0 0 0-.112.714c-.028.252-.052.5-.07.742a7.677 7.677 0 0 0-.028.616V15h-.826v-1.33h-.056a4.39 4.39 0 0 1-.49.546 3.408 3.408 0 0 1-.602.476c-.215.14-.448.252-.7.336a2.28 2.28 0 0 1-.798.14 2.23 2.23 0 0 1-.574-.07 1.15 1.15 0 0 1-.448-.238 1.242 1.242 0 0 1-.308-.462 2.097 2.097 0 0 1-.112-.742c0-.327.046-.695.14-1.106l.952-4.55h1.05zm6.324 1.652c.392-.579.803-.994 1.232-1.246a2.954 2.954 0 0 1 1.498-.378c.644 0 1.106.182 1.386.546.28.364.42.873.42 1.526 0 .775-.103 1.475-.308 2.1-.196.625-.462 1.157-.798 1.596-.336.439-.723.78-1.162 1.022-.429.233-.882.35-1.358.35-.411 0-.761-.07-1.05-.21a1.928 1.928 0 0 1-.686-.56 2.502 2.502 0 0 1-.378-.812 4.131 4.131 0 0 1-.112-.98c0-.99.093-1.909.28-2.758.196-.85.457-1.591.784-2.226.336-.644.728-1.157 1.176-1.54.448-.392.933-.63 1.456-.714.392-.056.751-.098 1.078-.126l.882-.098c.261-.028.481-.06.658-.098a1.11 1.11 0 0 0 .434-.196l-.042.98c-.149.112-.401.21-.756.294-.345.075-.868.14-1.568.196a5.052 5.052 0 0 0-.924.168 2.26 2.26 0 0 0-.84.476c-.271.233-.523.565-.756.994-.233.43-.448.994-.644 1.694h.098zm-.196 2.8c0 .243.014.471.042.686.028.215.089.401.182.56.093.159.224.285.392.378.168.084.392.126.672.126s.555-.089.826-.266c.28-.187.527-.448.742-.784.224-.336.406-.742.546-1.218s.21-1.008.21-1.596c0-.177-.019-.345-.056-.504a1.047 1.047 0 0 0-.168-.42.868.868 0 0 0-.35-.308c-.14-.075-.327-.112-.56-.112a1.7 1.7 0 0 0-.91.28 2.709 2.709 0 0 0-.798.742 3.98 3.98 0 0 0-.56 1.106c-.14.41-.21.854-.21 1.33zm5.726.364c0-.737.094-1.41.28-2.016a5.139 5.139 0 0 1 .798-1.582c.336-.439.724-.78 1.162-1.022a2.954 2.954 0 0 1 1.428-.364c.392 0 .724.065.994.196.28.121.504.294.672.518.178.215.304.467.378.756.075.28.112.574.112.882 0 .7-.093 1.353-.28 1.96a5.062 5.062 0 0 1-.756 1.582 3.77 3.77 0 0 1-1.12 1.064 2.716 2.716 0 0 1-1.4.378c-.42 0-.774-.065-1.064-.196a2.15 2.15 0 0 1-.7-.546 2.252 2.252 0 0 1-.392-.756 3.33 3.33 0 0 1-.112-.854zm1.12-.252c0 .55.103.975.308 1.274.206.29.532.434.98.434.308 0 .598-.107.868-.322.28-.224.523-.523.728-.896.215-.373.383-.798.504-1.274.131-.485.196-.99.196-1.512 0-.476-.088-.85-.266-1.12-.168-.28-.494-.42-.98-.42-.308 0-.602.107-.882.322-.28.205-.532.485-.756.84a4.98 4.98 0 0 0-.518 1.232 5.615 5.615 0 0 0-.182 1.442zM207.012 8h.728l-.07 1.204h.056c.131-.168.275-.331.434-.49.168-.168.35-.317.546-.448.196-.13.411-.233.644-.308.233-.084.485-.126.756-.126.224 0 .434.037.63.112.196.065.369.182.518.35.149.159.266.373.35.644.093.27.14.602.14.994 0 .821-.112 1.559-.336 2.212-.224.644-.518 1.19-.882 1.638a4.018 4.018 0 0 1-1.232 1.036 2.89 2.89 0 0 1-1.344.35c-.327 0-.616-.033-.868-.098-.243-.056-.406-.117-.49-.182l-.616 2.912h-1.05l2.086-9.8zm2.702.728a1.47 1.47 0 0 0-.728.196 3.1 3.1 0 0 0-.63.49 3.99 3.99 0 0 0-.504.616 4.925 4.925 0 0 0-.364.602l-.686 3.318c.159.121.322.205.49.252a2.032 2.032 0 0 0 1.582-.224 3.03 3.03 0 0 0 .896-.868c.261-.373.467-.821.616-1.344a6.001 6.001 0 0 0 .238-1.75c0-.373-.079-.681-.238-.924-.149-.243-.373-.364-.672-.364zm13.978-1.442c0 .364-.056.695-.168.994a2.393 2.393 0 0 1-1.204 1.33c-.271.13-.565.22-.882.266v.056c.205.047.401.126.588.238a1.81 1.81 0 0 1 .826.952c.084.205.126.434.126.686 0 .653-.131 1.195-.392 1.624-.252.42-.579.756-.98 1.008-.392.252-.835.43-1.33.532-.485.093-.966.14-1.442.14h-.546c-.205 0-.471-.01-.798-.028-.56-.056-.924-.107-1.092-.154l2.044-9.646a16.838 16.838 0 0 1 2.632-.196c.345 0 .677.047.994.14.317.084.593.215.826.392.243.177.434.406.574.686.149.28.224.607.224.98zm-4.55 6.818c.327 0 .649-.037.966-.112.317-.084.602-.21.854-.378s.453-.387.602-.658c.159-.27.238-.602.238-.994 0-.29-.07-.527-.21-.714a1.462 1.462 0 0 0-.546-.462 2.398 2.398 0 0 0-.77-.224 5.185 5.185 0 0 0-.854-.07h-.98l-.742 3.514c.056.019.14.033.252.042.121.01.247.019.378.028l.42.028h.392zm.238-4.564h.56c.215-.01.397-.023.546-.042a6.08 6.08 0 0 0 .686-.196c.243-.084.462-.2.658-.35a1.76 1.76 0 0 0 .49-.588c.131-.243.196-.541.196-.896 0-.261-.042-.476-.126-.644a.908.908 0 0 0-.35-.42 1.385 1.385 0 0 0-.546-.238 3.372 3.372 0 0 0-.714-.07c-.299 0-.579.01-.84.028a3.67 3.67 0 0 0-.588.056l-.714 3.36h.742zM225.857 8h1.05l-1.484 7h-1.05l1.484-7zm.224-2.142c0-.215.07-.397.21-.546a.745.745 0 0 1 .546-.224c.215 0 .397.075.546.224a.74.74 0 0 1 .224.546.74.74 0 0 1-.77.756.771.771 0 0 1-.546-.21.769.769 0 0 1-.21-.546zm7.879 8.736a3.032 3.032 0 0 1-1.008.448 5.375 5.375 0 0 1-1.232.126c-.55 0-1.04-.098-1.47-.294a3.237 3.237 0 0 1-1.092-.84 3.911 3.911 0 0 1-.686-1.274 5.13 5.13 0 0 1-.238-1.596c0-1.055.154-1.965.462-2.73.308-.775.714-1.414 1.218-1.918a4.88 4.88 0 0 1 1.694-1.12 5.335 5.335 0 0 1 1.918-.364c.532 0 .966.037 1.302.112.336.075.612.163.826.266l-.504 1.022a2.732 2.732 0 0 0-.742-.252 4.291 4.291 0 0 0-1.036-.112c-.522 0-1.026.117-1.512.35-.476.224-.896.55-1.26.98-.364.43-.653.952-.868 1.568-.214.616-.322 1.307-.322 2.072 0 .448.056.863.168 1.246.122.373.29.7.504.98a2.5 2.5 0 0 0 .812.644c.327.15.696.224 1.106.224.439 0 .803-.047 1.092-.14.29-.103.551-.22.784-.35l.084.952zm1.534-3.178c0-.859.117-1.675.35-2.45a6.538 6.538 0 0 1 .994-2.03 4.92 4.92 0 0 1 1.568-1.386 4.107 4.107 0 0 1 2.044-.518c.448 0 .863.07 1.246.21.383.13.709.345.98.644.28.29.495.667.644 1.134.159.467.238 1.036.238 1.708 0 .877-.117 1.708-.35 2.492a6.91 6.91 0 0 1-.98 2.044 4.897 4.897 0 0 1-1.512 1.4 3.751 3.751 0 0 1-1.918.504c-1.101 0-1.927-.317-2.478-.952-.551-.644-.826-1.577-.826-2.8zm1.176-.014c0 .877.182 1.559.546 2.044.364.476.901.714 1.61.714a2.5 2.5 0 0 0 1.428-.434c.439-.29.817-.681 1.134-1.176.317-.495.56-1.069.728-1.722a7.892 7.892 0 0 0 .266-2.072c0-.541-.061-.99-.182-1.344-.121-.355-.285-.63-.49-.826a1.51 1.51 0 0 0-.686-.42 2.532 2.532 0 0 0-2.226.322c-.439.29-.817.681-1.134 1.176a6.411 6.411 0 0 0-.728 1.722 7.573 7.573 0 0 0-.266 2.016zm16.063-2.982l.434-1.47h-.056l-.784 1.344-3.36 4.424h-.336l-1.61-4.424-.21-1.344h-.056l-.112 1.456-1.4 6.594h-1.064l2.086-9.8h.77l1.82 5.012.21 1.092h.014l.644-1.12 3.822-4.984h.994l-2.086 9.8h-1.12l1.4-6.58zm6.14 2.996c0-.859.117-1.675.35-2.45a6.538 6.538 0 0 1 .994-2.03 4.92 4.92 0 0 1 1.568-1.386 4.107 4.107 0 0 1 2.044-.518c.448 0 .863.07 1.246.21.383.13.709.345.98.644.28.29.495.667.644 1.134.159.467.238 1.036.238 1.708 0 .877-.117 1.708-.35 2.492a6.91 6.91 0 0 1-.98 2.044 4.897 4.897 0 0 1-1.512 1.4 3.751 3.751 0 0 1-1.918.504c-1.101 0-1.927-.317-2.478-.952-.551-.644-.826-1.577-.826-2.8zm1.176-.014c0 .877.182 1.559.546 2.044.364.476.901.714 1.61.714a2.5 2.5 0 0 0 1.428-.434c.439-.29.817-.681 1.134-1.176.317-.495.56-1.069.728-1.722a7.892 7.892 0 0 0 .266-2.072c0-.541-.061-.99-.182-1.344-.121-.355-.285-.63-.49-.826a1.51 1.51 0 0 0-.686-.42 2.532 2.532 0 0 0-2.226.322c-.439.29-.817.681-1.134 1.176a6.411 6.411 0 0 0-.728 1.722 7.573 7.573 0 0 0-.266 2.016zM269.014 8h.728l-.07 1.204h.056c.131-.168.275-.331.434-.49.168-.168.35-.317.546-.448.196-.13.411-.233.644-.308.233-.084.485-.126.756-.126.224 0 .434.037.63.112.196.065.369.182.518.35.149.159.266.373.35.644.093.27.14.602.14.994 0 .821-.112 1.559-.336 2.212-.224.644-.518 1.19-.882 1.638a4.018 4.018 0 0 1-1.232 1.036 2.89 2.89 0 0 1-1.344.35c-.327 0-.616-.033-.868-.098-.243-.056-.406-.117-.49-.182l-.616 2.912h-1.05l2.086-9.8zm2.702.728a1.47 1.47 0 0 0-.728.196 3.1 3.1 0 0 0-.63.49 3.99 3.99 0 0 0-.504.616 4.925 4.925 0 0 0-.364.602l-.686 3.318c.159.121.322.205.49.252a2.032 2.032 0 0 0 1.582-.224 3.03 3.03 0 0 0 .896-.868c.261-.373.467-.821.616-1.344a6.001 6.001 0 0 0 .238-1.75c0-.373-.079-.681-.238-.924-.149-.243-.373-.364-.672-.364zM275.101 8h1.036l.294-1.386 1.12-.322L277.187 8h1.834l-.21.896h-1.82l-.882 4.228a7.532 7.532 0 0 1-.056.308 2.662 2.662 0 0 0-.014.252c0 .224.052.378.154.462.103.084.257.126.462.126a2.134 2.134 0 0 0 1.176-.336v.854c-.196.112-.448.2-.756.266a3.743 3.743 0 0 1-.882.112c-.849 0-1.274-.387-1.274-1.162 0-.159.024-.355.07-.588l.952-4.522h-1.05l.21-.896zm5.635 0h1.05l-1.484 7h-1.05l1.484-7zm.224-2.142c0-.215.07-.397.21-.546a.742.742 0 0 1 .546-.224c.215 0 .397.075.546.224.149.15.224.331.224.546a.744.744 0 0 1-.224.546.768.768 0 0 1-.546.21.768.768 0 0 1-.546-.21.769.769 0 0 1-.21-.546zM286.389 15l.84-3.962c.075-.327.131-.616.168-.868.037-.252.056-.471.056-.658 0-.252-.047-.443-.14-.574-.093-.14-.252-.21-.476-.21-.233 0-.462.06-.686.182a2.95 2.95 0 0 0-.63.462 5.292 5.292 0 0 0-.546.574 4.478 4.478 0 0 0-.378.56L283.673 15h-1.05l1.484-7h.742l-.084 1.204h.056c.149-.15.308-.303.476-.462.177-.168.369-.317.574-.448.215-.13.443-.238.686-.322a2.36 2.36 0 0 1 .826-.14c.42 0 .7.13.84.392.149.261.224.625.224 1.092.14-.177.303-.355.49-.532a4.24 4.24 0 0 1 .602-.476c.224-.14.457-.252.7-.336.243-.093.485-.14.728-.14.429 0 .756.103.98.308.233.196.35.565.35 1.106 0 .392-.07.91-.21 1.554l-.882 4.2h-1.05l.882-4.214a9.96 9.96 0 0 0 .126-.728c.037-.215.056-.401.056-.56 0-.252-.051-.443-.154-.574-.103-.13-.275-.196-.518-.196-.196 0-.406.065-.63.196a3.48 3.48 0 0 0-.63.462 4.89 4.89 0 0 0-.56.602 4.1 4.1 0 0 0-.378.602l-.91 4.41h-1.05zm12.204-2.758a7.852 7.852 0 0 0-.154 1.05c-.028.355-.042.686-.042.994v.406c0 .121.009.233.028.336h-.784l-.196-1.218h-.056a3.804 3.804 0 0 1-.952.924 2.63 2.63 0 0 1-.63.308 2.017 2.017 0 0 1-.714.126c-1.111 0-1.666-.723-1.666-2.17 0-.597.075-1.204.224-1.82a5.708 5.708 0 0 1 .714-1.666 4.09 4.09 0 0 1 1.246-1.218c.513-.317 1.129-.476 1.848-.476a5.7 5.7 0 0 1 .952.098c.383.056.737.135 1.064.238l-.882 4.088zm-3.178 2.03c.224 0 .439-.051.644-.154.205-.112.397-.247.574-.406.187-.159.35-.327.49-.504.14-.187.252-.36.336-.518l.784-3.78c-.28-.13-.635-.196-1.064-.196-.429 0-.807.126-1.134.378a3.113 3.113 0 0 0-.826.994 4.975 4.975 0 0 0-.504 1.372 7.205 7.205 0 0 0-.168 1.54c0 .355.07.658.21.91.14.243.359.364.658.364zM101.954 179.85h-.756l-.658 3.15h-1.05l1.484-7h1.05l-.672 3.164.574-.182L104.53 176h1.26l-2.562 2.814-.644.462.56.56 1.568 3.164h-1.176l-1.582-3.15zm8.981.392a7.837 7.837 0 0 0-.154 1.05c-.028.355-.042.686-.042.994v.406c0 .121.009.233.028.336h-.784l-.196-1.218h-.056a3.784 3.784 0 0 1-.952.924 2.63 2.63 0 0 1-.63.308 2.017 2.017 0 0 1-.714.126c-1.111 0-1.666-.723-1.666-2.17 0-.597.074-1.204.224-1.82a5.658 5.658 0 0 1 .714-1.666 4.068 4.068 0 0 1 1.246-1.218c.513-.317 1.129-.476 1.848-.476.261 0 .578.033.952.098.382.056.737.135 1.064.238l-.882 4.088zm-3.178 2.03c.224 0 .438-.051.644-.154.205-.112.396-.247.574-.406.186-.159.35-.327.49-.504.14-.187.252-.359.336-.518l.784-3.78c-.28-.131-.635-.196-1.064-.196-.43 0-.808.126-1.134.378a3.11 3.11 0 0 0-.826.994 4.975 4.975 0 0 0-.504 1.372 7.205 7.205 0 0 0-.168 1.54c0 .355.07.658.21.91.14.243.359.364.658.364zm6.22-6.272h.728l-.07 1.204h.056c.131-.168.275-.331.434-.49.168-.168.35-.317.546-.448.196-.131.411-.233.644-.308.233-.084.485-.126.756-.126.224 0 .434.037.63.112.196.065.369.182.518.35.149.159.266.373.35.644.093.271.14.602.14.994 0 .821-.112 1.559-.336 2.212-.224.644-.518 1.19-.882 1.638a4.022 4.022 0 0 1-1.232 1.036 2.89 2.89 0 0 1-1.344.35c-.327 0-.616-.033-.868-.098-.243-.056-.406-.117-.49-.182l-.616 2.912h-1.05l2.086-9.8zm2.702.728c-.252 0-.495.065-.728.196a3.112 3.112 0 0 0-.63.49 4.006 4.006 0 0 0-.504.616 4.925 4.925 0 0 0-.364.602l-.686 3.318c.159.121.322.205.49.252.168.047.35.07.546.07.364 0 .709-.098 1.036-.294a3.03 3.03 0 0 0 .896-.868c.261-.373.467-.821.616-1.344a6.003 6.003 0 0 0 .238-1.75c0-.373-.079-.681-.238-.924-.149-.243-.373-.364-.672-.364zM123.34 183l.84-3.962c.075-.327.131-.616.168-.868.038-.252.056-.471.056-.658 0-.252-.046-.443-.14-.574-.093-.14-.252-.21-.476-.21a1.43 1.43 0 0 0-.686.182 2.928 2.928 0 0 0-.63.462 5.292 5.292 0 0 0-.546.574 4.685 4.685 0 0 0-.378.56l-.924 4.494h-1.05l1.484-7h.742l-.084 1.204h.056c.15-.149.308-.303.476-.462.178-.168.369-.317.574-.448.215-.131.444-.238.686-.322.252-.093.528-.14.826-.14.42 0 .7.131.84.392.15.261.224.625.224 1.092.14-.177.304-.355.49-.532.187-.177.388-.336.602-.476a3.46 3.46 0 0 1 .7-.336c.243-.093.486-.14.728-.14.43 0 .756.103.98.308.234.196.35.565.35 1.106 0 .392-.07.91-.21 1.554l-.882 4.2h-1.05l.882-4.214c.056-.271.098-.513.126-.728a3.26 3.26 0 0 0 .056-.56c0-.252-.051-.443-.154-.574-.102-.131-.275-.196-.518-.196-.196 0-.406.065-.63.196a3.518 3.518 0 0 0-.63.462 4.89 4.89 0 0 0-.56.602 4.276 4.276 0 0 0-.378.602l-.91 4.41h-1.05zm9.39-7l-.98 4.662a3.24 3.24 0 0 0-.084.7c0 .261.051.481.154.658.103.168.289.252.56.252.224 0 .448-.056.672-.168.233-.112.453-.257.658-.434.215-.177.406-.373.574-.588.177-.215.322-.425.434-.63l.938-4.452h1.05l-.882 4.158a8.556 8.556 0 0 0-.112.588c-.037.224-.075.462-.112.714-.028.252-.051.499-.07.742a7.677 7.677 0 0 0-.028.616V183h-.826v-1.33h-.056c-.14.187-.303.369-.49.546a3.385 3.385 0 0 1-.602.476c-.215.14-.448.252-.7.336-.252.093-.518.14-.798.14-.205 0-.397-.023-.574-.07a1.161 1.161 0 0 1-.448-.238 1.25 1.25 0 0 1-.308-.462 2.096 2.096 0 0 1-.112-.742c0-.327.047-.695.14-1.106l.952-4.55h1.05zm9.39 3.92h-3.024l-.658 3.08h-1.05l1.484-7h1.05l-.616 2.912h3.024l.616-2.912h1.05l-1.484 7h-1.05l.658-3.08zm7.875.322a8.002 8.002 0 0 0-.154 1.05c-.028.355-.042.686-.042.994v.406c0 .121.01.233.028.336h-.784l-.196-1.218h-.056a3.784 3.784 0 0 1-.952.924 2.63 2.63 0 0 1-.63.308 2.017 2.017 0 0 1-.714.126c-1.11 0-1.666-.723-1.666-2.17 0-.597.075-1.204.224-1.82a5.711 5.711 0 0 1 .714-1.666 4.079 4.079 0 0 1 1.246-1.218c.514-.317 1.13-.476 1.848-.476.262 0 .579.033.952.098a6.8 6.8 0 0 1 1.064.238l-.882 4.088zm-3.178 2.03c.224 0 .439-.051.644-.154a3 3 0 0 0 .574-.406c.187-.159.35-.327.49-.504.14-.187.252-.359.336-.518l.784-3.78c-.28-.131-.634-.196-1.064-.196-.429 0-.807.126-1.134.378a3.122 3.122 0 0 0-.826.994 4.975 4.975 0 0 0-.504 1.372 7.205 7.205 0 0 0-.168 1.54c0 .355.07.658.21.91.14.243.36.364.658.364zM99.966 193.01c.233-1.045.635-1.825 1.204-2.338.569-.513 1.274-.77 2.114-.77.355 0 .649.033.882.098.233.065.42.159.56.28.14.112.238.247.294.406.056.159.084.336.084.532 0 .495-.163.924-.49 1.288-.317.364-.742.621-1.274.77l-.028.056c.448.019.789.131 1.022.336.243.205.364.481.364.826 0 .429-.089.807-.266 1.134a2.5 2.5 0 0 1-.686.812 3.184 3.184 0 0 1-.994.49 4.022 4.022 0 0 1-1.162.168c-.271 0-.527-.033-.77-.098a1.623 1.623 0 0 1-.616-.322 1.716 1.716 0 0 1-.406-.63 3.083 3.083 0 0 1-.14-.994c0-.14.005-.271.014-.392.01-.121.023-.257.042-.406l.098-.518c.037-.205.089-.448.154-.728zm.84.882a24.08 24.08 0 0 0-.112.644 4.129 4.129 0 0 0-.028.462c0 .803.373 1.204 1.12 1.204.243 0 .471-.033.686-.098.224-.065.42-.163.588-.294a1.47 1.47 0 0 0 .392-.504c.103-.196.154-.429.154-.7a.694.694 0 0 0-.308-.588c-.196-.149-.532-.224-1.008-.224h-.112c-.037 0-.107.005-.21.014a9.183 9.183 0 0 1-.42.028c-.187.009-.434.028-.742.056zm1.428-.938c.14-.009.313-.047.518-.112.205-.065.401-.154.588-.266.196-.121.359-.266.49-.434a.928.928 0 0 0 .196-.588c0-.252-.065-.439-.196-.56-.131-.131-.383-.196-.756-.196-.532 0-.961.168-1.288.504-.327.336-.569.817-.728 1.442l-.084.336 1.26-.126zm5.993.462L106.729 190h1.19l.826 1.932.252.798.574-.798 1.694-1.932h1.274l-2.968 3.36 1.666 3.64h-1.19l-.952-2.128-.28-.84-.588.84-1.876 2.128h-1.274l3.15-3.584zm4.284 1.4c0-.737.093-1.409.28-2.016a5.142 5.142 0 0 1 .798-1.582 3.747 3.747 0 0 1 1.162-1.022 2.95 2.95 0 0 1 1.428-.364c.392 0 .723.065.994.196.28.121.504.294.672.518.177.215.303.467.378.756.074.28.112.574.112.882 0 .7-.094 1.353-.28 1.96a5.103 5.103 0 0 1-.756 1.582 3.79 3.79 0 0 1-1.12 1.064c-.43.252-.896.378-1.4.378-.42 0-.775-.065-1.064-.196a2.14 2.14 0 0 1-.7-.546 2.234 2.234 0 0 1-.392-.756 3.288 3.288 0 0 1-.112-.854zm1.12-.252c0 .551.102.975.308 1.274.205.289.532.434.98.434.308 0 .597-.107.868-.322.28-.224.522-.523.728-.896.214-.373.382-.798.504-1.274.13-.485.196-.989.196-1.512 0-.476-.089-.849-.266-1.12-.168-.28-.495-.42-.98-.42-.308 0-.602.107-.882.322-.28.205-.532.485-.756.84a4.905 4.905 0 0 0-.518 1.232 5.57 5.57 0 0 0-.182 1.442zm9.422-4.634c.318 0 .565.033.742.098.187.056.346.131.476.224h.07c-.046-.709-.308-1.274-.784-1.694-.466-.42-1.106-.63-1.918-.63l.196-.896c.682 0 1.251.103 1.708.308.458.205.826.485 1.106.84.28.355.476.77.588 1.246.122.476.182.985.182 1.526 0 .98-.098 1.857-.294 2.632-.186.765-.448 1.414-.784 1.946s-.732.938-1.19 1.218c-.448.28-.933.42-1.456.42-.756 0-1.311-.233-1.666-.7-.354-.467-.532-1.111-.532-1.932 0-.588.08-1.157.238-1.708a4.998 4.998 0 0 1 .714-1.47 3.706 3.706 0 0 1 1.12-1.036 2.85 2.85 0 0 1 1.484-.392zm-.084.896c-.298 0-.588.093-.868.28-.28.187-.532.448-.756.784a4.763 4.763 0 0 0-.532 1.218c-.13.467-.196.98-.196 1.54 0 .457.094.845.28 1.162.187.308.49.462.91.462.458 0 .845-.163 1.162-.49.318-.327.574-.733.77-1.218a7.162 7.162 0 0 0 .42-1.596c.094-.579.14-1.115.14-1.61a1.407 1.407 0 0 0-.546-.406c-.196-.084-.457-.126-.784-.126zm7.212 3.29l-1.078.168-2.254 2.716h-1.358l2.044-2.394.686-.518a1.749 1.749 0 0 1-.938-.462c-.252-.252-.378-.602-.378-1.05 0-.429.089-.812.266-1.148.177-.345.415-.635.714-.868a3.207 3.207 0 0 1 1.036-.532 4.031 4.031 0 0 1 1.82-.154c.187.019.364.047.532.084.168.028.317.065.448.112.131.037.238.07.322.098L130.615 197h-1.05l.616-2.884zm.7-3.206c-.047-.047-.149-.089-.308-.126a2.953 2.953 0 0 0-.644-.056c-.56 0-1.017.159-1.372.476-.355.308-.532.723-.532 1.246 0 .681.485 1.022 1.456 1.022h.406c.103-.009.247-.019.434-.028l.56-2.534zm9.461 4.76a3.97 3.97 0 0 1-1.092 1.106c-.41.261-.882.392-1.414.392-.345 0-.611-.126-.798-.378-.177-.261-.266-.611-.266-1.05v-.042c-.14.187-.298.369-.476.546a3.845 3.845 0 0 1-.56.462c-.205.14-.424.252-.658.336a2.132 2.132 0 0 1-.728.126c-.42 0-.742-.098-.966-.294-.214-.196-.322-.565-.322-1.106 0-.401.07-.924.21-1.568l.882-4.2h1.05l-.882 4.214-.126.672a4.085 4.085 0 0 0-.042.546c0 .271.042.481.126.63.094.14.234.21.42.21.224 0 .444-.061.658-.182.224-.121.43-.275.616-.462.196-.187.369-.387.518-.602.15-.224.271-.429.364-.616l.924-4.41h1.05l-.826 3.962a36.59 36.59 0 0 0-.168.84 4.615 4.615 0 0 0-.056.658c0 .261.047.462.14.602.094.14.248.21.462.21.159 0 .336-.056.532-.168.206-.121.406-.271.602-.448.196-.177.378-.369.546-.574.178-.205.313-.401.406-.588l.938-4.494h1.05c-.168.784-.308 1.447-.42 1.988-.112.541-.205.989-.28 1.344-.074.355-.13.63-.168.826-.037.187-.07.331-.098.434a3.272 3.272 0 0 1-.042.196.239.239 0 0 0-.014.07c-.018.112-.042.243-.07.392-.028.14-.042.275-.042.406 0 .299.126.448.378.448h.756l-.714 2.674h-.854l.476-1.778h-.042c-.336 0-.583-.079-.742-.238-.149-.159-.224-.383-.224-.672 0-.121.014-.261.042-.42h-.056zm8.032.644c-.327.28-.714.495-1.162.644-.439.14-.882.21-1.33.21-.747 0-1.312-.215-1.694-.644-.374-.429-.56-1.027-.56-1.792 0-.765.107-1.451.322-2.058.214-.607.494-1.12.84-1.54.354-.42.751-.742 1.19-.966a3.035 3.035 0 0 1 1.372-.336c.336 0 .625.047.868.14.252.093.457.219.616.378.158.149.275.327.35.532.074.196.112.406.112.63 0 .663-.322 1.185-.966 1.568-.644.373-1.582.56-2.814.56h-.35l-.378-.028a5.188 5.188 0 0 0-.084.504 3.58 3.58 0 0 0-.028.42c0 .513.116.933.35 1.26.233.317.597.476 1.092.476.41 0 .784-.065 1.12-.196.345-.14.611-.285.798-.434l.336.672zm-1.19-5.586a1.91 1.91 0 0 0-1.344.532c-.374.345-.658.868-.854 1.568.354 0 .723-.009 1.106-.028a5.57 5.57 0 0 0 1.036-.14c.317-.084.578-.21.784-.378.205-.177.308-.42.308-.728a.756.756 0 0 0-.056-.28.595.595 0 0 0-.154-.266.733.733 0 0 0-.322-.196 1.293 1.293 0 0 0-.504-.084zm5.206-.728l-.98 4.662a3.24 3.24 0 0 0-.084.7c0 .261.052.481.154.658.103.168.29.252.56.252.224 0 .448-.056.672-.168.234-.112.453-.257.658-.434.215-.177.406-.373.574-.588.178-.215.322-.425.434-.63l.938-4.452h1.05l-.882 4.158a9.21 9.21 0 0 0-.112.588c-.037.224-.074.462-.112.714-.028.252-.051.499-.07.742a8.174 8.174 0 0 0-.028.616V197h-.826v-1.33h-.056c-.14.187-.303.369-.49.546a3.385 3.385 0 0 1-.602.476c-.214.14-.448.252-.7.336-.252.093-.518.14-.798.14a2.24 2.24 0 0 1-.574-.07 1.161 1.161 0 0 1-.448-.238 1.262 1.262 0 0 1-.308-.462 2.12 2.12 0 0 1-.112-.742c0-.327.047-.695.14-1.106l.952-4.55h1.05zm.798-2.828c0 .439.089.742.266.91.187.159.42.238.7.238.29 0 .56-.089.812-.266.262-.177.472-.467.63-.868l.756.266c-.186.541-.504.957-.952 1.246a2.566 2.566 0 0 1-1.442.434c-.233 0-.457-.028-.672-.084a1.58 1.58 0 0 1-.546-.266 1.317 1.317 0 0 1-.378-.462 1.585 1.585 0 0 1-.14-.686v-.126l.966-.336zM101.59 204l-.406 1.904a4.417 4.417 0 0 0-.098.84c0 .271.061.49.182.658.131.159.369.238.714.238.411 0 .751-.056 1.022-.168.271-.121.485-.238.644-.35l.672-3.122h1.064l-1.484 7h-1.064l.616-2.94a4.633 4.633 0 0 1-.686.308c-.299.112-.672.168-1.12.168a3.08 3.08 0 0 1-.686-.07 1.561 1.561 0 0 1-.532-.252 1.286 1.286 0 0 1-.336-.476 1.852 1.852 0 0 1-.126-.728c-.028-.336.159-1.339.56-3.01h1.064zm9.782 4.242a8.002 8.002 0 0 0-.154 1.05c-.028.355-.042.686-.042.994v.406c0 .121.01.233.028.336h-.784l-.196-1.218h-.056a3.784 3.784 0 0 1-.952.924 2.63 2.63 0 0 1-.63.308 2.017 2.017 0 0 1-.714.126c-1.11 0-1.666-.723-1.666-2.17 0-.597.075-1.204.224-1.82a5.711 5.711 0 0 1 .714-1.666 4.079 4.079 0 0 1 1.246-1.218c.514-.317 1.13-.476 1.848-.476.262 0 .579.033.952.098a6.8 6.8 0 0 1 1.064.238l-.882 4.088zm-3.178 2.03c.224 0 .439-.051.644-.154a3 3 0 0 0 .574-.406c.187-.159.35-.327.49-.504.14-.187.252-.359.336-.518l.784-3.78c-.28-.131-.634-.196-1.064-.196-.429 0-.807.126-1.134.378a3.122 3.122 0 0 0-.826.994 4.975 4.975 0 0 0-.504 1.372 7.205 7.205 0 0 0-.168 1.54c0 .355.07.658.21.91.14.243.36.364.658.364zm9.314.126c-.14.121-.303.229-.49.322a3.723 3.723 0 0 1-.56.238 4.13 4.13 0 0 1-.56.154 2.736 2.736 0 0 1-.532.056c-.457 0-.835-.07-1.134-.21a1.964 1.964 0 0 1-.686-.56 2.035 2.035 0 0 1-.35-.728 3.08 3.08 0 0 1-.098-.742c0-.793.108-1.503.322-2.128.215-.635.5-1.171.854-1.61.364-.439.78-.775 1.246-1.008.467-.233.948-.35 1.442-.35.355 0 .644.033.868.098.234.065.444.14.63.224l-.392.868a1.891 1.891 0 0 0-.588-.21 3.23 3.23 0 0 0-.756-.084c-.317 0-.63.107-.938.322a3.221 3.221 0 0 0-.798.854c-.233.345-.42.747-.56 1.204-.14.448-.21.91-.21 1.386 0 .607.126 1.055.378 1.344.252.289.593.434 1.022.434.28 0 .574-.061.882-.182.308-.131.556-.261.742-.392l.266.7zm5.039.602l.84-3.962c.075-.327.131-.616.168-.868.038-.252.056-.471.056-.658 0-.252-.046-.443-.14-.574-.093-.14-.252-.21-.476-.21a1.43 1.43 0 0 0-.686.182 2.928 2.928 0 0 0-.63.462 5.292 5.292 0 0 0-.546.574 4.685 4.685 0 0 0-.378.56l-.924 4.494h-1.05l1.484-7h.742l-.084 1.204h.056c.15-.149.308-.303.476-.462.178-.168.369-.317.574-.448.215-.131.444-.238.686-.322.252-.093.528-.14.826-.14.42 0 .7.131.84.392.15.261.224.625.224 1.092.14-.177.304-.355.49-.532.187-.177.388-.336.602-.476a3.46 3.46 0 0 1 .7-.336c.243-.093.486-.14.728-.14.43 0 .756.103.98.308.234.196.35.565.35 1.106 0 .392-.07.91-.21 1.554l-.882 4.2h-1.05l.882-4.214c.056-.271.098-.513.126-.728a3.26 3.26 0 0 0 .056-.56c0-.252-.051-.443-.154-.574-.102-.131-.275-.196-.518-.196-.196 0-.406.065-.63.196a3.518 3.518 0 0 0-.63.462 4.89 4.89 0 0 0-.56.602 4.276 4.276 0 0 0-.378.602l-.91 4.41h-1.05zm7.108-2.184c0-.737.093-1.409.28-2.016a5.142 5.142 0 0 1 .798-1.582 3.747 3.747 0 0 1 1.162-1.022 2.95 2.95 0 0 1 1.428-.364c.392 0 .723.065.994.196.28.121.504.294.672.518.177.215.303.467.378.756.075.28.112.574.112.882 0 .7-.093 1.353-.28 1.96a5.058 5.058 0 0 1-.756 1.582 3.778 3.778 0 0 1-1.12 1.064 2.716 2.716 0 0 1-1.4.378c-.42 0-.775-.065-1.064-.196a2.15 2.15 0 0 1-.7-.546 2.252 2.252 0 0 1-.392-.756 3.288 3.288 0 0 1-.112-.854zm1.12-.252c0 .551.103.975.308 1.274.205.289.532.434.98.434.308 0 .597-.107.868-.322.28-.224.523-.523.728-.896.215-.373.383-.798.504-1.274.131-.485.196-.989.196-1.512 0-.476-.089-.849-.266-1.12-.168-.28-.495-.42-.98-.42-.308 0-.602.107-.882.322-.28.205-.532.485-.756.84a4.942 4.942 0 0 0-.518 1.232 5.614 5.614 0 0 0-.182 1.442zm9.423 2.436l.84-3.962a12.3 12.3 0 0 0 .168-.868c.037-.252.056-.471.056-.658 0-.252-.047-.443-.14-.574-.094-.14-.252-.21-.476-.21-.234 0-.462.061-.686.182a2.928 2.928 0 0 0-.63.462 5.292 5.292 0 0 0-.546.574 4.456 4.456 0 0 0-.378.56l-.924 4.494h-1.05l1.484-7h.742l-.084 1.204h.056c.149-.149.308-.303.476-.462.177-.168.368-.317.574-.448.214-.131.443-.238.686-.322.252-.093.527-.14.826-.14.42 0 .7.131.84.392.149.261.224.625.224 1.092.14-.177.303-.355.49-.532.186-.177.387-.336.602-.476.224-.14.457-.252.7-.336.242-.093.485-.14.728-.14.429 0 .756.103.98.308.233.196.35.565.35 1.106 0 .392-.07.91-.21 1.554l-.882 4.2h-1.05l.882-4.214c.056-.271.098-.513.126-.728.037-.215.056-.401.056-.56 0-.252-.052-.443-.154-.574-.103-.131-.276-.196-.518-.196-.196 0-.406.065-.63.196a3.448 3.448 0 0 0-.63.462 4.814 4.814 0 0 0-.56.602 4.1 4.1 0 0 0-.378.602l-.91 4.41h-1.05zm8.353-1.638a1.76 1.76 0 0 1-.028.126v.112c0 .177.047.322.14.434.103.103.266.154.49.154.28 0 .542-.042.784-.126.252-.093.472-.219.658-.378a1.77 1.77 0 0 0 .434-.588c.112-.224.168-.471.168-.742 0-.289-.079-.513-.238-.672-.158-.159-.471-.238-.938-.238-.382 0-.751.075-1.106.224l-.364 1.694zm.56-2.604a4.56 4.56 0 0 1 .63-.126c.262-.037.5-.056.714-.056.682 0 1.162.14 1.442.42.28.271.42.63.42 1.078 0 .485-.102.915-.308 1.288a2.974 2.974 0 0 1-.784.952 3.415 3.415 0 0 1-1.078.574 3.9 3.9 0 0 1-1.218.196c-.513 0-.891-.107-1.134-.322-.233-.215-.35-.504-.35-.868 0-.177.019-.341.056-.49l1.218-5.404h1.05l-.658 2.758zm5.194-2.758h1.05l-1.484 7h-1.05l1.484-7zm126.649-24.15h-.756l-.658 3.15h-1.05l1.484-7h1.05l-.672 3.164.574-.182L283.53 176h1.26l-2.562 2.814-.644.462.56.56 1.568 3.164h-1.176l-1.582-3.15zm8.981.392a7.837 7.837 0 0 0-.154 1.05c-.028.355-.042.686-.042.994v.406c0 .121.009.233.028.336h-.784l-.196-1.218h-.056a3.784 3.784 0 0 1-.952.924 2.63 2.63 0 0 1-.63.308 2.017 2.017 0 0 1-.714.126c-1.111 0-1.666-.723-1.666-2.17 0-.597.074-1.204.224-1.82a5.658 5.658 0 0 1 .714-1.666 4.068 4.068 0 0 1 1.246-1.218c.513-.317 1.129-.476 1.848-.476.261 0 .578.033.952.098.382.056.737.135 1.064.238l-.882 4.088zm-3.178 2.03c.224 0 .438-.051.644-.154.205-.112.396-.247.574-.406.186-.159.35-.327.49-.504.14-.187.252-.359.336-.518l.784-3.78c-.28-.131-.635-.196-1.064-.196-.43 0-.808.126-1.134.378a3.11 3.11 0 0 0-.826.994 4.975 4.975 0 0 0-.504 1.372 7.205 7.205 0 0 0-.168 1.54c0 .355.07.658.21.91.14.243.359.364.658.364zm6.22-6.272h.728l-.07 1.204h.056c.131-.168.275-.331.434-.49.168-.168.35-.317.546-.448.196-.131.411-.233.644-.308.233-.084.485-.126.756-.126.224 0 .434.037.63.112.196.065.369.182.518.35.149.159.266.373.35.644.093.271.14.602.14.994 0 .821-.112 1.559-.336 2.212-.224.644-.518 1.19-.882 1.638a4.022 4.022 0 0 1-1.232 1.036 2.89 2.89 0 0 1-1.344.35c-.327 0-.616-.033-.868-.098-.243-.056-.406-.117-.49-.182l-.616 2.912h-1.05l2.086-9.8zm2.702.728c-.252 0-.495.065-.728.196a3.112 3.112 0 0 0-.63.49 4.006 4.006 0 0 0-.504.616 4.925 4.925 0 0 0-.364.602l-.686 3.318c.159.121.322.205.49.252.168.047.35.07.546.07.364 0 .709-.098 1.036-.294a3.03 3.03 0 0 0 .896-.868c.261-.373.467-.821.616-1.344a6.003 6.003 0 0 0 .238-1.75c0-.373-.079-.681-.238-.924-.149-.243-.373-.364-.672-.364zM302.34 183l.84-3.962c.075-.327.131-.616.168-.868.038-.252.056-.471.056-.658 0-.252-.046-.443-.14-.574-.093-.14-.252-.21-.476-.21a1.43 1.43 0 0 0-.686.182 2.928 2.928 0 0 0-.63.462 5.292 5.292 0 0 0-.546.574 4.685 4.685 0 0 0-.378.56l-.924 4.494h-1.05l1.484-7h.742l-.084 1.204h.056c.15-.149.308-.303.476-.462.178-.168.369-.317.574-.448.215-.131.444-.238.686-.322.252-.093.528-.14.826-.14.42 0 .7.131.84.392.15.261.224.625.224 1.092.14-.177.304-.355.49-.532.187-.177.388-.336.602-.476a3.46 3.46 0 0 1 .7-.336c.243-.093.486-.14.728-.14.43 0 .756.103.98.308.234.196.35.565.35 1.106 0 .392-.07.91-.21 1.554l-.882 4.2h-1.05l.882-4.214c.056-.271.098-.513.126-.728a3.26 3.26 0 0 0 .056-.56c0-.252-.051-.443-.154-.574-.102-.131-.275-.196-.518-.196-.196 0-.406.065-.63.196a3.518 3.518 0 0 0-.63.462 4.89 4.89 0 0 0-.56.602 4.276 4.276 0 0 0-.378.602l-.91 4.41h-1.05zm9.39-7l-.98 4.662a3.24 3.24 0 0 0-.084.7c0 .261.051.481.154.658.103.168.289.252.56.252.224 0 .448-.056.672-.168.233-.112.453-.257.658-.434.215-.177.406-.373.574-.588.177-.215.322-.425.434-.63l.938-4.452h1.05l-.882 4.158a8.556 8.556 0 0 0-.112.588c-.037.224-.075.462-.112.714-.028.252-.051.499-.07.742a7.677 7.677 0 0 0-.028.616V183h-.826v-1.33h-.056c-.14.187-.303.369-.49.546a3.385 3.385 0 0 1-.602.476c-.215.14-.448.252-.7.336-.252.093-.518.14-.798.14-.205 0-.397-.023-.574-.07a1.161 1.161 0 0 1-.448-.238 1.25 1.25 0 0 1-.308-.462 2.096 2.096 0 0 1-.112-.742c0-.327.047-.695.14-1.106l.952-4.55h1.05zm9.39 3.92h-3.024l-.658 3.08h-1.05l1.484-7h1.05l-.616 2.912h3.024l.616-2.912h1.05l-1.484 7h-1.05l.658-3.08zm7.875.322a8.002 8.002 0 0 0-.154 1.05c-.028.355-.042.686-.042.994v.406c0 .121.01.233.028.336h-.784l-.196-1.218h-.056a3.784 3.784 0 0 1-.952.924 2.63 2.63 0 0 1-.63.308 2.017 2.017 0 0 1-.714.126c-1.11 0-1.666-.723-1.666-2.17 0-.597.075-1.204.224-1.82a5.711 5.711 0 0 1 .714-1.666 4.079 4.079 0 0 1 1.246-1.218c.514-.317 1.13-.476 1.848-.476.262 0 .579.033.952.098a6.8 6.8 0 0 1 1.064.238l-.882 4.088zm-3.178 2.03c.224 0 .439-.051.644-.154a3 3 0 0 0 .574-.406c.187-.159.35-.327.49-.504.14-.187.252-.359.336-.518l.784-3.78c-.28-.131-.634-.196-1.064-.196-.429 0-.807.126-1.134.378a3.122 3.122 0 0 0-.826.994 4.975 4.975 0 0 0-.504 1.372 7.205 7.205 0 0 0-.168 1.54c0 .355.07.658.21.91.14.243.36.364.658.364zM335.961 176l-.406 1.904a4.417 4.417 0 0 0-.098.84c0 .271.061.49.182.658.131.159.369.238.714.238.411 0 .751-.056 1.022-.168.271-.121.485-.238.644-.35l.672-3.122h1.064l-1.484 7h-1.064l.616-2.94a4.633 4.633 0 0 1-.686.308c-.299.112-.672.168-1.12.168a3.08 3.08 0 0 1-.686-.07 1.561 1.561 0 0 1-.532-.252 1.286 1.286 0 0 1-.336-.476 1.852 1.852 0 0 1-.126-.728c-.028-.336.159-1.339.56-3.01h1.064zm9.782 4.242a8.002 8.002 0 0 0-.154 1.05c-.028.355-.042.686-.042.994v.406c0 .121.01.233.028.336h-.784l-.196-1.218h-.056a3.784 3.784 0 0 1-.952.924 2.63 2.63 0 0 1-.63.308 2.017 2.017 0 0 1-.714.126c-1.11 0-1.666-.723-1.666-2.17 0-.597.075-1.204.224-1.82a5.711 5.711 0 0 1 .714-1.666 4.079 4.079 0 0 1 1.246-1.218c.514-.317 1.13-.476 1.848-.476.262 0 .579.033.952.098a6.8 6.8 0 0 1 1.064.238l-.882 4.088zm-3.178 2.03c.224 0 .439-.051.644-.154a3 3 0 0 0 .574-.406c.187-.159.35-.327.49-.504.14-.187.252-.359.336-.518l.784-3.78c-.28-.131-.634-.196-1.064-.196-.429 0-.807.126-1.134.378a3.122 3.122 0 0 0-.826.994 4.975 4.975 0 0 0-.504 1.372 7.205 7.205 0 0 0-.168 1.54c0 .355.07.658.21.91.14.243.36.364.658.364zm9.315.126c-.14.121-.304.229-.49.322a3.767 3.767 0 0 1-.56.238 4.21 4.21 0 0 1-.56.154 2.744 2.744 0 0 1-.532.056c-.458 0-.836-.07-1.134-.21a1.955 1.955 0 0 1-1.036-1.288 3.03 3.03 0 0 1-.098-.742c0-.793.107-1.503.322-2.128.214-.635.499-1.171.854-1.61a3.847 3.847 0 0 1 1.246-1.008 3.19 3.19 0 0 1 1.442-.35c.354 0 .644.033.868.098.233.065.443.14.63.224l-.392.868a1.91 1.91 0 0 0-.588-.21 3.243 3.243 0 0 0-.756-.084c-.318 0-.63.107-.938.322a3.19 3.19 0 0 0-.798.854c-.234.345-.42.747-.56 1.204-.14.448-.21.91-.21 1.386 0 .607.126 1.055.378 1.344.252.289.592.434 1.022.434.28 0 .574-.061.882-.182.308-.131.555-.261.742-.392l.266.7zm5.038.602l.84-3.962c.075-.327.131-.616.168-.868.038-.252.056-.471.056-.658 0-.252-.046-.443-.14-.574-.093-.14-.252-.21-.476-.21a1.43 1.43 0 0 0-.686.182 2.928 2.928 0 0 0-.63.462 5.292 5.292 0 0 0-.546.574 4.685 4.685 0 0 0-.378.56l-.924 4.494h-1.05l1.484-7h.742l-.084 1.204h.056c.15-.149.308-.303.476-.462.178-.168.369-.317.574-.448.215-.131.444-.238.686-.322.252-.093.528-.14.826-.14.42 0 .7.131.84.392.15.261.224.625.224 1.092.14-.177.304-.355.49-.532.187-.177.388-.336.602-.476a3.46 3.46 0 0 1 .7-.336c.243-.093.486-.14.728-.14.43 0 .756.103.98.308.234.196.35.565.35 1.106 0 .392-.07.91-.21 1.554l-.882 4.2h-1.05l.882-4.214c.056-.271.098-.513.126-.728a3.26 3.26 0 0 0 .056-.56c0-.252-.051-.443-.154-.574-.102-.131-.275-.196-.518-.196-.196 0-.406.065-.63.196a3.518 3.518 0 0 0-.63.462 4.89 4.89 0 0 0-.56.602 4.276 4.276 0 0 0-.378.602l-.91 4.41h-1.05zm7.108-2.184c0-.737.094-1.409.28-2.016a5.142 5.142 0 0 1 .798-1.582 3.759 3.759 0 0 1 1.162-1.022 2.95 2.95 0 0 1 1.428-.364c.392 0 .724.065.994.196.28.121.504.294.672.518.178.215.304.467.378.756.075.28.112.574.112.882 0 .7-.093 1.353-.28 1.96a5.058 5.058 0 0 1-.756 1.582c-.317.448-.69.803-1.12 1.064a2.716 2.716 0 0 1-1.4.378c-.42 0-.774-.065-1.064-.196a2.15 2.15 0 0 1-.7-.546 2.252 2.252 0 0 1-.392-.756 3.331 3.331 0 0 1-.112-.854zm1.12-.252c0 .551.103.975.308 1.274.206.289.532.434.98.434.308 0 .598-.107.868-.322.28-.224.523-.523.728-.896.215-.373.383-.798.504-1.274.131-.485.196-.989.196-1.512 0-.476-.088-.849-.266-1.12-.168-.28-.494-.42-.98-.42-.308 0-.602.107-.882.322-.28.205-.532.485-.756.84a4.98 4.98 0 0 0-.518 1.232 5.614 5.614 0 0 0-.182 1.442zm9.423 2.436l.84-3.962a12.3 12.3 0 0 0 .168-.868c.037-.252.056-.471.056-.658 0-.252-.047-.443-.14-.574-.094-.14-.252-.21-.476-.21-.234 0-.462.061-.686.182a2.928 2.928 0 0 0-.63.462 5.292 5.292 0 0 0-.546.574 4.456 4.456 0 0 0-.378.56l-.924 4.494h-1.05l1.484-7h.742l-.084 1.204h.056c.149-.149.308-.303.476-.462.177-.168.368-.317.574-.448.214-.131.443-.238.686-.322.252-.093.527-.14.826-.14.42 0 .7.131.84.392.149.261.224.625.224 1.092.14-.177.303-.355.49-.532.186-.177.387-.336.602-.476.224-.14.457-.252.7-.336.242-.093.485-.14.728-.14.429 0 .756.103.98.308.233.196.35.565.35 1.106 0 .392-.07.91-.21 1.554l-.882 4.2h-1.05l.882-4.214c.056-.271.098-.513.126-.728.037-.215.056-.401.056-.56 0-.252-.052-.443-.154-.574-.103-.131-.276-.196-.518-.196-.196 0-.406.065-.63.196a3.448 3.448 0 0 0-.63.462 4.814 4.814 0 0 0-.56.602 4.1 4.1 0 0 0-.378.602l-.91 4.41h-1.05zm8.354-1.638l-.028.126v.112c0 .177.046.322.14.434.102.103.266.154.49.154.28 0 .541-.042.784-.126.252-.093.471-.219.658-.378.186-.168.331-.364.434-.588.112-.224.168-.471.168-.742 0-.289-.08-.513-.238-.672-.159-.159-.472-.238-.938-.238-.383 0-.752.075-1.106.224l-.364 1.694zm.56-2.604a4.5 4.5 0 0 1 .63-.126c.261-.037.499-.056.714-.056.681 0 1.162.14 1.442.42.28.271.42.63.42 1.078 0 .485-.103.915-.308 1.288a2.987 2.987 0 0 1-.784.952 3.437 3.437 0 0 1-1.078.574 3.909 3.909 0 0 1-1.218.196c-.514 0-.892-.107-1.134-.322-.234-.215-.35-.504-.35-.868 0-.177.018-.341.056-.49l1.218-5.404h1.05l-.658 2.758zm5.194-2.758h1.05l-1.484 7h-1.05l1.484-7zm-106.183 21l.938-4.424c.037-.168.07-.331.098-.49.028-.168.042-.317.042-.448 0-.271-.065-.49-.196-.658-.121-.168-.355-.252-.7-.252-.243 0-.481.056-.714.168a2.985 2.985 0 0 0-.658.434 3.625 3.625 0 0 0-.56.574 4.627 4.627 0 0 0-.406.616l-.924 4.48h-1.05l1.484-7h.728l-.056 1.204h.056c.121-.149.266-.303.434-.462.168-.168.355-.317.56-.448.215-.131.453-.238.714-.322.261-.093.551-.14.868-.14.467 0 .835.112 1.106.336.271.224.406.616.406 1.176 0 .28-.042.616-.126 1.008l-.994 4.648h-1.05zm8.266-.686c-.326.28-.714.495-1.162.644-.438.14-.882.21-1.33.21-.746 0-1.311-.215-1.694-.644-.373-.429-.56-1.027-.56-1.792 0-.765.108-1.451.322-2.058.215-.607.495-1.12.84-1.54.355-.42.752-.742 1.19-.966a3.038 3.038 0 0 1 1.372-.336c.336 0 .626.047.868.14.252.093.458.219.616.378.159.149.276.327.35.532.075.196.112.406.112.63 0 .663-.322 1.185-.966 1.568-.644.373-1.582.56-2.814.56h-.35l-.378-.028a5.879 5.879 0 0 0-.084.504 3.811 3.811 0 0 0-.028.42c0 .513.117.933.35 1.26.234.317.598.476 1.092.476.411 0 .784-.065 1.12-.196.346-.14.612-.285.798-.434l.336.672zm-1.19-5.586c-.513 0-.961.177-1.344.532-.373.345-.658.868-.854 1.568.355 0 .724-.009 1.106-.028a5.558 5.558 0 0 0 1.036-.14c.318-.084.579-.21.784-.378.206-.177.308-.42.308-.728a.736.736 0 0 0-.056-.28.586.586 0 0 0-.154-.266.727.727 0 0 0-.322-.196 1.286 1.286 0 0 0-.504-.084zm4.241-.728h.728l-.07 1.204h.056c.131-.168.275-.331.434-.49.168-.168.35-.317.546-.448.196-.131.411-.233.644-.308.233-.084.485-.126.756-.126.224 0 .434.037.63.112.196.065.369.182.518.35.149.159.266.373.35.644.093.271.14.602.14.994 0 .821-.112 1.559-.336 2.212-.224.644-.518 1.19-.882 1.638a4.022 4.022 0 0 1-1.232 1.036 2.89 2.89 0 0 1-1.344.35c-.327 0-.616-.033-.868-.098-.243-.056-.406-.117-.49-.182l-.616 2.912h-1.05l2.086-9.8zm2.702.728c-.252 0-.495.065-.728.196a3.112 3.112 0 0 0-.63.49 4.006 4.006 0 0 0-.504.616 4.925 4.925 0 0 0-.364.602l-.686 3.318c.159.121.322.205.49.252.168.047.35.07.546.07.364 0 .709-.098 1.036-.294a3.03 3.03 0 0 0 .896-.868c.261-.373.467-.821.616-1.344a6.003 6.003 0 0 0 .238-1.75c0-.373-.079-.681-.238-.924-.149-.243-.373-.364-.672-.364zm7.837 5.586c-.326.28-.714.495-1.162.644-.438.14-.882.21-1.33.21-.746 0-1.311-.215-1.694-.644-.373-.429-.56-1.027-.56-1.792 0-.765.108-1.451.322-2.058.215-.607.495-1.12.84-1.54.355-.42.752-.742 1.19-.966a3.038 3.038 0 0 1 1.372-.336c.336 0 .626.047.868.14.252.093.458.219.616.378.159.149.276.327.35.532.075.196.112.406.112.63 0 .663-.322 1.185-.966 1.568-.644.373-1.582.56-2.814.56h-.35l-.378-.028a5.879 5.879 0 0 0-.084.504 3.811 3.811 0 0 0-.028.42c0 .513.117.933.35 1.26.234.317.598.476 1.092.476.411 0 .784-.065 1.12-.196.346-.14.612-.285.798-.434l.336.672zm-1.19-5.586c-.513 0-.961.177-1.344.532-.373.345-.658.868-.854 1.568.355 0 .724-.009 1.106-.028a5.558 5.558 0 0 0 1.036-.14c.318-.084.579-.21.784-.378.206-.177.308-.42.308-.728a.736.736 0 0 0-.056-.28.586.586 0 0 0-.154-.266.727.727 0 0 0-.322-.196 1.286 1.286 0 0 0-.504-.084zm6.495-.798c.317 0 .564.033.742.098.186.056.345.131.476.224h.07c-.047-.709-.308-1.274-.784-1.694-.467-.42-1.106-.63-1.918-.63l.196-.896c.681 0 1.25.103 1.708.308.457.205.826.485 1.106.84.28.355.476.77.588 1.246.121.476.182.985.182 1.526 0 .98-.098 1.857-.294 2.632-.187.765-.448 1.414-.784 1.946s-.733.938-1.19 1.218c-.448.28-.934.42-1.456.42-.756 0-1.312-.233-1.666-.7-.355-.467-.532-1.111-.532-1.932 0-.588.079-1.157.238-1.708a4.998 4.998 0 0 1 .714-1.47 3.695 3.695 0 0 1 1.12-1.036 2.844 2.844 0 0 1 1.484-.392zm-.084.896c-.299 0-.588.093-.868.28-.28.187-.532.448-.756.784a4.729 4.729 0 0 0-.532 1.218c-.131.467-.196.98-.196 1.54 0 .457.093.845.28 1.162.186.308.49.462.91.462.457 0 .844-.163 1.162-.49.317-.327.574-.733.77-1.218a7.162 7.162 0 0 0 .42-1.596c.093-.579.14-1.115.14-1.61a1.421 1.421 0 0 0-.546-.406c-.196-.084-.458-.126-.784-.126zm8.541 3.416a8.002 8.002 0 0 0-.154 1.05c-.028.355-.042.686-.042.994v.406c0 .121.01.233.028.336h-.784l-.196-1.218h-.056a3.784 3.784 0 0 1-.952.924 2.63 2.63 0 0 1-.63.308 2.017 2.017 0 0 1-.714.126c-1.11 0-1.666-.723-1.666-2.17 0-.597.075-1.204.224-1.82a5.711 5.711 0 0 1 .714-1.666 4.079 4.079 0 0 1 1.246-1.218c.514-.317 1.13-.476 1.848-.476.262 0 .579.033.952.098a6.8 6.8 0 0 1 1.064.238l-.882 4.088zm-3.178 2.03c.224 0 .439-.051.644-.154a3 3 0 0 0 .574-.406c.187-.159.35-.327.49-.504.14-.187.252-.359.336-.518l.784-3.78c-.28-.131-.634-.196-1.064-.196-.429 0-.807.126-1.134.378a3.122 3.122 0 0 0-.826.994 4.975 4.975 0 0 0-.504 1.372 7.205 7.205 0 0 0-.168 1.54c0 .355.07.658.21.91.14.243.36.364.658.364zm5.171-3.262c.233-1.045.634-1.825 1.204-2.338.569-.513 1.274-.77 2.114-.77.354 0 .648.033.882.098.233.065.42.159.56.28.14.112.238.247.294.406.056.159.084.336.084.532 0 .495-.164.924-.49 1.288-.318.364-.742.621-1.274.77l-.028.056c.448.019.788.131 1.022.336.242.205.364.481.364.826 0 .429-.089.807-.266 1.134a2.5 2.5 0 0 1-.686.812c-.29.215-.621.378-.994.49a4.027 4.027 0 0 1-1.162.168c-.271 0-.528-.033-.77-.098a1.616 1.616 0 0 1-.616-.322 1.708 1.708 0 0 1-.406-.63c-.094-.271-.14-.602-.14-.994 0-.14.004-.271.014-.392.009-.121.023-.257.042-.406l.098-.518c.037-.205.088-.448.154-.728zm.84.882a24.08 24.08 0 0 0-.112.644 4.129 4.129 0 0 0-.028.462c0 .803.373 1.204 1.12 1.204.242 0 .471-.033.686-.098.224-.065.42-.163.588-.294.168-.14.298-.308.392-.504.102-.196.154-.429.154-.7a.694.694 0 0 0-.308-.588c-.196-.149-.532-.224-1.008-.224h-.112c-.038 0-.108.005-.21.014a9.394 9.394 0 0 1-.42.028c-.187.009-.434.028-.742.056zm1.428-.938c.14-.009.312-.047.518-.112.205-.065.401-.154.588-.266.196-.121.359-.266.49-.434a.934.934 0 0 0 .196-.588c0-.252-.066-.439-.196-.56-.131-.131-.383-.196-.756-.196-.532 0-.962.168-1.288.504-.327.336-.57.817-.728 1.442l-.084.336 1.26-.126zm8.946 1.288a8.002 8.002 0 0 0-.154 1.05c-.028.355-.042.686-.042.994v.406c0 .121.01.233.028.336h-.784l-.196-1.218h-.056a3.784 3.784 0 0 1-.952.924 2.63 2.63 0 0 1-.63.308 2.017 2.017 0 0 1-.714.126c-1.11 0-1.666-.723-1.666-2.17 0-.597.075-1.204.224-1.82a5.711 5.711 0 0 1 .714-1.666 4.079 4.079 0 0 1 1.246-1.218c.514-.317 1.13-.476 1.848-.476.262 0 .579.033.952.098a6.8 6.8 0 0 1 1.064.238l-.882 4.088zm-3.178 2.03c.224 0 .439-.051.644-.154a3 3 0 0 0 .574-.406c.187-.159.35-.327.49-.504.14-.187.252-.359.336-.518l.784-3.78c-.28-.131-.634-.196-1.064-.196-.429 0-.807.126-1.134.378a3.122 3.122 0 0 0-.826.994 4.975 4.975 0 0 0-.504 1.372 7.205 7.205 0 0 0-.168 1.54c0 .355.07.658.21.91.14.243.36.364.658.364zm9.651.042c-.327.28-.714.495-1.162.644-.439.14-.882.21-1.33.21-.747 0-1.312-.215-1.694-.644-.374-.429-.56-1.027-.56-1.792 0-.765.107-1.451.322-2.058.214-.607.494-1.12.84-1.54.354-.42.751-.742 1.19-.966a3.035 3.035 0 0 1 1.372-.336c.336 0 .625.047.868.14.252.093.457.219.616.378.158.149.275.327.35.532.074.196.112.406.112.63 0 .663-.322 1.185-.966 1.568-.644.373-1.582.56-2.814.56h-.35l-.378-.028a5.188 5.188 0 0 0-.084.504 3.58 3.58 0 0 0-.028.42c0 .513.116.933.35 1.26.233.317.597.476 1.092.476.41 0 .784-.065 1.12-.196.345-.14.611-.285.798-.434l.336.672zm-1.19-5.586a1.91 1.91 0 0 0-1.344.532c-.374.345-.658.868-.854 1.568.354 0 .723-.009 1.106-.028a5.57 5.57 0 0 0 1.036-.14c.317-.084.578-.21.784-.378.205-.177.308-.42.308-.728a.756.756 0 0 0-.056-.28.595.595 0 0 0-.154-.266.733.733 0 0 0-.322-.196 1.293 1.293 0 0 0-.504-.084zm9.084 2.114l.35-1.33h-.056l-.714 1.078-2.184 2.744h-.364l-1.092-2.744-.21-1.078h-.056l-.182 1.316-.882 4.172h-.98l1.484-7h.966l1.19 3.136.21.812h.028l.574-.84 2.408-3.108h1.148l-1.484 7h-1.036l.882-4.158zm2.535 1.974c0-.737.094-1.409.28-2.016a5.142 5.142 0 0 1 .798-1.582 3.759 3.759 0 0 1 1.162-1.022 2.95 2.95 0 0 1 1.428-.364c.392 0 .724.065.994.196.28.121.504.294.672.518.178.215.304.467.378.756.075.28.112.574.112.882 0 .7-.093 1.353-.28 1.96a5.058 5.058 0 0 1-.756 1.582c-.317.448-.69.803-1.12 1.064a2.716 2.716 0 0 1-1.4.378c-.42 0-.774-.065-1.064-.196a2.15 2.15 0 0 1-.7-.546 2.252 2.252 0 0 1-.392-.756 3.331 3.331 0 0 1-.112-.854zm1.12-.252c0 .551.103.975.308 1.274.206.289.532.434.98.434.308 0 .598-.107.868-.322.28-.224.523-.523.728-.896.215-.373.383-.798.504-1.274.131-.485.196-.989.196-1.512 0-.476-.088-.849-.266-1.12-.168-.28-.494-.42-.98-.42-.308 0-.602.107-.882.322-.28.205-.532.485-.756.84a4.98 4.98 0 0 0-.518 1.232 5.614 5.614 0 0 0-.182 1.442zm8.135-4.564l-.98 4.662a3.24 3.24 0 0 0-.084.7c0 .261.051.481.154.658.103.168.289.252.56.252.224 0 .448-.056.672-.168.233-.112.453-.257.658-.434.215-.177.406-.373.574-.588.177-.215.322-.425.434-.63l.938-4.452h1.05l-.882 4.158a8.556 8.556 0 0 0-.112.588c-.037.224-.075.462-.112.714-.028.252-.051.499-.07.742a7.677 7.677 0 0 0-.028.616V197h-.826v-1.33h-.056c-.14.187-.303.369-.49.546a3.385 3.385 0 0 1-.602.476c-.215.14-.448.252-.7.336-.252.093-.518.14-.798.14-.205 0-.397-.023-.574-.07a1.161 1.161 0 0 1-.448-.238 1.25 1.25 0 0 1-.308-.462 2.096 2.096 0 0 1-.112-.742c0-.327.047-.695.14-1.106l.952-4.55h1.05zm.798-2.828c0 .439.089.742.266.91.187.159.42.238.7.238.289 0 .56-.089.812-.266.261-.177.471-.467.63-.868l.756.266c-.187.541-.504.957-.952 1.246a2.568 2.568 0 0 1-1.442.434c-.233 0-.457-.028-.672-.084a1.58 1.58 0 0 1-.546-.266 1.296 1.296 0 0 1-.378-.462 1.585 1.585 0 0 1-.14-.686v-.126l.966-.336zM282.494 211l.938-4.424c.037-.168.07-.331.098-.49.028-.168.042-.317.042-.448 0-.271-.065-.49-.196-.658-.121-.168-.355-.252-.7-.252-.243 0-.481.056-.714.168a2.985 2.985 0 0 0-.658.434 3.625 3.625 0 0 0-.56.574 4.627 4.627 0 0 0-.406.616l-.924 4.48h-1.05l1.484-7h.728l-.056 1.204h.056c.121-.149.266-.303.434-.462.168-.168.355-.317.56-.448.215-.131.453-.238.714-.322.261-.093.551-.14.868-.14.467 0 .835.112 1.106.336.271.224.406.616.406 1.176 0 .28-.042.616-.126 1.008l-.994 4.648h-1.05zm8.616-2.758a8.002 8.002 0 0 0-.154 1.05c-.028.355-.042.686-.042.994v.406c0 .121.01.233.028.336h-.784l-.196-1.218h-.056a3.784 3.784 0 0 1-.952.924 2.63 2.63 0 0 1-.63.308 2.017 2.017 0 0 1-.714.126c-1.11 0-1.666-.723-1.666-2.17 0-.597.075-1.204.224-1.82a5.711 5.711 0 0 1 .714-1.666 4.079 4.079 0 0 1 1.246-1.218c.514-.317 1.13-.476 1.848-.476.262 0 .579.033.952.098a6.8 6.8 0 0 1 1.064.238l-.882 4.088zm-3.178 2.03c.224 0 .439-.051.644-.154a3 3 0 0 0 .574-.406c.187-.159.35-.327.49-.504.14-.187.252-.359.336-.518l.784-3.78c-.28-.131-.634-.196-1.064-.196-.429 0-.807.126-1.134.378a3.122 3.122 0 0 0-.826.994 4.975 4.975 0 0 0-.504 1.372 7.205 7.205 0 0 0-.168 1.54c0 .355.07.658.21.91.14.243.36.364.658.364zm10.043.728h-.042c-.327 0-.57-.079-.728-.238-.159-.159-.238-.387-.238-.686 0-.131.014-.266.042-.406h-.056a4.766 4.766 0 0 1-.462.532 4.39 4.39 0 0 1-.588.49c-.215.14-.448.252-.7.336-.243.093-.504.14-.784.14a2.23 2.23 0 0 1-.574-.07 1.154 1.154 0 0 1-.448-.238 1.237 1.237 0 0 1-.308-.462 2.096 2.096 0 0 1-.112-.742c0-.327.046-.695.14-1.106l.952-4.55h1.05l-.98 4.662a3.24 3.24 0 0 0-.084.7c0 .261.051.481.154.658.102.168.289.252.56.252.224 0 .448-.056.672-.168.233-.112.452-.257.658-.434.214-.177.406-.373.574-.588.177-.215.322-.425.434-.63l.938-4.452h1.05l-.476 2.226c-.131.597-.238 1.097-.322 1.498a35.2 35.2 0 0 1-.21.952c-.047.233-.084.415-.112.546l-.042.266v.168c0 .299.126.448.378.448h.77l-.728 2.674h-.84l.462-1.778zm4.568-7l-.98 4.662a3.24 3.24 0 0 0-.084.7c0 .261.051.481.154.658.102.168.289.252.56.252.224 0 .448-.056.672-.168.233-.112.452-.257.658-.434.214-.177.406-.373.574-.588.177-.215.322-.425.434-.63l.938-4.452h1.05l-.882 4.158a7.99 7.99 0 0 0-.112.588 32.66 32.66 0 0 0-.112.714c-.028.252-.052.499-.07.742a7.677 7.677 0 0 0-.028.616V211h-.826v-1.33h-.056a4.39 4.39 0 0 1-.49.546 3.421 3.421 0 0 1-.602.476c-.215.14-.448.252-.7.336-.252.093-.518.14-.798.14a2.23 2.23 0 0 1-.574-.07 1.154 1.154 0 0 1-.448-.238 1.237 1.237 0 0 1-.308-.462 2.096 2.096 0 0 1-.112-.742c0-.327.046-.695.14-1.106l.952-4.55h1.05zm9.614 6.314c-.327.28-.714.495-1.162.644-.439.14-.882.21-1.33.21-.747 0-1.311-.215-1.694-.644-.373-.429-.56-1.027-.56-1.792 0-.765.107-1.451.322-2.058.215-.607.495-1.12.84-1.54.355-.42.751-.742 1.19-.966a3.035 3.035 0 0 1 1.372-.336c.336 0 .625.047.868.14.252.093.457.219.616.378.159.149.275.327.35.532.075.196.112.406.112.63 0 .663-.322 1.185-.966 1.568-.644.373-1.582.56-2.814.56h-.35l-.378-.028a5.879 5.879 0 0 0-.084.504 3.58 3.58 0 0 0-.028.42c0 .513.117.933.35 1.26.233.317.597.476 1.092.476.411 0 .784-.065 1.12-.196.345-.14.611-.285.798-.434l.336.672zm-1.19-5.586c-.513 0-.961.177-1.344.532-.373.345-.658.868-.854 1.568.355 0 .723-.009 1.106-.028a5.558 5.558 0 0 0 1.036-.14c.317-.084.579-.21.784-.378.205-.177.308-.42.308-.728a.756.756 0 0 0-.056-.28.586.586 0 0 0-.154-.266.733.733 0 0 0-.322-.196 1.293 1.293 0 0 0-.504-.084zm7.446 3.192h-3.024l-.658 3.08h-1.05l1.484-7h1.05l-.616 2.912h3.024l.616-2.912h1.05l-1.484 7h-1.05l.658-3.08zm6.349 3.08l.84-3.962c.075-.327.131-.616.168-.868.038-.252.056-.471.056-.658 0-.252-.046-.443-.14-.574-.093-.14-.252-.21-.476-.21a1.43 1.43 0 0 0-.686.182 2.928 2.928 0 0 0-.63.462 5.292 5.292 0 0 0-.546.574 4.685 4.685 0 0 0-.378.56l-.924 4.494h-1.05l1.484-7h.742l-.084 1.204h.056c.15-.149.308-.303.476-.462.178-.168.369-.317.574-.448.215-.131.444-.238.686-.322.252-.093.528-.14.826-.14.42 0 .7.131.84.392.15.261.224.625.224 1.092.14-.177.304-.355.49-.532.187-.177.388-.336.602-.476a3.46 3.46 0 0 1 .7-.336c.243-.093.486-.14.728-.14.43 0 .756.103.98.308.234.196.35.565.35 1.106 0 .392-.07.91-.21 1.554l-.882 4.2h-1.05l.882-4.214c.056-.271.098-.513.126-.728a3.26 3.26 0 0 0 .056-.56c0-.252-.051-.443-.154-.574-.102-.131-.275-.196-.518-.196-.196 0-.406.065-.63.196a3.518 3.518 0 0 0-.63.462 4.89 4.89 0 0 0-.56.602 4.276 4.276 0 0 0-.378.602l-.91 4.41h-1.05zm9.124-2.464l.07 1.344h.07l.532-1.358 2.324-4.522h1.12l-3.304 6.244c-.243.457-.485.901-.728 1.33a8.852 8.852 0 0 1-.728 1.162 3.932 3.932 0 0 1-.784.826c-.271.205-.551.308-.84.308-.159 0-.299-.009-.42-.028a1.079 1.079 0 0 1-.308-.098l.336-.966a.987.987 0 0 0 .336.056c.271 0 .541-.14.812-.42.271-.28.574-.751.91-1.414l-1.204-7h1.12l.686 4.536zm16.974 81.306l.35-1.33h-.056l-.714 1.078-2.184 2.744h-.364l-1.092-2.744-.21-1.078h-.056l-.182 1.316-.882 4.172h-.98l1.484-7h.966l1.19 3.136.21.812h.028l.574-.84L351.35 287h1.148l-1.484 7h-1.036l.882-4.158zm2.535 1.974c0-.737.094-1.409.28-2.016a5.142 5.142 0 0 1 .798-1.582 3.759 3.759 0 0 1 1.162-1.022 2.95 2.95 0 0 1 1.428-.364c.392 0 .724.065.994.196.28.121.504.294.672.518.178.215.304.467.378.756.075.28.112.574.112.882 0 .7-.093 1.353-.28 1.96a5.058 5.058 0 0 1-.756 1.582c-.317.448-.69.803-1.12 1.064a2.716 2.716 0 0 1-1.4.378c-.42 0-.774-.065-1.064-.196a2.15 2.15 0 0 1-.7-.546 2.252 2.252 0 0 1-.392-.756 3.331 3.331 0 0 1-.112-.854zm1.12-.252c0 .551.103.975.308 1.274.206.289.532.434.98.434.308 0 .598-.107.868-.322.28-.224.523-.523.728-.896.215-.373.383-.798.504-1.274.131-.485.196-.989.196-1.512 0-.476-.088-.849-.266-1.12-.168-.28-.494-.42-.98-.42-.308 0-.602.107-.882.322-.28.205-.532.485-.756.84a4.98 4.98 0 0 0-.518 1.232 5.614 5.614 0 0 0-.182 1.442zm9.423-4.634c.317 0 .565.033.742.098.187.056.345.131.476.224h.07c-.047-.709-.308-1.274-.784-1.694-.467-.42-1.106-.63-1.918-.63l.196-.896c.681 0 1.251.103 1.708.308.457.205.826.485 1.106.84.28.355.476.77.588 1.246.121.476.182.985.182 1.526 0 .98-.098 1.857-.294 2.632-.187.765-.448 1.414-.784 1.946s-.733.938-1.19 1.218c-.448.28-.933.42-1.456.42-.756 0-1.311-.233-1.666-.7-.355-.467-.532-1.111-.532-1.932 0-.588.079-1.157.238-1.708a4.998 4.998 0 0 1 .714-1.47 3.695 3.695 0 0 1 1.12-1.036 2.847 2.847 0 0 1 1.484-.392zm-.084.896c-.299 0-.588.093-.868.28-.28.187-.532.448-.756.784a4.729 4.729 0 0 0-.532 1.218c-.131.467-.196.98-.196 1.54 0 .457.093.845.28 1.162.187.308.49.462.91.462.457 0 .845-.163 1.162-.49.317-.327.574-.733.77-1.218a7.162 7.162 0 0 0 .42-1.596c.093-.579.14-1.115.14-1.61a1.421 1.421 0 0 0-.546-.406c-.196-.084-.457-.126-.784-.126zm5.216 3.71l.07 1.344h.07l.532-1.358 2.324-4.522h1.12l-3.304 6.244a60.97 60.97 0 0 1-.728 1.33 8.958 8.958 0 0 1-.728 1.162 3.957 3.957 0 0 1-.784.826c-.271.205-.551.308-.84.308-.159 0-.299-.009-.42-.028a1.079 1.079 0 0 1-.308-.098l.336-.966a.979.979 0 0 0 .336.056c.27 0 .541-.14.812-.42.27-.28.574-.751.91-1.414l-1.204-7h1.12l.686 4.536zm8.526-3.64h-1.876a78.447 78.447 0 0 1-.686 2.646c-.215.765-.448 1.409-.7 1.932-.243.513-.513.905-.812 1.176a1.548 1.548 0 0 1-1.078.406c-.159 0-.299-.009-.42-.028a.934.934 0 0 1-.322-.098l.322-.896c.112.028.219.042.322.042a.876.876 0 0 0 .574-.224c.187-.149.378-.443.574-.882.196-.439.406-1.055.63-1.848.233-.793.504-1.834.812-3.122h3.892l-1.484 7h-1.05l1.302-6.104zm5.897 3.22l-1.078.168-2.254 2.716h-1.358l2.044-2.394.686-.518a1.749 1.749 0 0 1-.938-.462c-.252-.252-.378-.602-.378-1.05 0-.429.089-.812.266-1.148a2.6 2.6 0 0 1 .714-.868 3.207 3.207 0 0 1 1.036-.532 4.04 4.04 0 0 1 1.82-.154c.187.019.364.047.532.084.168.028.318.065.448.112.131.037.238.07.322.098L383.927 294h-1.05l.616-2.884zm.7-3.206c-.046-.047-.149-.089-.308-.126a2.947 2.947 0 0 0-.644-.056c-.56 0-1.017.159-1.372.476-.354.308-.532.723-.532 1.246 0 .681.486 1.022 1.456 1.022h.406c.103-.009.248-.019.434-.028l.56-2.534zm7.194 6.09h-.042c-.327 0-.57-.079-.728-.238-.159-.159-.238-.387-.238-.686 0-.131.014-.266.042-.406h-.056a4.766 4.766 0 0 1-.462.532 4.39 4.39 0 0 1-.588.49c-.215.14-.448.252-.7.336-.243.093-.504.14-.784.14a2.23 2.23 0 0 1-.574-.07 1.154 1.154 0 0 1-.448-.238 1.237 1.237 0 0 1-.308-.462 2.096 2.096 0 0 1-.112-.742c0-.327.046-.695.14-1.106l.952-4.55h1.05l-.98 4.662a3.24 3.24 0 0 0-.084.7c0 .261.051.481.154.658.102.168.289.252.56.252.224 0 .448-.056.672-.168.233-.112.452-.257.658-.434.214-.177.406-.373.574-.588.177-.215.322-.425.434-.63l.938-4.452h1.05l-.476 2.226c-.131.597-.238 1.097-.322 1.498a35.2 35.2 0 0 1-.21.952c-.047.233-.084.415-.112.546l-.042.266v.168c0 .299.126.448.378.448h.77l-.728 2.674h-.84l.462-1.778zm4.568-7l-.98 4.662a3.24 3.24 0 0 0-.084.7c0 .261.051.481.154.658.102.168.289.252.56.252.224 0 .448-.056.672-.168.233-.112.452-.257.658-.434.214-.177.406-.373.574-.588.177-.215.322-.425.434-.63l.938-4.452h1.05l-.882 4.158a7.99 7.99 0 0 0-.112.588 32.66 32.66 0 0 0-.112.714c-.028.252-.052.499-.07.742a7.677 7.677 0 0 0-.028.616V294h-.826v-1.33h-.056a4.39 4.39 0 0 1-.49.546 3.421 3.421 0 0 1-.602.476c-.215.14-.448.252-.7.336-.252.093-.518.14-.798.14a2.23 2.23 0 0 1-.574-.07 1.154 1.154 0 0 1-.448-.238 1.237 1.237 0 0 1-.308-.462 2.096 2.096 0 0 1-.112-.742c0-.327.046-.695.14-1.106l.952-4.55h1.05zm4.868 4.816c0-.737.093-1.409.28-2.016a5.142 5.142 0 0 1 .798-1.582 3.747 3.747 0 0 1 1.162-1.022 2.95 2.95 0 0 1 1.428-.364c.392 0 .723.065.994.196.28.121.504.294.672.518.177.215.303.467.378.756.075.28.112.574.112.882 0 .7-.093 1.353-.28 1.96a5.058 5.058 0 0 1-.756 1.582 3.778 3.778 0 0 1-1.12 1.064 2.716 2.716 0 0 1-1.4.378c-.42 0-.775-.065-1.064-.196a2.15 2.15 0 0 1-.7-.546 2.252 2.252 0 0 1-.392-.756 3.288 3.288 0 0 1-.112-.854zm1.12-.252c0 .551.103.975.308 1.274.205.289.532.434.98.434.308 0 .597-.107.868-.322.28-.224.523-.523.728-.896.215-.373.383-.798.504-1.274.131-.485.196-.989.196-1.512 0-.476-.089-.849-.266-1.12-.168-.28-.495-.42-.98-.42-.308 0-.602.107-.882.322-.28.205-.532.485-.756.84a4.942 4.942 0 0 0-.518 1.232 5.614 5.614 0 0 0-.182 1.442zm10.375-.644h-3.024l-.658 3.08h-1.05l1.484-7h1.05l-.616 2.912h3.024l.616-2.912h1.05l-1.484 7h-1.05l.658-3.08zm7.3 0h-3.024l-.658 3.08h-1.05l1.484-7h1.05l-.616 2.912h3.024l.616-2.912h1.05l-1.484 7h-1.05l.658-3.08zm4.025 1.442a1.76 1.76 0 0 1-.028.126v.112c0 .177.047.322.14.434.103.103.266.154.49.154.28 0 .542-.042.784-.126.252-.093.472-.219.658-.378a1.77 1.77 0 0 0 .434-.588c.112-.224.168-.471.168-.742 0-.289-.079-.513-.238-.672-.158-.159-.471-.238-.938-.238-.382 0-.751.075-1.106.224l-.364 1.694zm.56-2.604a4.56 4.56 0 0 1 .63-.126c.262-.037.5-.056.714-.056.682 0 1.162.14 1.442.42.28.271.42.63.42 1.078 0 .485-.102.915-.308 1.288a2.974 2.974 0 0 1-.784.952 3.415 3.415 0 0 1-1.078.574 3.9 3.9 0 0 1-1.218.196c-.513 0-.891-.107-1.134-.322-.233-.215-.35-.504-.35-.868 0-.177.019-.341.056-.49l1.218-5.404h1.05l-.658 2.758zm5.194-2.758h1.05l-1.484 7h-1.05l1.484-7zm4.224 0l-.98 4.662a3.24 3.24 0 0 0-.084.7c0 .261.051.481.154.658.102.168.289.252.56.252.224 0 .448-.056.672-.168.233-.112.452-.257.658-.434.214-.177.406-.373.574-.588.177-.215.322-.425.434-.63l.938-4.452h1.05l-.882 4.158a7.99 7.99 0 0 0-.112.588 32.66 32.66 0 0 0-.112.714c-.028.252-.052.499-.07.742a7.677 7.677 0 0 0-.028.616V294h-.826v-1.33h-.056a4.39 4.39 0 0 1-.49.546 3.421 3.421 0 0 1-.602.476c-.215.14-.448.252-.7.336-.252.093-.518.14-.798.14a2.23 2.23 0 0 1-.574-.07 1.154 1.154 0 0 1-.448-.238 1.237 1.237 0 0 1-.308-.462 2.096 2.096 0 0 1-.112-.742c0-.327.046-.695.14-1.106l.952-4.55h1.05zm.798-2.828c0 .439.088.742.266.91.186.159.42.238.7.238.289 0 .56-.089.812-.266.261-.177.471-.467.63-.868l.756.266c-.187.541-.504.957-.952 1.246a2.57 2.57 0 0 1-1.442.434c-.234 0-.458-.028-.672-.084a1.562 1.562 0 0 1-.546-.266 1.296 1.296 0 0 1-.378-.462 1.57 1.57 0 0 1-.14-.686v-.126l.966-.336zm-87.465 20.678h-.756l-.658 3.15h-1.05l1.484-7h1.05l-.672 3.164.574-.182L349.53 301h1.26l-2.562 2.814-.644.462.56.56 1.568 3.164h-1.176l-1.582-3.15zm3.885.966c0-.737.093-1.409.28-2.016a5.142 5.142 0 0 1 .798-1.582 3.747 3.747 0 0 1 1.162-1.022 2.95 2.95 0 0 1 1.428-.364c.392 0 .723.065.994.196.28.121.504.294.672.518.177.215.303.467.378.756.074.28.112.574.112.882 0 .7-.094 1.353-.28 1.96a5.103 5.103 0 0 1-.756 1.582 3.79 3.79 0 0 1-1.12 1.064c-.43.252-.896.378-1.4.378-.42 0-.775-.065-1.064-.196a2.14 2.14 0 0 1-.7-.546 2.234 2.234 0 0 1-.392-.756 3.288 3.288 0 0 1-.112-.854zm1.12-.252c0 .551.102.975.308 1.274.205.289.532.434.98.434.308 0 .597-.107.868-.322.28-.224.522-.523.728-.896.214-.373.382-.798.504-1.274.13-.485.196-.989.196-1.512 0-.476-.089-.849-.266-1.12-.168-.28-.495-.42-.98-.42-.308 0-.602.107-.882.322-.28.205-.532.485-.756.84a4.905 4.905 0 0 0-.518 1.232 5.57 5.57 0 0 0-.182 1.442zm6.118-1.554c.234-1.045.635-1.825 1.204-2.338.57-.513 1.274-.77 2.114-.77.355 0 .649.033.882.098.234.065.42.159.56.28.14.112.238.247.294.406.056.159.084.336.084.532 0 .495-.163.924-.49 1.288-.317.364-.742.621-1.274.77l-.028.056c.448.019.789.131 1.022.336.243.205.364.481.364.826 0 .429-.088.807-.266 1.134a2.487 2.487 0 0 1-.686.812c-.289.215-.62.378-.994.49-.373.112-.76.168-1.162.168a2.97 2.97 0 0 1-.77-.098 1.63 1.63 0 0 1-.616-.322 1.72 1.72 0 0 1-.406-.63 3.083 3.083 0 0 1-.14-.994c0-.14.005-.271.014-.392.01-.121.024-.257.042-.406l.098-.518c.038-.205.089-.448.154-.728zm.84.882a28.94 28.94 0 0 0-.112.644 4.382 4.382 0 0 0-.028.462c0 .803.374 1.204 1.12 1.204.243 0 .472-.033.686-.098.224-.065.42-.163.588-.294a1.47 1.47 0 0 0 .392-.504c.103-.196.154-.429.154-.7a.692.692 0 0 0-.308-.588c-.196-.149-.532-.224-1.008-.224h-.112c-.037 0-.107.005-.21.014a9.183 9.183 0 0 1-.42.028c-.186.009-.434.028-.742.056zm1.428-.938c.14-.009.313-.047.518-.112.206-.065.402-.154.588-.266.196-.121.36-.266.49-.434a.928.928 0 0 0 .196-.588c0-.252-.065-.439-.196-.56-.13-.131-.382-.196-.756-.196-.532 0-.961.168-1.288.504-.326.336-.569.817-.728 1.442l-.084.336 1.26-.126zm5.167-2.954h.728l-.07 1.204h.056c.131-.168.275-.331.434-.49.168-.168.35-.317.546-.448.196-.131.411-.233.644-.308.233-.084.485-.126.756-.126.224 0 .434.037.63.112.196.065.369.182.518.35.149.159.266.373.35.644.093.271.14.602.14.994 0 .821-.112 1.559-.336 2.212-.224.644-.518 1.19-.882 1.638a4.022 4.022 0 0 1-1.232 1.036 2.89 2.89 0 0 1-1.344.35c-.327 0-.616-.033-.868-.098-.243-.056-.406-.117-.49-.182l-.616 2.912h-1.05l2.086-9.8zm2.702.728c-.252 0-.495.065-.728.196a3.112 3.112 0 0 0-.63.49 4.006 4.006 0 0 0-.504.616 4.925 4.925 0 0 0-.364.602l-.686 3.318c.159.121.322.205.49.252.168.047.35.07.546.07.364 0 .709-.098 1.036-.294a3.03 3.03 0 0 0 .896-.868c.261-.373.467-.821.616-1.344a6.003 6.003 0 0 0 .238-1.75c0-.373-.079-.681-.238-.924-.149-.243-.373-.364-.672-.364zm5.373-.728l-.98 4.662a3.24 3.24 0 0 0-.084.7c0 .261.052.481.154.658.103.168.29.252.56.252.224 0 .448-.056.672-.168.234-.112.453-.257.658-.434.215-.177.406-.373.574-.588.178-.215.322-.425.434-.63l.938-4.452h1.05l-.882 4.158a9.21 9.21 0 0 0-.112.588c-.037.224-.074.462-.112.714-.028.252-.051.499-.07.742a8.174 8.174 0 0 0-.028.616V308h-.826v-1.33h-.056c-.14.187-.303.369-.49.546a3.385 3.385 0 0 1-.602.476c-.214.14-.448.252-.7.336-.252.093-.518.14-.798.14a2.24 2.24 0 0 1-.574-.07 1.161 1.161 0 0 1-.448-.238 1.262 1.262 0 0 1-.308-.462 2.12 2.12 0 0 1-.112-.742c0-.327.047-.695.14-1.106l.952-4.55h1.05zm7.123 3.85h-.756l-.658 3.15h-1.05l1.484-7h1.05l-.672 3.164.574-.182 2.604-2.982h1.26l-2.562 2.814-.644.462.56.56 1.568 3.164h-1.176l-1.582-3.15zM29.966 255.01c.233-1.045.635-1.825 1.204-2.338.57-.513 1.274-.77 2.114-.77.355 0 .649.033.882.098.233.065.42.159.56.28.14.112.238.247.294.406.056.159.084.336.084.532 0 .495-.163.924-.49 1.288-.317.364-.742.621-1.274.77l-.028.056c.448.019.789.131 1.022.336.243.205.364.481.364.826 0 .429-.089.807-.266 1.134a2.496 2.496 0 0 1-.686.812c-.29.215-.62.378-.994.49-.373.112-.76.168-1.162.168a2.97 2.97 0 0 1-.77-.098 1.623 1.623 0 0 1-.616-.322 1.716 1.716 0 0 1-.406-.63 3.083 3.083 0 0 1-.14-.994c0-.14.005-.271.014-.392.01-.121.023-.257.042-.406l.098-.518c.037-.205.089-.448.154-.728zm.84.882a24.08 24.08 0 0 0-.112.644 4.201 4.201 0 0 0-.028.462c0 .803.373 1.204 1.12 1.204.243 0 .471-.033.686-.098.224-.065.42-.163.588-.294a1.47 1.47 0 0 0 .392-.504c.103-.196.154-.429.154-.7a.694.694 0 0 0-.308-.588c-.196-.149-.532-.224-1.008-.224h-.112c-.037 0-.107.005-.21.014a9.245 9.245 0 0 1-.42.028c-.187.009-.434.028-.742.056zm1.428-.938c.14-.009.313-.047.518-.112a2.76 2.76 0 0 0 .588-.266c.196-.121.36-.266.49-.434a.93.93 0 0 0 .196-.588c0-.252-.065-.439-.196-.56-.13-.131-.383-.196-.756-.196-.532 0-.961.168-1.288.504-.327.336-.57.817-.728 1.442l-.084.336 1.26-.126zm5.993.462L36.729 252h1.19l.826 1.932.252.798.574-.798L41.265 252h1.274l-2.968 3.36 1.666 3.64h-1.19l-.952-2.128-.28-.84-.588.84L36.35 259h-1.274l3.15-3.584zm4.284 1.4c0-.737.093-1.409.28-2.016a5.142 5.142 0 0 1 .798-1.582 3.752 3.752 0 0 1 1.162-1.022 2.95 2.95 0 0 1 1.428-.364c.392 0 .723.065.993.196.28.121.505.294.672.518.178.215.304.467.378.756.075.28.112.574.112.882 0 .7-.093 1.353-.28 1.96a5.072 5.072 0 0 1-.756 1.582c-.317.448-.69.803-1.12 1.064a2.714 2.714 0 0 1-1.4.378c-.42 0-.774-.065-1.063-.196a2.148 2.148 0 0 1-.7-.546 2.246 2.246 0 0 1-.392-.756 3.305 3.305 0 0 1-.112-.854zm1.12-.252c0 .551.102.975.307 1.274.206.289.532.434.98.434.309 0 .598-.107.868-.322.28-.224.523-.523.728-.896a5.05 5.05 0 0 0 .505-1.274c.13-.485.196-.989.196-1.512 0-.476-.09-.849-.267-1.12-.167-.28-.494-.42-.98-.42-.308 0-.602.107-.882.322a3 3 0 0 0-.755.84 4.946 4.946 0 0 0-.519 1.232 5.6 5.6 0 0 0-.181 1.442zm9.422-4.634c.318 0 .565.033.742.098.187.056.346.131.476.224h.07c-.047-.709-.308-1.274-.784-1.694-.467-.42-1.106-.63-1.918-.63l.196-.896c.681 0 1.25.103 1.708.308.458.205.826.485 1.106.84.28.355.476.77.588 1.246.121.476.182.985.182 1.526 0 .98-.098 1.857-.294 2.632-.187.765-.448 1.414-.784 1.946s-.733.938-1.19 1.218c-.448.28-.933.42-1.456.42-.756 0-1.311-.233-1.666-.7-.355-.467-.532-1.111-.532-1.932 0-.588.08-1.157.238-1.708a4.998 4.998 0 0 1 .714-1.47 3.698 3.698 0 0 1 1.12-1.036 2.847 2.847 0 0 1 1.484-.392zm-.084.896c-.299 0-.588.093-.868.28-.28.187-.532.448-.756.784a4.739 4.739 0 0 0-.532 1.218 5.7 5.7 0 0 0-.196 1.54c0 .457.094.845.28 1.162.187.308.49.462.91.462.457 0 .845-.163 1.162-.49.317-.327.574-.733.77-1.218a7.162 7.162 0 0 0 .42-1.596c.093-.579.14-1.115.14-1.61a1.417 1.417 0 0 0-.546-.406c-.196-.084-.457-.126-.784-.126zm7.968 3.094h-3.024l-.658 3.08h-1.05l1.484-7h1.05l-.616 2.912h3.024l.616-2.912h1.05l-1.484 7h-1.05l.658-3.08zm2.779.896c0-.737.093-1.409.28-2.016a5.142 5.142 0 0 1 .798-1.582 3.752 3.752 0 0 1 1.162-1.022 2.95 2.95 0 0 1 1.428-.364c.392 0 .723.065.994.196.28.121.504.294.672.518.177.215.303.467.378.756.074.28.112.574.112.882 0 .7-.094 1.353-.28 1.96a5.072 5.072 0 0 1-.756 1.582 3.79 3.79 0 0 1-1.12 1.064c-.43.252-.896.378-1.4.378-.42 0-.775-.065-1.064-.196a2.148 2.148 0 0 1-.7-.546 2.246 2.246 0 0 1-.392-.756 3.305 3.305 0 0 1-.112-.854zm1.12-.252c0 .551.102.975.308 1.274.205.289.532.434.98.434.308 0 .597-.107.868-.322.28-.224.522-.523.728-.896.214-.373.382-.798.504-1.274.13-.485.196-.989.196-1.512 0-.476-.089-.849-.266-1.12-.168-.28-.495-.42-.98-.42-.308 0-.602.107-.882.322-.28.205-.532.485-.756.84a4.946 4.946 0 0 0-.518 1.232 5.6 5.6 0 0 0-.182 1.442zM72.97 252l-.98 4.662a3.24 3.24 0 0 0-.084.7c0 .261.052.481.154.658.103.168.29.252.56.252.224 0 .448-.056.672-.168.234-.112.453-.257.658-.434a3.77 3.77 0 0 0 .574-.588c.178-.215.322-.425.434-.63l.938-4.452h1.05l-.882 4.158a8.496 8.496 0 0 0-.112.588c-.037.224-.074.462-.112.714-.028.252-.051.499-.07.742a7.82 7.82 0 0 0-.028.616V259h-.826v-1.33h-.056c-.14.187-.303.369-.49.546a3.4 3.4 0 0 1-.602.476c-.214.14-.448.252-.7.336-.252.093-.518.14-.798.14a2.24 2.24 0 0 1-.574-.07 1.159 1.159 0 0 1-.448-.238 1.248 1.248 0 0 1-.308-.462 2.103 2.103 0 0 1-.112-.742c0-.327.047-.695.14-1.106l.952-4.55h1.05zm.798-2.828c0 .439.089.742.266.91.187.159.42.238.7.238.29 0 .56-.089.812-.266.262-.177.472-.467.63-.868l.756.266c-.186.541-.504.957-.952 1.246-.438.289-.92.434-1.442.434a2.65 2.65 0 0 1-.672-.084 1.572 1.572 0 0 1-.546-.266 1.302 1.302 0 0 1-.378-.462 1.58 1.58 0 0 1-.14-.686v-.126l.966-.336zm-43.032 19.866h2.786a2.876 2.876 0 0 0 .056-.602c0-.588-.117-1.017-.35-1.288-.233-.28-.565-.42-.994-.42-.43 0-.789.051-1.078.154-.28.093-.513.196-.7.308l-.28-.728a3.72 3.72 0 0 1 1.036-.462 4.527 4.527 0 0 1 1.274-.168c.383 0 .71.056.98.168.28.112.509.271.686.476.187.196.322.429.406.7a2.7 2.7 0 0 1 .14.882c0 .952-.107 1.755-.322 2.408-.215.653-.5 1.181-.854 1.582a3.18 3.18 0 0 1-1.218.854 3.705 3.705 0 0 1-1.372.266c-.943 0-1.629-.145-2.058-.434l.462-.854c.177.121.41.219.7.294.299.065.593.098.882.098.644 0 1.18-.201 1.61-.602.439-.401.747-.994.924-1.778h-2.898l.182-.854zm9.63-2.142H38.49a78.447 78.447 0 0 1-.686 2.646c-.215.765-.448 1.409-.7 1.932-.243.513-.514.905-.812 1.176a1.548 1.548 0 0 1-1.078.406c-.16 0-.3-.009-.42-.028a.937.937 0 0 1-.322-.098l.322-.896c.112.028.219.042.322.042a.876.876 0 0 0 .574-.224c.186-.149.378-.443.574-.882.196-.439.406-1.055.63-1.848a65.44 65.44 0 0 0 .812-3.122h3.892l-1.484 7h-1.05l1.302-6.104zm6.877 5.418c-.327.28-.714.495-1.162.644a4.35 4.35 0 0 1-1.33.21c-.747 0-1.311-.215-1.694-.644-.373-.429-.56-1.027-.56-1.792 0-.765.107-1.451.322-2.058.214-.607.494-1.12.84-1.54.355-.42.751-.742 1.19-.966a3.036 3.036 0 0 1 1.372-.336c.336 0 .625.047.868.14.252.093.457.219.616.378.159.149.275.327.35.532.075.196.112.406.112.63 0 .663-.322 1.185-.966 1.568-.644.373-1.582.56-2.814.56h-.35l-.378-.028a5.582 5.582 0 0 0-.084.504 3.647 3.647 0 0 0-.028.42c0 .513.117.933.35 1.26.233.317.597.476 1.092.476.41 0 .784-.065 1.12-.196.345-.14.611-.285.798-.434l.336.672zm-1.19-5.586c-.514 0-.961.177-1.344.532-.373.345-.658.868-.854 1.568.355 0 .723-.009 1.106-.028a5.563 5.563 0 0 0 1.036-.14 2.05 2.05 0 0 0 .784-.378c.205-.177.308-.42.308-.728a.75.75 0 0 0-.056-.28.59.59 0 0 0-.154-.266.731.731 0 0 0-.322-.196 1.29 1.29 0 0 0-.504-.084zm5.178 3.122h-.756l-.658 3.15h-1.05l1.484-7h1.05l-.672 3.164.574-.182L53.807 266h1.26l-2.562 2.814-.644.462.56.56L53.99 273h-1.176l-1.582-3.15zm7.81 3.15l.84-3.962c.075-.327.131-.616.169-.868.037-.252.056-.471.056-.658 0-.252-.047-.443-.14-.574-.094-.14-.252-.21-.477-.21-.233 0-.461.061-.685.182a2.928 2.928 0 0 0-.63.462 5.292 5.292 0 0 0-.547.574 4.522 4.522 0 0 0-.378.56L56.325 273h-1.05l1.485-7h.742l-.085 1.204h.056c.15-.149.309-.303.477-.462a3.81 3.81 0 0 1 .573-.448c.215-.131.444-.238.686-.322.252-.093.528-.14.826-.14.42 0 .7.131.84.392.15.261.224.625.224 1.092.14-.177.304-.355.49-.532a4.24 4.24 0 0 1 .602-.476 3.46 3.46 0 0 1 .7-.336c.243-.093.486-.14.729-.14.429 0 .756.103.98.308.233.196.35.565.35 1.106 0 .392-.07.91-.21 1.554l-.882 4.2h-1.05l.882-4.214c.056-.271.098-.513.126-.728.037-.215.055-.401.055-.56 0-.252-.05-.443-.154-.574-.102-.131-.275-.196-.517-.196-.197 0-.407.065-.63.196a3.469 3.469 0 0 0-.63.462 4.867 4.867 0 0 0-.56.602 4.15 4.15 0 0 0-.379.602l-.91 4.41h-1.05zm8.424-7h.728l-.07 1.204h.056c.13-.168.276-.331.434-.49.168-.168.35-.317.546-.448a2.55 2.55 0 0 1 .644-.308c.234-.084.486-.126.756-.126.224 0 .434.037.63.112.196.065.369.182.518.35.15.159.266.373.35.644.094.271.14.602.14.994 0 .821-.112 1.559-.336 2.212-.224.644-.518 1.19-.882 1.638a4.018 4.018 0 0 1-1.232 1.036 2.89 2.89 0 0 1-1.344.35c-.326 0-.616-.033-.868-.098-.242-.056-.406-.117-.49-.182l-.616 2.912h-1.05l2.086-9.8zm2.702.728c-.252 0-.494.065-.728.196a3.112 3.112 0 0 0-.63.49 4.053 4.053 0 0 0-.504.616c-.15.215-.27.415-.364.602l-.686 3.318c.159.121.322.205.49.252.168.047.35.07.546.07.364 0 .71-.098 1.036-.294a3.03 3.03 0 0 0 .896-.868c.262-.373.467-.821.616-1.344a6.013 6.013 0 0 0 .238-1.75c0-.373-.08-.681-.238-.924-.15-.243-.373-.364-.672-.364zm3.092 4.088c0-.737.093-1.409.28-2.016a5.142 5.142 0 0 1 .798-1.582 3.75 3.75 0 0 1 1.162-1.022 2.95 2.95 0 0 1 1.428-.364c.392 0 .723.065.994.196.28.121.504.294.672.518.177.215.303.467.378.756.074.28.112.574.112.882 0 .7-.094 1.353-.28 1.96a5.072 5.072 0 0 1-.756 1.582 3.79 3.79 0 0 1-1.12 1.064c-.43.252-.896.378-1.4.378-.42 0-.775-.065-1.064-.196a2.148 2.148 0 0 1-.7-.546 2.246 2.246 0 0 1-.392-.756 3.3 3.3 0 0 1-.112-.854zm1.12-.252c0 .551.102.975.308 1.274.205.289.532.434.98.434.308 0 .597-.107.868-.322.28-.224.522-.523.728-.896.214-.373.382-.798.504-1.274.13-.485.196-.989.196-1.512 0-.476-.09-.849-.266-1.12-.168-.28-.495-.42-.98-.42-.308 0-.602.107-.882.322-.28.205-.532.485-.756.84a4.942 4.942 0 0 0-.518 1.232 5.6 5.6 0 0 0-.182 1.442zm9.422-4.634c.318 0 .565.033.742.098.187.056.346.131.476.224h.07c-.046-.709-.308-1.274-.784-1.694-.466-.42-1.106-.63-1.918-.63l.196-.896c.682 0 1.25.103 1.708.308.458.205.826.485 1.106.84.28.355.476.77.588 1.246.122.476.182.985.182 1.526 0 .98-.098 1.857-.294 2.632-.186.765-.448 1.414-.784 1.946s-.732.938-1.19 1.218c-.448.28-.933.42-1.456.42-.756 0-1.311-.233-1.666-.7-.354-.467-.532-1.111-.532-1.932 0-.588.08-1.157.238-1.708a4.998 4.998 0 0 1 .714-1.47 3.698 3.698 0 0 1 1.12-1.036 2.847 2.847 0 0 1 1.484-.392zm-.084.896c-.298 0-.588.093-.868.28-.28.187-.532.448-.756.784a4.739 4.739 0 0 0-.532 1.218 5.7 5.7 0 0 0-.196 1.54c0 .457.094.845.28 1.162.187.308.49.462.91.462.458 0 .845-.163 1.162-.49.318-.327.574-.733.77-1.218a7.162 7.162 0 0 0 .42-1.596c.094-.579.14-1.115.14-1.61a1.417 1.417 0 0 0-.546-.406c-.196-.084-.457-.126-.784-.126z" fill="#fff"/></svg>