<svg width="409" height="410" viewBox="0 0 409 410" fill="none" xmlns="http://www.w3.org/2000/svg">
<mask id="path-1-inside-1" fill="white">
<path fill-rule="evenodd" clip-rule="evenodd" d="M279.456 137.678C273.076 132.084 263.899 132.212 258.634 133.837C262.084 129.602 270.116 126.129 272.484 125.708C274.287 126.384 279.455 131.696 279.455 137.677L279.456 137.678ZM299.828 114.515C295.632 92.0692 243.468 106.941 217.198 97.4073C216.694 103.95 225.285 114.435 233.503 118.315C219.456 130.505 206.845 155.066 204.301 185.072C201.764 155.066 189.153 130.505 175.107 118.315C183.324 114.435 191.922 103.95 191.412 97.4073C165.142 106.941 112.977 92.0692 108.774 114.515C107.89 119.265 110.175 126.505 112.645 128.585C113.086 127.08 115.393 122.155 122.664 121.051C159.415 115.499 190.099 172.14 162.402 195.041C161.98 195.389 162.217 196.032 162.789 196.032H245.826C246.391 196.032 246.63 195.389 246.215 195.041C218.51 172.14 249.194 115.499 285.945 121.051C293.223 122.155 295.521 127.08 295.964 128.585C298.433 126.505 300.719 119.265 299.828 114.514V114.515ZM308.766 62.9981C308.106 60.8776 329.655 60.8246 329.655 74.3116C329.655 83.3512 316.766 87.6325 316.766 97.0128C316.766 101.382 321.466 104.586 322.908 104.586C319.588 89.5261 333.315 97.4073 337.022 100.224C329.656 79.9713 346.239 80.0991 344.607 70.8128C343.471 64.3228 329.057 66.2835 323.84 62.9981C314.583 57.171 303.632 34.4967 296.414 57.171C309.869 69.6627 302.04 88.0474 284.96 88.0474C284.96 88.0474 284.864 90.7433 285.021 90.9575C305.393 89.9602 312.494 74.988 308.767 62.9981H308.766ZM71.091 100.224C74.7989 97.4073 88.5245 89.5261 85.2129 104.586C86.6475 104.586 91.3476 101.382 91.3476 97.0128C91.3476 87.6325 78.4576 83.3512 78.4576 74.3116C78.4576 60.8239 100.007 60.8776 99.3463 62.9981C95.6257 74.9874 102.728 89.9608 123.099 90.9575C123.249 90.7433 123.153 88.0474 123.153 88.0474C106.081 88.0474 98.2512 69.6615 111.699 57.171C104.482 34.4967 93.5307 57.171 84.2738 62.9981C79.0572 66.2841 64.6432 64.3228 63.5071 70.8128C61.8808 80.0991 78.4569 79.9719 71.0904 100.224H71.091ZM128.935 137.677C135.322 132.084 144.498 132.211 149.757 133.837C146.321 129.601 138.275 126.129 135.914 125.707C134.112 126.383 128.936 131.696 128.936 137.677L128.935 137.677ZM213.994 12.1165L204.056 0L194.119 12.1165L204.057 24.8684L213.995 12.1165H213.994ZM270.723 48.7541L263.655 40.1429L256.595 48.7541L263.655 57.1704L270.723 48.7535V48.7541ZM328.043 297.653L319.085 288.172L310.126 297.653L319.085 305.968L328.043 297.651V297.653ZM151.525 48.7529L144.457 40.1416L137.396 48.7529L144.457 57.1697L151.524 48.7529H151.525ZM131.281 90.9562H157.639C179.8 90.9562 189.772 77.3547 192.785 65.5591H215.334C218.348 77.3553 228.311 90.9568 250.48 90.9568H276.838C276.838 90.9568 281.449 84.7014 282.604 81.604C286.768 70.4574 281.449 65.2587 273.688 65.2587L263.655 74.3513L253.622 65.2587C245.861 65.2587 240.542 70.4574 244.705 81.604C245.235 83.0296 246.508 85.1227 247.711 86.9625C238.358 85.6776 226.42 79.2757 223.801 65.5591C223.801 65.5591 230.712 54.5806 232.447 50.1382C238.678 34.1623 230.72 27.6314 219.081 27.6314L204.056 45.2949L189.031 27.6314C177.393 27.6314 169.434 34.1617 175.672 50.1382C177.4 54.5813 184.318 65.5598 184.318 65.5598C181.692 79.2764 169.755 85.6782 160.402 86.9632C161.613 85.1233 162.878 83.0296 163.408 81.6047C167.564 70.458 162.259 65.2593 154.49 65.2593L144.458 74.3519L134.425 65.2593C126.658 65.2593 121.352 70.458 125.509 81.6047C126.664 84.702 131.283 90.9575 131.283 90.9575L131.281 90.9562ZM403.789 172.661C398.701 175.237 368.854 189.219 330.62 184.048C331.016 182.224 331.352 180.387 331.627 178.541C357.073 175.497 377.758 171.182 390.94 163.849C405.966 155.486 412.537 135.522 404.952 120.669C404.756 120.294 404.212 120.228 403.94 120.541C399.784 125.326 373.65 153.754 332.478 162.591C332.373 160.459 332.177 158.332 331.893 156.215C351.89 144.874 371.413 131.807 380.711 119.859C394.765 101.794 393.471 78.7528 380.099 67.0039C379.96 66.8848 379.777 66.8313 379.596 66.857C379.415 66.8827 379.253 66.9852 379.153 67.1382C374.923 74.116 335.322 138.124 291.843 165.755C291.313 166.094 290.778 166.427 290.239 166.752C288.993 167.509 288.858 169.127 289.919 170.091C294.931 174.633 298.047 180.956 298.047 187.975C298.047 200.178 288.64 210.327 276.206 212.528C269.886 213.752 260.764 213.397 252.004 210.501C251.609 210.374 251.201 210.634 251.201 211.029V249.681C251.201 250.302 252.147 250.456 252.371 249.86C257.696 235.751 273.64 232.753 280.613 232.753C283.123 247.833 287.605 260.325 293.428 267.048C302.908 277.974 318.391 277.82 325.104 270.267C325.215 270.142 325.263 269.973 325.233 269.808C325.204 269.644 325.101 269.502 324.954 269.423C321.01 267.156 298.44 253.3 293.923 230.592C295.707 229.977 297.447 229.281 299.114 228.457C306.399 240.514 317.003 251.252 325.539 255.353C339.878 262.232 353.006 258.886 358.828 248.817C359.039 248.462 358.781 248.021 358.352 247.981C349.482 247.271 322.261 239.47 310.67 220.463C311.997 219.244 313.296 217.973 314.507 216.622C326.634 225.855 343.783 234.017 356.061 235.683C370.426 237.637 386.703 233.054 387.098 216.348C387.105 216.013 386.805 215.738 386.453 215.76C381.343 216.066 347.531 217.539 323.438 203.709C324.275 202.118 325.055 200.498 325.778 198.852C325.778 198.852 362.183 207.456 379.432 204.605C396.573 201.776 406.613 188.997 404.674 173.101C404.62 172.705 404.158 172.471 403.79 172.659L403.789 172.661ZM82.3342 198.854C83.0588 200.5 83.8414 202.12 84.6804 203.711C60.5952 217.534 26.7959 216.075 21.6676 215.761C21.307 215.74 21.0078 216.028 21.0142 216.356C21.417 233.056 37.6869 237.638 52.0517 235.685C64.3235 234.019 81.4782 225.856 93.6055 216.624C94.8234 217.975 96.116 219.246 97.4413 220.464C85.8446 239.47 58.63 247.272 49.7599 247.982C49.3315 248.021 49.0797 248.463 49.2842 248.818C55.1069 258.887 68.2347 262.232 82.5803 255.354C91.1104 251.253 101.714 240.515 109 228.459C110.672 229.281 112.413 229.977 114.189 230.593C109.672 253.301 87.1033 267.157 83.1576 269.423C83.0119 269.504 82.9104 269.646 82.8814 269.81C82.8523 269.973 82.8989 270.142 83.008 270.267C89.7218 277.821 105.211 277.975 114.691 267.049C120.515 260.325 124.99 247.834 127.5 232.754C134.478 232.754 150.415 235.752 155.741 249.861C155.973 250.457 156.918 250.302 156.918 249.681V211.029C156.918 210.635 156.503 210.374 156.109 210.501C147.348 213.397 138.227 213.753 131.914 212.528C119.474 210.328 110.067 200.178 110.067 187.975C110.067 180.955 113.188 174.626 118.195 170.084C119.262 169.127 119.12 167.507 117.881 166.752C117.338 166.426 116.798 166.094 116.263 165.754C72.8113 138.137 33.2304 74.1761 28.9657 67.1503C28.7675 66.8224 28.2919 66.7559 27.9991 67.0097C14.6469 78.7649 13.3478 101.8 27.4007 119.858C36.6992 131.806 56.2199 144.873 76.2117 156.214C75.9297 158.33 75.7369 160.457 75.6338 162.589C34.4955 153.758 8.38249 125.376 4.18555 120.56C3.90682 120.232 3.34808 120.299 3.15821 120.674C-4.41097 135.533 2.159 155.484 17.1714 163.847C30.3536 171.18 51.0384 175.495 76.4847 178.539C76.7596 180.385 77.0952 182.222 77.491 184.046C39.2979 189.211 9.46416 175.262 4.33578 172.665C3.95477 172.471 3.49192 172.712 3.44461 173.114C1.51396 189.01 11.5457 201.776 28.687 204.605C45.9299 207.456 82.3342 198.852 82.3342 198.852V198.854ZM319.084 318.178L305.82 307.741C300.528 310.893 296.637 315.898 295.127 321.765C287.149 322.883 265.395 318.052 267.51 314.848C291.352 281.315 273.115 261.35 251.2 262.461V284.982C251.2 292.214 244.888 298.074 237.113 298.074H221.979C211.123 298.074 204.056 308.987 204.056 308.987C204.056 308.987 196.99 298.074 186.133 298.074H170.999C163.218 298.074 156.919 292.214 156.919 284.982V262.462C135.003 261.352 116.753 281.316 140.602 314.849C142.697 318.02 120.338 323.098 109.85 321.813C107.088 318.949 103.102 317.143 98.6393 317.143C96.7424 317.144 94.8607 317.481 93.0819 318.14C93.0819 318.14 51.8695 279.121 51.1145 278.74L51.4546 277.95C53.8008 273.562 50.2099 268.778 47.9385 269.113C50.5769 265.948 50.7003 252.092 36.0618 248.887C36.4901 251.67 36.7075 257.351 36.7075 257.351C36.7075 257.351 25.41 251.242 19.7369 256.514C14.7517 262.416 21.6695 273.12 21.6695 273.12C21.6695 273.12 15.8877 273.26 13.0378 273.019C17.2283 287.19 31.2812 286.186 34.3217 283.39C34.1235 285.645 39.2058 288.856 43.5108 286.28L45.4018 285.363C45.7355 285.811 85.874 323.734 85.874 323.734C84.0303 326.47 83.1531 329.829 83.7579 333.408C84.7105 339.002 89.3709 343.638 95.3227 344.842C99.5253 345.686 103.477 344.869 106.647 343.015L117.272 352.878C118.218 353.734 119.497 354.269 120.924 354.169C123.523 353.994 125.468 351.887 125.271 349.472C125.19 348.381 124.632 347.446 123.863 346.736C123.693 346.548 113.041 336.659 113.041 336.659C121.828 330.497 138.201 326.156 151.791 326.156C154.179 326.156 155.301 324.136 154.478 322.154C148.322 307.348 161.559 296.624 175.251 305.355C181.224 309.162 187.291 316.662 191.862 329.173C169.395 334.613 141.188 349.598 135.481 365.957C133.284 372.274 140.542 380.884 149.357 382.617C149.513 382.652 149.676 382.622 149.81 382.535C149.944 382.449 150.038 382.312 150.071 382.155C154.676 357.734 180.938 339.536 194.604 336.445C195.291 338.284 195.066 337.689 195.753 339.522C180.87 346.561 166.437 361.407 162.314 379.056C160.423 387.138 169.436 394.424 176.877 396.419C177.251 396.519 177.619 396.258 177.639 395.897C179.054 373.577 188.91 354.623 197.739 345.999C197.981 347.684 198.162 349.378 198.283 351.077C198.283 351.077 189.244 376.267 189.244 394.646C189.244 403.195 201.95 409.164 203.827 410C206.174 409.164 218.873 403.195 218.873 394.646C218.873 376.266 209.833 351.077 209.833 351.077C209.957 349.378 210.141 347.684 210.385 345.999C219.207 354.623 229.069 373.57 230.477 395.889C230.498 396.251 230.872 396.519 231.238 396.418C238.687 394.425 247.693 387.139 245.809 379.057C241.679 361.408 227.253 346.562 212.37 339.523C213.05 337.69 212.825 338.285 213.513 336.445C227.185 339.536 253.441 357.734 258.045 382.154C258.079 382.311 258.173 382.447 258.307 382.534C258.441 382.621 258.604 382.65 258.76 382.617C267.568 380.884 274.84 372.273 272.629 365.958C266.936 349.599 238.721 334.614 216.254 329.173C220.832 316.662 226.899 309.162 232.871 305.355C246.557 296.625 259.793 307.35 253.638 322.156C252.814 324.136 253.93 326.156 256.324 326.156C271.696 326.156 290.633 331.709 298.128 339.156C302.917 346.341 311.766 350.938 321.752 349.953C333.097 348.844 342.349 340.319 343.627 329.783C344.743 320.549 339.968 312.26 332.357 307.744L319.085 318.181L319.084 318.178ZM221.319 250.919C226.046 249.167 233.454 250.585 233.202 257.409C233.141 258.954 235.312 258.954 235.468 257.375C236.882 247.159 229.978 244.214 222.755 245.412C221.857 241.899 221.123 238.829 220.286 235.785C219.62 233.323 219.374 228.699 222.225 228.699C223.762 228.699 223.143 233.002 223.001 234.854C222.871 236.48 223.456 237.464 224.776 237.511C225.6 237.544 226.627 236.494 227.239 235.797C231.375 231.121 232.334 223.882 227.491 220.391C223.438 217.459 213.288 219.641 210.498 223.815C210.078 222.243 208.064 219.647 207.097 218.516C206.159 217.413 205.915 216.656 207.214 215.687C207.826 215.218 209.676 213.379 209.676 211.478C209.676 210.354 208.805 208.28 206.037 208.28C203.854 208.28 201.426 209.792 201.426 213.164C201.426 213.914 201.609 214.718 202.092 215.581C200.711 215.352 196.963 215.446 195.038 215.921L221.655 288.961C229.273 285.201 234.857 279.247 234.857 272.858C234.857 267.411 226.837 269.218 222.94 273.466C221.688 266.562 220.572 260.186 219.355 253.829C219.023 252.076 219.913 251.448 221.321 250.919L221.319 250.919ZM183.684 201.303L189.275 216.838C184.487 217.976 176.787 221.468 176.787 226.09C176.787 232.247 187.677 236.254 193.976 235.772C193.663 237.177 194.024 238.428 195.003 239.572C192.718 239.572 188.406 240.636 186.99 242.161C183.651 239.05 178.426 237.919 175.943 239.813C173.448 241.72 173.374 244.951 175.978 248.604C177.794 251.133 178.474 253.629 176.434 256.559C184.025 256.559 181.228 246.691 184.201 246.691C183.814 248.604 184.052 250.819 184.916 253.274C185.487 254.906 185.487 256.064 184.508 257.636C182.06 261.551 178.251 270.542 178.767 278.671C176.278 278.657 175.013 278.048 175.89 274.65C176.216 273.384 175.435 272.482 174.401 274.041C173.258 275.761 172.707 278.698 172.707 279.954C172.707 287.194 181.331 288.653 184.623 287.121C194.147 296.336 212.852 293.878 219.117 290.787L186.182 200.419C185.508 198.713 183.094 199.529 183.685 201.302L183.684 201.303ZM182.541 275.741C181.861 272.02 187.037 265.37 193.622 258.954C192.22 263.135 193.091 270.341 195.839 272.824C191.063 272.824 185.391 273.72 182.542 275.741H182.541Z"/>
</mask>
<path fill-rule="evenodd" clip-rule="evenodd" d="M279.456 137.678C273.076 132.084 263.899 132.212 258.634 133.837C262.084 129.602 270.116 126.129 272.484 125.708C274.287 126.384 279.455 131.696 279.455 137.677L279.456 137.678ZM299.828 114.515C295.632 92.0692 243.468 106.941 217.198 97.4073C216.694 103.95 225.285 114.435 233.503 118.315C219.456 130.505 206.845 155.066 204.301 185.072C201.764 155.066 189.153 130.505 175.107 118.315C183.324 114.435 191.922 103.95 191.412 97.4073C165.142 106.941 112.977 92.0692 108.774 114.515C107.89 119.265 110.175 126.505 112.645 128.585C113.086 127.08 115.393 122.155 122.664 121.051C159.415 115.499 190.099 172.14 162.402 195.041C161.98 195.389 162.217 196.032 162.789 196.032H245.826C246.391 196.032 246.63 195.389 246.215 195.041C218.51 172.14 249.194 115.499 285.945 121.051C293.223 122.155 295.521 127.08 295.964 128.585C298.433 126.505 300.719 119.265 299.828 114.514V114.515ZM308.766 62.9981C308.106 60.8776 329.655 60.8246 329.655 74.3116C329.655 83.3512 316.766 87.6325 316.766 97.0128C316.766 101.382 321.466 104.586 322.908 104.586C319.588 89.5261 333.315 97.4073 337.022 100.224C329.656 79.9713 346.239 80.0991 344.607 70.8128C343.471 64.3228 329.057 66.2835 323.84 62.9981C314.583 57.171 303.632 34.4967 296.414 57.171C309.869 69.6627 302.04 88.0474 284.96 88.0474C284.96 88.0474 284.864 90.7433 285.021 90.9575C305.393 89.9602 312.494 74.988 308.767 62.9981H308.766ZM71.091 100.224C74.7989 97.4073 88.5245 89.5261 85.2129 104.586C86.6475 104.586 91.3476 101.382 91.3476 97.0128C91.3476 87.6325 78.4576 83.3512 78.4576 74.3116C78.4576 60.8239 100.007 60.8776 99.3463 62.9981C95.6257 74.9874 102.728 89.9608 123.099 90.9575C123.249 90.7433 123.153 88.0474 123.153 88.0474C106.081 88.0474 98.2512 69.6615 111.699 57.171C104.482 34.4967 93.5307 57.171 84.2738 62.9981C79.0572 66.2841 64.6432 64.3228 63.5071 70.8128C61.8808 80.0991 78.4569 79.9719 71.0904 100.224H71.091ZM128.935 137.677C135.322 132.084 144.498 132.211 149.757 133.837C146.321 129.601 138.275 126.129 135.914 125.707C134.112 126.383 128.936 131.696 128.936 137.677L128.935 137.677ZM213.994 12.1165L204.056 0L194.119 12.1165L204.057 24.8684L213.995 12.1165H213.994ZM270.723 48.7541L263.655 40.1429L256.595 48.7541L263.655 57.1704L270.723 48.7535V48.7541ZM328.043 297.653L319.085 288.172L310.126 297.653L319.085 305.968L328.043 297.651V297.653ZM151.525 48.7529L144.457 40.1416L137.396 48.7529L144.457 57.1697L151.524 48.7529H151.525ZM131.281 90.9562H157.639C179.8 90.9562 189.772 77.3547 192.785 65.5591H215.334C218.348 77.3553 228.311 90.9568 250.48 90.9568H276.838C276.838 90.9568 281.449 84.7014 282.604 81.604C286.768 70.4574 281.449 65.2587 273.688 65.2587L263.655 74.3513L253.622 65.2587C245.861 65.2587 240.542 70.4574 244.705 81.604C245.235 83.0296 246.508 85.1227 247.711 86.9625C238.358 85.6776 226.42 79.2757 223.801 65.5591C223.801 65.5591 230.712 54.5806 232.447 50.1382C238.678 34.1623 230.72 27.6314 219.081 27.6314L204.056 45.2949L189.031 27.6314C177.393 27.6314 169.434 34.1617 175.672 50.1382C177.4 54.5813 184.318 65.5598 184.318 65.5598C181.692 79.2764 169.755 85.6782 160.402 86.9632C161.613 85.1233 162.878 83.0296 163.408 81.6047C167.564 70.458 162.259 65.2593 154.49 65.2593L144.458 74.3519L134.425 65.2593C126.658 65.2593 121.352 70.458 125.509 81.6047C126.664 84.702 131.283 90.9575 131.283 90.9575L131.281 90.9562ZM403.789 172.661C398.701 175.237 368.854 189.219 330.62 184.048C331.016 182.224 331.352 180.387 331.627 178.541C357.073 175.497 377.758 171.182 390.94 163.849C405.966 155.486 412.537 135.522 404.952 120.669C404.756 120.294 404.212 120.228 403.94 120.541C399.784 125.326 373.65 153.754 332.478 162.591C332.373 160.459 332.177 158.332 331.893 156.215C351.89 144.874 371.413 131.807 380.711 119.859C394.765 101.794 393.471 78.7528 380.099 67.0039C379.96 66.8848 379.777 66.8313 379.596 66.857C379.415 66.8827 379.253 66.9852 379.153 67.1382C374.923 74.116 335.322 138.124 291.843 165.755C291.313 166.094 290.778 166.427 290.239 166.752C288.993 167.509 288.858 169.127 289.919 170.091C294.931 174.633 298.047 180.956 298.047 187.975C298.047 200.178 288.64 210.327 276.206 212.528C269.886 213.752 260.764 213.397 252.004 210.501C251.609 210.374 251.201 210.634 251.201 211.029V249.681C251.201 250.302 252.147 250.456 252.371 249.86C257.696 235.751 273.64 232.753 280.613 232.753C283.123 247.833 287.605 260.325 293.428 267.048C302.908 277.974 318.391 277.82 325.104 270.267C325.215 270.142 325.263 269.973 325.233 269.808C325.204 269.644 325.101 269.502 324.954 269.423C321.01 267.156 298.44 253.3 293.923 230.592C295.707 229.977 297.447 229.281 299.114 228.457C306.399 240.514 317.003 251.252 325.539 255.353C339.878 262.232 353.006 258.886 358.828 248.817C359.039 248.462 358.781 248.021 358.352 247.981C349.482 247.271 322.261 239.47 310.67 220.463C311.997 219.244 313.296 217.973 314.507 216.622C326.634 225.855 343.783 234.017 356.061 235.683C370.426 237.637 386.703 233.054 387.098 216.348C387.105 216.013 386.805 215.738 386.453 215.76C381.343 216.066 347.531 217.539 323.438 203.709C324.275 202.118 325.055 200.498 325.778 198.852C325.778 198.852 362.183 207.456 379.432 204.605C396.573 201.776 406.613 188.997 404.674 173.101C404.62 172.705 404.158 172.471 403.79 172.659L403.789 172.661ZM82.3342 198.854C83.0588 200.5 83.8414 202.12 84.6804 203.711C60.5952 217.534 26.7959 216.075 21.6676 215.761C21.307 215.74 21.0078 216.028 21.0142 216.356C21.417 233.056 37.6869 237.638 52.0517 235.685C64.3235 234.019 81.4782 225.856 93.6055 216.624C94.8234 217.975 96.116 219.246 97.4413 220.464C85.8446 239.47 58.63 247.272 49.7599 247.982C49.3315 248.021 49.0797 248.463 49.2842 248.818C55.1069 258.887 68.2347 262.232 82.5803 255.354C91.1104 251.253 101.714 240.515 109 228.459C110.672 229.281 112.413 229.977 114.189 230.593C109.672 253.301 87.1033 267.157 83.1576 269.423C83.0119 269.504 82.9104 269.646 82.8814 269.81C82.8523 269.973 82.8989 270.142 83.008 270.267C89.7218 277.821 105.211 277.975 114.691 267.049C120.515 260.325 124.99 247.834 127.5 232.754C134.478 232.754 150.415 235.752 155.741 249.861C155.973 250.457 156.918 250.302 156.918 249.681V211.029C156.918 210.635 156.503 210.374 156.109 210.501C147.348 213.397 138.227 213.753 131.914 212.528C119.474 210.328 110.067 200.178 110.067 187.975C110.067 180.955 113.188 174.626 118.195 170.084C119.262 169.127 119.12 167.507 117.881 166.752C117.338 166.426 116.798 166.094 116.263 165.754C72.8113 138.137 33.2304 74.1761 28.9657 67.1503C28.7675 66.8224 28.2919 66.7559 27.9991 67.0097C14.6469 78.7649 13.3478 101.8 27.4007 119.858C36.6992 131.806 56.2199 144.873 76.2117 156.214C75.9297 158.33 75.7369 160.457 75.6338 162.589C34.4955 153.758 8.38249 125.376 4.18555 120.56C3.90682 120.232 3.34808 120.299 3.15821 120.674C-4.41097 135.533 2.159 155.484 17.1714 163.847C30.3536 171.18 51.0384 175.495 76.4847 178.539C76.7596 180.385 77.0952 182.222 77.491 184.046C39.2979 189.211 9.46416 175.262 4.33578 172.665C3.95477 172.471 3.49192 172.712 3.44461 173.114C1.51396 189.01 11.5457 201.776 28.687 204.605C45.9299 207.456 82.3342 198.852 82.3342 198.852V198.854ZM319.084 318.178L305.82 307.741C300.528 310.893 296.637 315.898 295.127 321.765C287.149 322.883 265.395 318.052 267.51 314.848C291.352 281.315 273.115 261.35 251.2 262.461V284.982C251.2 292.214 244.888 298.074 237.113 298.074H221.979C211.123 298.074 204.056 308.987 204.056 308.987C204.056 308.987 196.99 298.074 186.133 298.074H170.999C163.218 298.074 156.919 292.214 156.919 284.982V262.462C135.003 261.352 116.753 281.316 140.602 314.849C142.697 318.02 120.338 323.098 109.85 321.813C107.088 318.949 103.102 317.143 98.6393 317.143C96.7424 317.144 94.8607 317.481 93.0819 318.14C93.0819 318.14 51.8695 279.121 51.1145 278.74L51.4546 277.95C53.8008 273.562 50.2099 268.778 47.9385 269.113C50.5769 265.948 50.7003 252.092 36.0618 248.887C36.4901 251.67 36.7075 257.351 36.7075 257.351C36.7075 257.351 25.41 251.242 19.7369 256.514C14.7517 262.416 21.6695 273.12 21.6695 273.12C21.6695 273.12 15.8877 273.26 13.0378 273.019C17.2283 287.19 31.2812 286.186 34.3217 283.39C34.1235 285.645 39.2058 288.856 43.5108 286.28L45.4018 285.363C45.7355 285.811 85.874 323.734 85.874 323.734C84.0303 326.47 83.1531 329.829 83.7579 333.408C84.7105 339.002 89.3709 343.638 95.3227 344.842C99.5253 345.686 103.477 344.869 106.647 343.015L117.272 352.878C118.218 353.734 119.497 354.269 120.924 354.169C123.523 353.994 125.468 351.887 125.271 349.472C125.19 348.381 124.632 347.446 123.863 346.736C123.693 346.548 113.041 336.659 113.041 336.659C121.828 330.497 138.201 326.156 151.791 326.156C154.179 326.156 155.301 324.136 154.478 322.154C148.322 307.348 161.559 296.624 175.251 305.355C181.224 309.162 187.291 316.662 191.862 329.173C169.395 334.613 141.188 349.598 135.481 365.957C133.284 372.274 140.542 380.884 149.357 382.617C149.513 382.652 149.676 382.622 149.81 382.535C149.944 382.449 150.038 382.312 150.071 382.155C154.676 357.734 180.938 339.536 194.604 336.445C195.291 338.284 195.066 337.689 195.753 339.522C180.87 346.561 166.437 361.407 162.314 379.056C160.423 387.138 169.436 394.424 176.877 396.419C177.251 396.519 177.619 396.258 177.639 395.897C179.054 373.577 188.91 354.623 197.739 345.999C197.981 347.684 198.162 349.378 198.283 351.077C198.283 351.077 189.244 376.267 189.244 394.646C189.244 403.195 201.95 409.164 203.827 410C206.174 409.164 218.873 403.195 218.873 394.646C218.873 376.266 209.833 351.077 209.833 351.077C209.957 349.378 210.141 347.684 210.385 345.999C219.207 354.623 229.069 373.57 230.477 395.889C230.498 396.251 230.872 396.519 231.238 396.418C238.687 394.425 247.693 387.139 245.809 379.057C241.679 361.408 227.253 346.562 212.37 339.523C213.05 337.69 212.825 338.285 213.513 336.445C227.185 339.536 253.441 357.734 258.045 382.154C258.079 382.311 258.173 382.447 258.307 382.534C258.441 382.621 258.604 382.65 258.76 382.617C267.568 380.884 274.84 372.273 272.629 365.958C266.936 349.599 238.721 334.614 216.254 329.173C220.832 316.662 226.899 309.162 232.871 305.355C246.557 296.625 259.793 307.35 253.638 322.156C252.814 324.136 253.93 326.156 256.324 326.156C271.696 326.156 290.633 331.709 298.128 339.156C302.917 346.341 311.766 350.938 321.752 349.953C333.097 348.844 342.349 340.319 343.627 329.783C344.743 320.549 339.968 312.26 332.357 307.744L319.085 318.181L319.084 318.178ZM221.319 250.919C226.046 249.167 233.454 250.585 233.202 257.409C233.141 258.954 235.312 258.954 235.468 257.375C236.882 247.159 229.978 244.214 222.755 245.412C221.857 241.899 221.123 238.829 220.286 235.785C219.62 233.323 219.374 228.699 222.225 228.699C223.762 228.699 223.143 233.002 223.001 234.854C222.871 236.48 223.456 237.464 224.776 237.511C225.6 237.544 226.627 236.494 227.239 235.797C231.375 231.121 232.334 223.882 227.491 220.391C223.438 217.459 213.288 219.641 210.498 223.815C210.078 222.243 208.064 219.647 207.097 218.516C206.159 217.413 205.915 216.656 207.214 215.687C207.826 215.218 209.676 213.379 209.676 211.478C209.676 210.354 208.805 208.28 206.037 208.28C203.854 208.28 201.426 209.792 201.426 213.164C201.426 213.914 201.609 214.718 202.092 215.581C200.711 215.352 196.963 215.446 195.038 215.921L221.655 288.961C229.273 285.201 234.857 279.247 234.857 272.858C234.857 267.411 226.837 269.218 222.94 273.466C221.688 266.562 220.572 260.186 219.355 253.829C219.023 252.076 219.913 251.448 221.321 250.919L221.319 250.919ZM183.684 201.303L189.275 216.838C184.487 217.976 176.787 221.468 176.787 226.09C176.787 232.247 187.677 236.254 193.976 235.772C193.663 237.177 194.024 238.428 195.003 239.572C192.718 239.572 188.406 240.636 186.99 242.161C183.651 239.05 178.426 237.919 175.943 239.813C173.448 241.72 173.374 244.951 175.978 248.604C177.794 251.133 178.474 253.629 176.434 256.559C184.025 256.559 181.228 246.691 184.201 246.691C183.814 248.604 184.052 250.819 184.916 253.274C185.487 254.906 185.487 256.064 184.508 257.636C182.06 261.551 178.251 270.542 178.767 278.671C176.278 278.657 175.013 278.048 175.89 274.65C176.216 273.384 175.435 272.482 174.401 274.041C173.258 275.761 172.707 278.698 172.707 279.954C172.707 287.194 181.331 288.653 184.623 287.121C194.147 296.336 212.852 293.878 219.117 290.787L186.182 200.419C185.508 198.713 183.094 199.529 183.685 201.302L183.684 201.303ZM182.541 275.741C181.861 272.02 187.037 265.37 193.622 258.954C192.22 263.135 193.091 270.341 195.839 272.824C191.063 272.824 185.391 273.72 182.542 275.741H182.541Z" stroke="white" stroke-width="2" mask="url(#path-1-inside-1)"/>
</svg>
