<svg width="570" height="570" viewBox="0 0 570 570" fill="none" xmlns="http://www.w3.org/2000/svg">
<path opacity="0.6" d="M258.396 19.4968C267.976 -4.55717 302.024 -4.55717 311.604 19.4968C319.817 40.1158 346.546 45.4326 362.024 29.526C380.081 10.9694 411.536 23.9987 411.183 49.8881C410.88 72.0804 433.54 87.2214 453.927 78.4487C477.71 68.2146 501.785 92.2897 491.551 116.073C482.779 136.46 497.92 159.12 520.112 158.817C546.001 158.463 559.031 189.919 540.474 207.976C524.567 223.454 529.884 250.183 550.503 258.396C574.557 267.976 574.557 302.024 550.503 311.604C529.884 319.817 524.567 346.546 540.474 362.024C559.031 380.081 546.001 411.536 520.112 411.183C497.92 410.88 482.779 433.54 491.551 453.927C501.785 477.71 477.71 501.785 453.927 491.551C433.54 482.779 410.88 497.92 411.183 520.112C411.536 546.001 380.081 559.031 362.024 540.474C346.546 524.567 319.817 529.884 311.604 550.503C302.024 574.557 267.976 574.557 258.396 550.503C250.183 529.884 223.454 524.567 207.976 540.474C189.919 559.031 158.463 546.001 158.817 520.112C159.12 497.92 136.46 482.779 116.073 491.551C92.2897 501.785 68.2146 477.71 78.4487 453.927C87.2214 433.54 72.0804 410.88 49.8881 411.183C23.9987 411.536 10.9694 380.081 29.526 362.024C45.4326 346.546 40.1158 319.817 19.4968 311.604C-4.55717 302.024 -4.55717 267.976 19.4968 258.396C40.1158 250.183 45.4326 223.454 29.526 207.976C10.9694 189.919 23.9987 158.463 49.8881 158.817C72.0805 159.12 87.2214 136.46 78.4487 116.073C68.2146 92.2897 92.2897 68.2146 116.073 78.4487C136.46 87.2214 159.12 72.0805 158.817 49.8881C158.463 23.9987 189.919 10.9694 207.976 29.526C223.454 45.4326 250.183 40.1158 258.396 19.4968Z" stroke="#2391FF" stroke-opacity="0.4" stroke-width="2"/>
</svg>
