<svg width="570" height="570" fill="none" xmlns="http://www.w3.org/2000/svg"><path opacity=".6" d="M258.396 19.497c9.58-24.054 43.628-24.054 53.208 0 8.213 20.619 34.942 25.936 50.42 10.029 18.057-18.557 49.512-5.527 49.159 20.362-.303 22.192 22.357 37.333 42.744 28.56 23.783-10.233 47.858 13.842 37.624 37.625-8.772 20.387 6.369 43.047 28.561 42.744 25.889-.354 38.919 31.102 20.362 49.159-15.907 15.478-10.59 42.207 10.029 50.42 24.054 9.58 24.054 43.628 0 53.208-20.619 8.213-25.936 34.942-10.029 50.42 18.557 18.057 5.527 49.512-20.362 49.159-22.192-.303-37.333 22.357-28.561 42.744 10.234 23.783-13.841 47.858-37.624 37.624-20.387-8.772-43.047 6.369-42.744 28.561.353 25.889-31.102 38.919-49.159 20.362-15.478-15.907-42.207-10.59-50.42 10.029-9.58 24.054-43.628 24.054-53.208 0-8.213-20.619-34.942-25.936-50.42-10.029-18.057 18.557-49.513 5.527-49.159-20.362.303-22.192-22.357-37.333-42.744-28.561-23.783 10.234-47.858-13.841-37.624-37.624 8.772-20.387-6.369-43.047-28.56-42.744-25.89.353-38.92-31.102-20.363-49.159 15.907-15.478 10.59-42.207-10.03-50.42-24.053-9.58-24.053-43.628 0-53.208 20.62-8.213 25.937-34.942 10.03-50.42-18.557-18.057-5.527-49.513 20.362-49.159 22.193.303 37.333-22.357 28.56-42.744C68.216 92.29 92.29 68.215 116.074 78.449c20.387 8.772 43.047-6.368 42.744-28.56-.354-25.89 31.102-38.92 49.159-20.363 15.478 15.907 42.207 10.59 50.42-10.03z" stroke="#2391FF" stroke-opacity=".4" stroke-width="2"/></svg>