<svg width="716" height="716" fill="none" xmlns="http://www.w3.org/2000/svg"><path opacity=".6" d="M324.792 24.428c11.959-30.025 54.457-30.025 66.416 0 10.386 26.076 44.19 32.8 63.764 12.683 22.539-23.162 61.802-6.899 61.361 25.417-.383 28.065 28.274 47.213 54.056 36.12 29.687-12.775 59.738 17.276 46.964 46.963-11.094 25.782 8.054 54.439 36.119 54.056 32.316-.441 48.579 38.822 25.417 61.361-20.117 19.574-13.393 53.378 12.683 63.764 30.025 11.959 30.025 54.457 0 66.416-26.076 10.386-32.8 44.19-12.683 63.764 23.162 22.539 6.899 61.802-25.417 61.361-28.065-.383-47.213 28.274-36.119 54.056 12.774 29.687-17.277 59.738-46.964 46.964-25.782-11.094-54.439 8.054-54.056 36.119.441 32.316-38.822 48.579-61.361 25.417-19.574-20.117-53.378-13.393-63.764 12.683-11.959 30.025-54.457 30.025-66.416 0-10.386-26.076-44.19-32.8-63.764-12.683-22.539 23.162-61.802 6.899-61.361-25.417.383-28.065-28.274-47.213-54.056-36.119-29.687 12.774-59.738-17.277-46.964-46.964 11.094-25.782-8.054-54.439-36.12-54.056-32.315.441-48.578-38.822-25.416-61.361 20.117-19.574 13.393-53.378-12.683-63.764-30.025-11.959-30.025-54.457 0-66.416 26.076-10.386 32.8-44.19 12.683-63.764-23.162-22.539-6.899-61.802 25.417-61.361 28.065.383 47.213-28.274 36.12-54.056-12.775-29.687 17.276-59.738 46.963-46.964 25.782 11.094 54.439-8.054 54.056-36.12-.441-32.315 38.822-48.578 61.361-25.416 19.574 20.117 53.378 13.393 63.764-12.683z" stroke="#2391FF" stroke-opacity=".4" stroke-width="3"/></svg>