<svg width="426" height="426" fill="none" xmlns="http://www.w3.org/2000/svg"><path opacity=".6" d="M192.917 14.772c7.232-18.157 32.934-18.157 40.166 0 6.063 15.222 25.795 19.147 37.221 7.404 13.631-14.008 37.376-4.172 37.109 15.37-.224 16.384 16.504 27.561 31.555 21.085 17.953-7.725 36.126 10.448 28.401 28.401-6.476 15.051 4.701 31.779 21.084 31.555 19.543-.267 29.379 23.478 15.371 37.109-11.743 11.426-7.818 31.158 7.404 37.221 18.157 7.232 18.157 32.934 0 40.166-15.222 6.063-19.147 25.795-7.404 37.221 14.008 13.631 4.172 37.376-15.371 37.109-16.383-.224-27.56 16.504-21.084 31.555 7.725 17.953-10.448 36.126-28.401 28.401-15.051-6.476-31.779 4.701-31.555 21.084.267 19.543-23.478 29.379-37.109 15.371-11.426-11.743-31.158-7.818-37.221 7.404-7.232 18.157-32.934 18.157-40.166 0-6.063-15.222-25.795-19.147-37.221-7.404-13.631 14.008-37.376 4.172-37.109-15.371.224-16.383-16.504-27.56-31.555-21.084-17.953 7.725-36.126-10.448-28.401-28.401 6.476-15.051-4.701-31.779-21.084-31.555-19.543.267-29.379-23.478-15.371-37.109 11.743-11.426 7.818-31.158-7.404-37.221-18.157-7.232-18.157-32.934 0-40.166 15.222-6.063 19.147-25.795 7.404-37.221-14.008-13.631-4.172-37.376 15.37-37.109 16.384.224 27.561-16.504 21.085-31.555-7.725-17.953 10.448-36.126 28.401-28.401 15.051 6.476 31.779-4.701 31.555-21.084-.267-19.543 23.478-29.379 37.109-15.371 11.426 11.743 31.158 7.818 37.221-7.404z" stroke="#2391FF" stroke-opacity=".4"/></svg>