<svg width="409" height="410" fill="none" xmlns="http://www.w3.org/2000/svg"><mask id="path-1-inside-1" fill="#fff"><path fill-rule="evenodd" clip-rule="evenodd" d="M279.456 137.678c-6.38-5.594-15.557-5.466-20.822-3.841 3.45-4.235 11.482-7.708 13.85-8.129 1.803.676 6.971 5.988 6.971 11.969l.001.001zm20.372-23.163c-4.196-22.446-56.36-7.574-82.63-17.108-.504 6.543 8.087 17.028 16.305 20.908-14.047 12.19-26.658 36.751-29.202 66.757-2.537-30.006-15.148-54.567-29.194-66.757 8.217-3.88 16.815-14.365 16.305-20.908-26.27 9.534-78.435-5.338-82.638 17.108-.884 4.75 1.401 11.99 3.871 14.07.441-1.505 2.748-6.43 10.019-7.534 36.751-5.552 67.435 51.089 39.738 73.99-.422.348-.185.991.387.991h83.037c.565 0 .804-.643.389-.991-27.705-22.901 2.979-79.542 39.73-73.99 7.278 1.104 9.576 6.029 10.019 7.534 2.469-2.08 4.755-9.32 3.864-14.071v.001zm8.938-51.517c-.66-2.12 20.889-2.173 20.889 11.314 0 9.04-12.889 13.32-12.889 22.7 0 4.37 4.7 7.574 6.142 7.574-3.32-15.06 10.407-7.179 14.114-4.362-7.366-20.253 9.217-20.125 7.585-29.411-1.136-6.49-15.55-4.53-20.767-7.815-9.257-5.827-20.208-28.501-27.426-5.827 13.455 12.492 5.626 30.876-11.454 30.876 0 0-.096 2.696.061 2.91 20.372-.997 27.473-15.969 23.746-27.959h-.001zM71.091 100.224c3.708-2.817 17.434-10.698 14.122 4.362 1.434 0 6.135-3.204 6.135-7.573 0-9.38-12.89-13.662-12.89-22.701 0-13.488 21.549-13.434 20.888-11.314-3.72 11.99 3.382 26.963 23.753 27.96.15-.215.054-2.91.054-2.91-17.072 0-24.902-18.386-11.454-30.877-7.217-22.674-18.168 0-27.425 5.827-5.217 3.286-19.63 1.325-20.767 7.815-1.626 9.286 14.95 9.159 7.583 29.411h.001zm57.844 37.453c6.387-5.593 15.563-5.466 20.822-3.84-3.436-4.236-11.482-7.708-13.843-8.13-1.802.676-6.978 5.989-6.978 11.97h-.001zm85.059-125.56L204.056 0l-9.937 12.117 9.938 12.751 9.938-12.751h-.001zm56.729 36.637l-7.068-8.611-7.06 8.611 7.06 8.416 7.068-8.416zm57.32 248.899l-8.958-9.481-8.959 9.481 8.959 8.315 8.958-8.317v.002zm-176.518-248.9l-7.068-8.611-7.061 8.61 7.061 8.418 7.067-8.417h.001zm-20.244 42.203h26.358c22.161 0 32.133-13.601 35.146-25.397h22.549c3.014 11.796 12.977 25.398 35.146 25.398h26.358s4.611-6.256 5.766-9.353c4.164-11.147-1.155-16.345-8.916-16.345l-10.033 9.092-10.033-9.092c-7.761 0-13.08 5.198-8.917 16.345.53 1.426 1.803 3.519 3.006 5.359-9.353-1.285-21.291-7.687-23.91-21.404 0 0 6.911-10.978 8.646-15.42 6.231-15.977-1.727-22.508-13.366-22.508l-15.025 17.664-15.025-17.664c-11.638 0-19.597 6.53-13.359 22.507 1.728 4.443 8.646 15.422 8.646 15.422-2.626 13.716-14.563 20.118-23.916 21.403 1.211-1.84 2.476-3.933 3.006-5.358 4.156-11.147-1.149-16.346-8.918-16.346l-10.032 9.093-10.033-9.093c-7.767 0-13.073 5.199-8.916 16.346 1.155 3.097 5.774 9.352 5.774 9.352h-.002zm272.508 81.705c-5.088 2.576-34.935 16.558-73.169 11.387a84.97 84.97 0 0 0 1.007-5.507c25.446-3.044 46.131-7.359 59.313-14.692 15.026-8.363 21.597-28.327 14.012-43.18-.196-.375-.74-.441-1.012-.128-4.156 4.785-30.29 33.213-71.462 42.05a76.111 76.111 0 0 0-.585-6.376c19.997-11.341 39.52-24.408 48.818-36.356 14.054-18.065 12.76-41.106-.612-52.855a.635.635 0 0 0-.946.134c-4.23 6.978-43.831 70.986-87.31 98.617-.53.339-1.065.672-1.604.997-1.246.757-1.381 2.375-.32 3.339 5.012 4.542 8.128 10.865 8.128 17.884 0 12.203-9.407 22.352-21.841 24.553-6.32 1.224-15.442.869-24.202-2.027-.395-.127-.803.133-.803.528v38.652c0 .621.946.775 1.17.179 5.325-14.109 21.269-17.107 28.242-17.107 2.51 15.08 6.992 27.572 12.815 34.295 9.48 10.926 24.963 10.772 31.676 3.219a.544.544 0 0 0-.15-.844c-3.944-2.267-26.514-16.123-31.031-38.831 1.784-.615 3.524-1.311 5.191-2.135 7.285 12.057 17.889 22.795 26.425 26.896 14.339 6.879 27.467 3.533 33.289-6.536.211-.355-.047-.796-.476-.836-8.87-.71-36.091-8.511-47.682-27.518 1.327-1.219 2.626-2.49 3.837-3.841 12.127 9.233 29.276 17.395 41.554 19.061 14.365 1.954 30.642-2.629 31.037-19.335.007-.335-.293-.61-.645-.588-5.11.306-38.922 1.779-63.015-12.051a76.57 76.57 0 0 0 2.34-4.857s36.405 8.604 53.654 5.753c17.141-2.829 27.181-15.608 25.242-31.504-.054-.396-.516-.63-.884-.442l-.001.002zM82.334 198.854a76.428 76.428 0 0 0 2.346 4.857c-24.085 13.823-57.884 12.364-63.012 12.05-.361-.021-.66.267-.654.595.403 16.7 16.673 21.282 31.038 19.329 12.271-1.666 29.426-9.829 41.554-19.061a57.801 57.801 0 0 0 3.835 3.84C85.845 239.47 58.63 247.272 49.76 247.982c-.428.039-.68.481-.476.836 5.823 10.069 18.95 13.414 33.296 6.536 8.53-4.101 19.134-14.839 26.42-26.895 1.672.822 3.413 1.518 5.189 2.134-4.517 22.708-27.086 36.564-31.031 38.83a.553.553 0 0 0-.15.844c6.714 7.554 22.203 7.708 31.683-3.218 5.824-6.724 10.299-19.215 12.809-34.295 6.978 0 22.915 2.998 28.241 17.107.232.596 1.177.441 1.177-.18v-38.652c0-.394-.415-.655-.809-.528-8.761 2.896-17.882 3.252-24.195 2.027-12.44-2.2-21.847-12.35-21.847-24.553 0-7.02 3.121-13.349 8.128-17.891 1.067-.957.925-2.577-.314-3.332a74.754 74.754 0 0 1-1.618-.998C72.811 138.137 33.23 74.176 28.966 67.15c-.199-.328-.674-.394-.967-.14-13.352 11.755-14.651 34.79-.598 52.848 9.298 11.948 28.819 25.015 48.81 36.356a76.076 76.076 0 0 0-.577 6.375c-41.139-8.831-67.252-37.213-71.448-42.029-.28-.328-.838-.261-1.028.114-7.569 14.859-.999 34.81 14.013 43.173 13.183 7.333 33.867 11.648 59.314 14.692.275 1.846.61 3.683 1.006 5.507-38.193 5.165-68.027-8.784-73.155-11.381-.381-.194-.844.047-.891.449-1.931 15.896 8.1 28.662 25.242 31.491 17.243 2.851 53.647-5.753 53.647-5.753v.002zm236.75 119.324l-13.264-10.437c-5.292 3.152-9.183 8.157-10.693 14.024-7.978 1.118-29.732-3.713-27.617-6.917 23.842-33.533 5.605-53.498-16.31-52.387v22.521c0 7.232-6.312 13.092-14.087 13.092h-15.134c-10.856 0-17.923 10.913-17.923 10.913s-7.066-10.913-17.923-10.913h-15.134c-7.781 0-14.08-5.86-14.08-13.092v-22.52c-21.916-1.11-40.166 18.854-16.317 52.387 2.095 3.171-20.264 8.249-30.752 6.964-2.762-2.864-6.748-4.67-11.21-4.67a16.02 16.02 0 0 0-5.558.997s-41.212-39.019-41.967-39.4l.34-.79c2.346-4.388-1.245-9.172-3.517-8.837 2.639-3.165 2.762-17.021-11.876-20.226.428 2.783.646 8.464.646 8.464s-11.298-6.109-16.971-.837c-4.985 5.902 1.933 16.606 1.933 16.606s-5.782.14-8.632-.101c4.19 14.171 18.243 13.167 21.284 10.371-.199 2.255 4.884 5.466 9.189 2.89l1.89-.917c.334.448 40.473 38.371 40.473 38.371-1.844 2.736-2.72 6.095-2.116 9.674.953 5.594 5.613 10.23 11.565 11.434 4.202.844 8.154.027 11.324-1.827l10.625 9.863c.946.856 2.225 1.391 3.652 1.291 2.599-.175 4.544-2.282 4.347-4.697-.081-1.091-.639-2.026-1.408-2.736-.17-.188-10.822-10.077-10.822-10.077 8.787-6.162 25.16-10.503 38.75-10.503 2.388 0 3.51-2.02 2.687-4.002-6.156-14.806 7.081-25.53 20.773-16.799 5.973 3.807 12.04 11.307 16.611 23.818-22.467 5.44-50.674 20.425-56.381 36.784-2.197 6.317 5.061 14.927 13.876 16.66a.597.597 0 0 0 .714-.462c4.605-24.421 30.867-42.619 44.533-45.71.687 1.839.462 1.244 1.149 3.077-14.883 7.039-29.316 21.885-33.439 39.534-1.891 8.082 7.122 15.368 14.563 17.363.374.1.742-.161.762-.522 1.415-22.32 11.271-41.274 20.1-49.898a71.4 71.4 0 0 1 .544 5.078s-9.039 25.19-9.039 43.569c0 8.549 12.706 14.518 14.583 15.354 2.347-.836 15.046-6.805 15.046-15.354 0-18.38-9.04-43.569-9.04-43.569.124-1.699.308-3.393.552-5.078 8.822 8.624 18.684 27.571 20.092 49.89.021.362.395.63.761.529 7.449-1.993 16.455-9.279 14.571-17.361-4.13-17.649-18.556-32.495-33.439-39.534.68-1.833.455-1.238 1.143-3.078 13.672 3.091 39.928 21.289 44.532 45.709a.605.605 0 0 0 .715.463c8.808-1.733 16.08-10.344 13.869-16.659-5.693-16.359-33.908-31.344-56.375-36.785 4.578-12.511 10.645-20.011 16.617-23.818 13.686-8.73 26.922 1.995 20.767 16.801-.824 1.98.292 4 2.686 4 15.372 0 34.309 5.553 41.804 13 4.789 7.185 13.638 11.782 23.624 10.797 11.345-1.109 20.597-9.634 21.875-20.17 1.116-9.234-3.659-17.523-11.27-22.039l-13.272 10.437-.001-.003zm-97.765-67.259c4.727-1.752 12.135-.334 11.883 6.49-.061 1.545 2.11 1.545 2.266-.034 1.414-10.216-5.49-13.161-12.713-11.963-.898-3.513-1.632-6.583-2.469-9.627-.666-2.462-.912-7.086 1.939-7.086 1.537 0 .918 4.303.776 6.155-.13 1.626.455 2.61 1.775 2.657.824.033 1.851-1.017 2.463-1.714 4.136-4.676 5.095-11.915.252-15.406-4.053-2.932-14.203-.75-16.993 3.424-.42-1.572-2.434-4.168-3.401-5.299-.938-1.103-1.182-1.86.117-2.829.612-.469 2.462-2.308 2.462-4.209 0-1.124-.871-3.198-3.639-3.198-2.183 0-4.611 1.512-4.611 4.884 0 .75.183 1.554.666 2.417-1.381-.229-5.129-.135-7.054.34l26.617 73.04c7.618-3.76 13.202-9.714 13.202-16.103 0-5.447-8.02-3.64-11.917.608-1.252-6.904-2.368-13.28-3.585-19.637-.332-1.753.558-2.381 1.966-2.91h-.002zm-37.635-49.616l5.591 15.535c-4.788 1.138-12.488 4.63-12.488 9.252 0 6.157 10.89 10.164 17.189 9.682-.313 1.405.048 2.656 1.027 3.8-2.285 0-6.597 1.064-8.013 2.589-3.339-3.111-8.564-4.242-11.047-2.348-2.495 1.907-2.569 5.138.035 8.791 1.816 2.529 2.496 5.025.456 7.955 7.591 0 4.794-9.868 7.767-9.868-.387 1.913-.149 4.128.715 6.583.571 1.632.571 2.79-.408 4.362-2.448 3.915-6.257 12.906-5.741 21.035-2.489-.014-3.754-.623-2.877-4.021.326-1.266-.455-2.168-1.489-.609-1.143 1.72-1.694 4.657-1.694 5.913 0 7.24 8.624 8.699 11.916 7.167 9.524 9.215 28.229 6.757 34.494 3.666l-32.935-90.368c-.674-1.706-3.088-.89-2.497.883l-.001.001zm-1.143 74.438c-.68-3.721 4.496-10.371 11.081-16.787-1.402 4.181-.531 11.387 2.217 13.87-4.776 0-10.448.896-13.297 2.917h-.001z"/></mask><path clip-rule="evenodd" d="M279.456 137.678c-6.38-5.594-15.557-5.466-20.822-3.841 3.45-4.235 11.482-7.708 13.85-8.129 1.803.676 6.971 5.988 6.971 11.969l.001.001zm20.372-23.163c-4.196-22.446-56.36-7.574-82.63-17.108-.504 6.543 8.087 17.028 16.305 20.908-14.047 12.19-26.658 36.751-29.202 66.757-2.537-30.006-15.148-54.567-29.194-66.757 8.217-3.88 16.815-14.365 16.305-20.908-26.27 9.534-78.435-5.338-82.638 17.108-.884 4.75 1.401 11.99 3.871 14.07.441-1.505 2.748-6.43 10.019-7.534 36.751-5.552 67.435 51.089 39.738 73.99-.422.348-.185.991.387.991h83.037c.565 0 .804-.643.389-.991-27.705-22.901 2.979-79.542 39.73-73.99 7.278 1.104 9.576 6.029 10.019 7.534 2.469-2.08 4.755-9.32 3.864-14.071v.001zm8.938-51.517c-.66-2.12 20.889-2.173 20.889 11.314 0 9.04-12.889 13.32-12.889 22.7 0 4.37 4.7 7.574 6.142 7.574-3.32-15.06 10.407-7.179 14.114-4.362-7.366-20.253 9.217-20.125 7.585-29.411-1.136-6.49-15.55-4.53-20.767-7.815-9.257-5.827-20.208-28.501-27.426-5.827 13.455 12.492 5.626 30.876-11.454 30.876 0 0-.096 2.696.061 2.91 20.372-.997 27.473-15.969 23.746-27.959h-.001zM71.091 100.224c3.708-2.817 17.434-10.698 14.122 4.362 1.434 0 6.135-3.204 6.135-7.573 0-9.38-12.89-13.662-12.89-22.701 0-13.488 21.549-13.434 20.888-11.314-3.72 11.99 3.382 26.963 23.753 27.96.15-.215.054-2.91.054-2.91-17.072 0-24.902-18.386-11.454-30.877-7.217-22.674-18.168 0-27.425 5.827-5.217 3.286-19.63 1.325-20.767 7.815-1.626 9.286 14.95 9.159 7.583 29.411h.001zm57.844 37.453c6.387-5.593 15.563-5.466 20.822-3.84-3.436-4.236-11.482-7.708-13.843-8.13-1.802.676-6.978 5.989-6.978 11.97h-.001zm85.059-125.56L204.056 0l-9.937 12.117 9.938 12.751 9.938-12.751h-.001zm56.729 36.637l-7.068-8.611-7.06 8.611 7.06 8.416 7.068-8.416v0zm57.32 248.899l-8.958-9.481-8.959 9.481 8.959 8.315 8.958-8.317v.002zm-176.518-248.9l-7.068-8.611-7.061 8.61 7.061 8.418 7.067-8.417h.001zm-20.244 42.203h26.358c22.161 0 32.133-13.601 35.146-25.397h22.549c3.014 11.796 12.977 25.398 35.146 25.398h26.358s4.611-6.256 5.766-9.353c4.164-11.147-1.155-16.345-8.916-16.345l-10.033 9.092-10.033-9.092c-7.761 0-13.08 5.198-8.917 16.345.53 1.426 1.803 3.519 3.006 5.359-9.353-1.285-21.291-7.687-23.91-21.404 0 0 6.911-10.978 8.646-15.42 6.231-15.977-1.727-22.508-13.366-22.508l-15.025 17.664-15.025-17.664c-11.638 0-19.597 6.53-13.359 22.507 1.728 4.443 8.646 15.422 8.646 15.422-2.626 13.716-14.563 20.118-23.916 21.403 1.211-1.84 2.476-3.933 3.006-5.358 4.156-11.147-1.149-16.346-8.918-16.346l-10.032 9.093-10.033-9.093c-7.767 0-13.073 5.199-8.916 16.346 1.155 3.097 5.774 9.352 5.774 9.352h-.002zm272.508 81.705c-5.088 2.576-34.935 16.558-73.169 11.387a84.97 84.97 0 0 0 1.007-5.507c25.446-3.044 46.131-7.359 59.313-14.692 15.026-8.363 21.597-28.327 14.012-43.18-.196-.375-.74-.441-1.012-.128-4.156 4.785-30.29 33.213-71.462 42.05a76.111 76.111 0 0 0-.585-6.376c19.997-11.341 39.52-24.408 48.818-36.356 14.054-18.065 12.76-41.106-.612-52.855a.635.635 0 0 0-.946.134c-4.23 6.978-43.831 70.986-87.31 98.617-.53.339-1.065.672-1.604.997-1.246.757-1.381 2.375-.32 3.339 5.012 4.542 8.128 10.865 8.128 17.884 0 12.203-9.407 22.352-21.841 24.553-6.32 1.224-15.442.869-24.202-2.027-.395-.127-.803.133-.803.528v38.652c0 .621.946.775 1.17.179 5.325-14.109 21.269-17.107 28.242-17.107 2.51 15.08 6.992 27.572 12.815 34.295 9.48 10.926 24.963 10.772 31.676 3.219a.544.544 0 0 0-.15-.844c-3.944-2.267-26.514-16.123-31.031-38.831 1.784-.615 3.524-1.311 5.191-2.135 7.285 12.057 17.889 22.795 26.425 26.896 14.339 6.879 27.467 3.533 33.289-6.536.211-.355-.047-.796-.476-.836-8.87-.71-36.091-8.511-47.682-27.518 1.327-1.219 2.626-2.49 3.837-3.841 12.127 9.233 29.276 17.395 41.554 19.061 14.365 1.954 30.642-2.629 31.037-19.335.007-.335-.293-.61-.645-.588-5.11.306-38.922 1.779-63.015-12.051a76.57 76.57 0 0 0 2.34-4.857s36.405 8.604 53.654 5.753c17.141-2.829 27.181-15.608 25.242-31.504-.054-.396-.516-.63-.884-.442l-.001.002zM82.334 198.854a76.428 76.428 0 0 0 2.346 4.857c-24.085 13.823-57.884 12.364-63.012 12.05-.361-.021-.66.267-.654.595.403 16.7 16.673 21.282 31.038 19.329 12.271-1.666 29.426-9.829 41.554-19.061a57.801 57.801 0 0 0 3.835 3.84C85.845 239.47 58.63 247.272 49.76 247.982c-.428.039-.68.481-.476.836 5.823 10.069 18.95 13.414 33.296 6.536 8.53-4.101 19.134-14.839 26.42-26.895 1.672.822 3.413 1.518 5.189 2.134-4.517 22.708-27.086 36.564-31.031 38.83a.553.553 0 0 0-.15.844c6.714 7.554 22.203 7.708 31.683-3.218 5.824-6.724 10.299-19.215 12.809-34.295 6.978 0 22.915 2.998 28.241 17.107.232.596 1.177.441 1.177-.18v-38.652c0-.394-.415-.655-.809-.528-8.761 2.896-17.882 3.252-24.195 2.027-12.44-2.2-21.847-12.35-21.847-24.553 0-7.02 3.121-13.349 8.128-17.891 1.067-.957.925-2.577-.314-3.332a74.754 74.754 0 0 1-1.618-.998C72.811 138.137 33.23 74.176 28.966 67.15c-.199-.328-.674-.394-.967-.14-13.352 11.755-14.651 34.79-.598 52.848 9.298 11.948 28.819 25.015 48.81 36.356a76.076 76.076 0 0 0-.577 6.375c-41.139-8.831-67.252-37.213-71.448-42.029-.28-.328-.838-.261-1.028.114-7.569 14.859-.999 34.81 14.013 43.173 13.183 7.333 33.867 11.648 59.314 14.692.275 1.846.61 3.683 1.006 5.507-38.193 5.165-68.027-8.784-73.155-11.381-.381-.194-.844.047-.891.449-1.931 15.896 8.1 28.662 25.242 31.491 17.243 2.851 53.647-5.753 53.647-5.753v.002zm236.75 119.324l-13.264-10.437c-5.292 3.152-9.183 8.157-10.693 14.024-7.978 1.118-29.732-3.713-27.617-6.917 23.842-33.533 5.605-53.498-16.31-52.387v22.521c0 7.232-6.312 13.092-14.087 13.092h-15.134c-10.856 0-17.923 10.913-17.923 10.913s-7.066-10.913-17.923-10.913h-15.134c-7.781 0-14.08-5.86-14.08-13.092v-22.52c-21.916-1.11-40.166 18.854-16.317 52.387 2.095 3.171-20.264 8.249-30.752 6.964-2.762-2.864-6.748-4.67-11.21-4.67a16.02 16.02 0 0 0-5.558.997s-41.212-39.019-41.967-39.4l.34-.79c2.346-4.388-1.245-9.172-3.517-8.837 2.639-3.165 2.762-17.021-11.876-20.226.428 2.783.646 8.464.646 8.464s-11.298-6.109-16.971-.837c-4.985 5.902 1.933 16.606 1.933 16.606s-5.782.14-8.632-.101c4.19 14.171 18.243 13.167 21.284 10.371-.199 2.255 4.884 5.466 9.189 2.89l1.89-.917c.334.448 40.473 38.371 40.473 38.371-1.844 2.736-2.72 6.095-2.116 9.674.953 5.594 5.613 10.23 11.565 11.434 4.202.844 8.154.027 11.324-1.827l10.625 9.863c.946.856 2.225 1.391 3.652 1.291 2.599-.175 4.544-2.282 4.347-4.697-.081-1.091-.639-2.026-1.408-2.736-.17-.188-10.822-10.077-10.822-10.077 8.787-6.162 25.16-10.503 38.75-10.503 2.388 0 3.51-2.02 2.687-4.002-6.156-14.806 7.081-25.53 20.773-16.799 5.973 3.807 12.04 11.307 16.611 23.818-22.467 5.44-50.674 20.425-56.381 36.784-2.197 6.317 5.061 14.927 13.876 16.66a.597.597 0 0 0 .714-.462c4.605-24.421 30.867-42.619 44.533-45.71.687 1.839.462 1.244 1.149 3.077-14.883 7.039-29.316 21.885-33.439 39.534-1.891 8.082 7.122 15.368 14.563 17.363.374.1.742-.161.762-.522 1.415-22.32 11.271-41.274 20.1-49.898a71.4 71.4 0 0 1 .544 5.078s-9.039 25.19-9.039 43.569c0 8.549 12.706 14.518 14.583 15.354 2.347-.836 15.046-6.805 15.046-15.354 0-18.38-9.04-43.569-9.04-43.569.124-1.699.308-3.393.552-5.078 8.822 8.624 18.684 27.571 20.092 49.89.021.362.395.63.761.529 7.449-1.993 16.455-9.279 14.571-17.361-4.13-17.649-18.556-32.495-33.439-39.534.68-1.833.455-1.238 1.143-3.078 13.672 3.091 39.928 21.289 44.532 45.709a.605.605 0 0 0 .715.463c8.808-1.733 16.08-10.344 13.869-16.659-5.693-16.359-33.908-31.344-56.375-36.785 4.578-12.511 10.645-20.011 16.617-23.818 13.686-8.73 26.922 1.995 20.767 16.801-.824 1.98.292 4 2.686 4 15.372 0 34.309 5.553 41.804 13 4.789 7.185 13.638 11.782 23.624 10.797 11.345-1.109 20.597-9.634 21.875-20.17 1.116-9.234-3.659-17.523-11.27-22.039l-13.272 10.437-.001-.003zm-97.765-67.259c4.727-1.752 12.135-.334 11.883 6.49-.061 1.545 2.11 1.545 2.266-.034 1.414-10.216-5.49-13.161-12.713-11.963-.898-3.513-1.632-6.583-2.469-9.627-.666-2.462-.912-7.086 1.939-7.086 1.537 0 .918 4.303.776 6.155-.13 1.626.455 2.61 1.775 2.657.824.033 1.851-1.017 2.463-1.714 4.136-4.676 5.095-11.915.252-15.406-4.053-2.932-14.203-.75-16.993 3.424-.42-1.572-2.434-4.168-3.401-5.299-.938-1.103-1.182-1.86.117-2.829.612-.469 2.462-2.308 2.462-4.209 0-1.124-.871-3.198-3.639-3.198-2.183 0-4.611 1.512-4.611 4.884 0 .75.183 1.554.666 2.417-1.381-.229-5.129-.135-7.054.34l26.617 73.04c7.618-3.76 13.202-9.714 13.202-16.103 0-5.447-8.02-3.64-11.917.608-1.252-6.904-2.368-13.28-3.585-19.637-.332-1.753.558-2.381 1.966-2.91h-.002zm-37.635-49.616l5.591 15.535c-4.788 1.138-12.488 4.63-12.488 9.252 0 6.157 10.89 10.164 17.189 9.682-.313 1.405.048 2.656 1.027 3.8-2.285 0-6.597 1.064-8.013 2.589-3.339-3.111-8.564-4.242-11.047-2.348-2.495 1.907-2.569 5.138.035 8.791 1.816 2.529 2.496 5.025.456 7.955 7.591 0 4.794-9.868 7.767-9.868-.387 1.913-.149 4.128.715 6.583.571 1.632.571 2.79-.408 4.362-2.448 3.915-6.257 12.906-5.741 21.035-2.489-.014-3.754-.623-2.877-4.021.326-1.266-.455-2.168-1.489-.609-1.143 1.72-1.694 4.657-1.694 5.913 0 7.24 8.624 8.699 11.916 7.167 9.524 9.215 28.229 6.757 34.494 3.666l-32.935-90.368c-.674-1.706-3.088-.89-2.497.883l-.001.001zm-1.143 74.438c-.68-3.721 4.496-10.371 11.081-16.787-1.402 4.181-.531 11.387 2.217 13.87-4.776 0-10.448.896-13.297 2.917h-.001z" stroke="#fff" stroke-width="2" mask="url(#path-1-inside-1)"/></svg>